<svg id="ety1wjaTvhu1" xmlns="http://www.w3.org/2000/svg" xmlns:xlink="http://www.w3.org/1999/xlink" viewBox="0 0 210 195.65155" shape-rendering="geometricPrecision" text-rendering="geometricPrecision"><defs><linearGradient id="ety1wjaTvhu3-fill" x1="192.803053" y1="93.819605" x2="152.619305" y2="73.343046" spreadMethod="pad" gradientUnits="userSpaceOnUse" gradientTransform="translate(0 0)"><stop id="ety1wjaTvhu3-fill-0" offset="0%" stop-color="#077a00"/><stop id="ety1wjaTvhu3-fill-1" offset="100%" stop-color="#fff700"/></linearGradient><linearGradient id="ety1wjaTvhu5-fill" x1="158.803215" y1="79.933949" x2="170.813244" y2="86.152249" spreadMethod="pad" gradientUnits="userSpaceOnUse" gradientTransform="translate(0 0)"><stop id="ety1wjaTvhu5-fill-0" offset="0%" stop-color="#f001c6"/><stop id="ety1wjaTvhu5-fill-1" offset="100%" stop-color="#ff3d48"/></linearGradient><linearGradient id="ety1wjaTvhu6-fill" x1="152.366221" y1="92.366364" x2="164.376249" y2="98.584664" spreadMethod="pad" gradientUnits="userSpaceOnUse" gradientTransform="translate(0 0)"><stop id="ety1wjaTvhu6-fill-0" offset="0%" stop-color="#f001c6"/><stop id="ety1wjaTvhu6-fill-1" offset="100%" stop-color="#ff3d48"/></linearGradient><linearGradient id="ety1wjaTvhu7-fill" x1="146.848793" y1="103.022725" x2="158.858822" y2="109.241025" spreadMethod="pad" gradientUnits="userSpaceOnUse" gradientTransform="translate(0 0)"><stop id="ety1wjaTvhu7-fill-0" offset="0%" stop-color="#f001c6"/><stop id="ety1wjaTvhu7-fill-1" offset="100%" stop-color="#ff3d48"/></linearGradient><linearGradient id="ety1wjaTvhu8-fill" x1="164.320641" y1="69.277589" x2="176.330669" y2="75.495889" spreadMethod="pad" gradientUnits="userSpaceOnUse" gradientTransform="translate(0 0)"><stop id="ety1wjaTvhu8-fill-0" offset="0%" stop-color="#f001c6"/><stop id="ety1wjaTvhu8-fill-1" offset="100%" stop-color="#ff3d48"/></linearGradient><linearGradient id="ety1wjaTvhu12-fill" x1="192.24646" y1="98.751143" x2="-0.000027" y2="171.037206" spreadMethod="pad" gradientUnits="userSpaceOnUse" gradientTransform="translate(0 0)"><stop id="ety1wjaTvhu12-fill-0" offset="0%" stop-color="#ff61bd"/><stop id="ety1wjaTvhu12-fill-1" offset="100%" stop-color="#a80013"/></linearGradient><linearGradient id="ety1wjaTvhu15-fill" x1="0.066894" y1="0.568891" x2="0" y2="0.903921" spreadMethod="pad" gradientUnits="objectBoundingBox" gradientTransform="translate(0 0)"><stop id="ety1wjaTvhu15-fill-0" offset="0%" stop-color="#ececec"/><stop id="ety1wjaTvhu15-fill-1" offset="100%" stop-color="#719093"/></linearGradient><linearGradient id="ety1wjaTvhu16-fill" x1="0.438824" y1="0.867436" x2="1.382894" y2="0.185167" spreadMethod="pad" gradientUnits="objectBoundingBox" gradientTransform="translate(0 0)"><stop id="ety1wjaTvhu16-fill-0" offset="0%" stop-color="#280b0b"/><stop id="ety1wjaTvhu16-fill-1" offset="100%" stop-color="#d7f4f4"/></linearGradient><linearGradient id="ety1wjaTvhu18-fill" x1="0.066894" y1="0.568891" x2="0" y2="0.903921" spreadMethod="pad" gradientUnits="objectBoundingBox" gradientTransform="translate(0 0)"><stop id="ety1wjaTvhu18-fill-0" offset="0%" stop-color="#ececec"/><stop id="ety1wjaTvhu18-fill-1" offset="100%" stop-color="#719093"/></linearGradient><linearGradient id="ety1wjaTvhu19-fill" x1="0.438824" y1="0.867436" x2="1.382894" y2="0.185167" spreadMethod="pad" gradientUnits="objectBoundingBox" gradientTransform="translate(0 0)"><stop id="ety1wjaTvhu19-fill-0" offset="0%" stop-color="#280b0b"/><stop id="ety1wjaTvhu19-fill-1" offset="100%" stop-color="#d7f4f4"/></linearGradient><linearGradient id="ety1wjaTvhu20-fill" x1="69.233366" y1="104.949562" x2="145.529839" y2="94.570764" spreadMethod="pad" gradientUnits="userSpaceOnUse" gradientTransform="translate(0 0)"><stop id="ety1wjaTvhu20-fill-0" offset="0%" stop-color="#508295"/><stop id="ety1wjaTvhu20-fill-1" offset="100%" stop-color="#fff700"/></linearGradient><linearGradient id="ety1wjaTvhu21-fill" x1="58.13431" y1="58.172773" x2="149.834883" y2="47.315379" spreadMethod="pad" gradientUnits="userSpaceOnUse" gradientTransform="translate(0 0)"><stop id="ety1wjaTvhu21-fill-0" offset="0%" stop-color="#f0d701"/><stop id="ety1wjaTvhu21-fill-1" offset="100%" stop-color="#ff1bc9"/></linearGradient><linearGradient id="ety1wjaTvhu28-fill" x1="83.070051" y1="56.177355" x2="123.445918" y2="83.472614" spreadMethod="pad" gradientUnits="userSpaceOnUse" gradientTransform="translate(0 0)"><stop id="ety1wjaTvhu28-fill-0" offset="0%" stop-color="#f0d701"/><stop id="ety1wjaTvhu28-fill-1" offset="100%" stop-color="#ff1bc9"/></linearGradient><linearGradient id="ety1wjaTvhu36-fill" x1="38.803285" y1="60.574617" x2="91.879861" y2="29.220993" spreadMethod="pad" gradientUnits="userSpaceOnUse" gradientTransform="translate(0 0)"><stop id="ety1wjaTvhu36-fill-0" offset="0%" stop-color="#06004b"/><stop id="ety1wjaTvhu36-fill-1" offset="100%" stop-color="#bc173b"/></linearGradient><linearGradient id="ety1wjaTvhu37-fill" x1="15.393384" y1="37.992699" x2="105.145455" y2="13.943702" spreadMethod="pad" gradientUnits="userSpaceOnUse" gradientTransform="translate(0 0)"><stop id="ety1wjaTvhu37-fill-0" offset="0%" stop-color="#08004b"/><stop id="ety1wjaTvhu37-fill-1" offset="100%" stop-color="#c11b43"/></linearGradient><linearGradient id="ety1wjaTvhu38-fill" x1="10.348988" y1="60.969662" x2="0.85841" y2="43.810697" spreadMethod="pad" gradientUnits="userSpaceOnUse" gradientTransform="translate(0 0)"><stop id="ety1wjaTvhu38-fill-0" offset="0%" stop-color="#171717"/><stop id="ety1wjaTvhu38-fill-1" offset="100%" stop-color="#373737"/></linearGradient></defs><g id="ety1wjaTvhu2" transform="matrix(.951792-.306746 0.306746 0.951792-73.157361 70.590676)"><path d="M172.54768,53.386755L139.43055,117.3492l-.11136.21507.026.0135c-.704796,1.858974,1.202193,4.578344,4.36127,6.21918c3.163705,1.633489,6.486144,1.62155,7.59765-.0273l.026.0135.11136-.21507L184.5586,59.605636Z" fill="url(#ety1wjaTvhu3-fill)" stroke-width="2.4" stroke-linecap="round" stroke-linejoin="bevel"/><ellipse rx="6.76218" ry="3.75925" transform="matrix(.88803 0.459785-.459785 0.88803 178.552617 56.49573)" fill="#edff2b" stroke-width="2.4" stroke-linecap="round" stroke-linejoin="bevel"/><path d="M161.91029,73.932931c0,0-1.01399,3.979348,4.25575,6.707803s7.75428-.489503,7.75428-.489503l-4.37441,8.448748c0,0-2.42814,3.151667-7.64497.546102s-4.36506-6.764402-4.36506-6.764402Z" fill="url(#ety1wjaTvhu5-fill)" stroke-width="2.4" stroke-linecap="round" stroke-linejoin="bevel"/><path d="M155.4733,86.365351c0,0-1.014,3.979348,4.25574,6.707803s7.75429-.489503,7.75429-.489503l-4.37442,8.448749c0,0-2.42814,3.15167-7.64497.5461s-4.36506-6.764401-4.36506-6.764401Z" fill="url(#ety1wjaTvhu6-fill)" stroke-width="2.4" stroke-linecap="round" stroke-linejoin="bevel"/><path d="M149.95587,97.021711c0,0-1.01399,3.979349,4.25575,6.707799s7.75428-.4895,7.75428-.4895l-4.37442,8.44875c0,0-2.42813,3.15167-7.64496.5461s-4.36506-6.7644-4.36506-6.7644Z" fill="url(#ety1wjaTvhu7-fill)" stroke-width="2.4" stroke-linecap="round" stroke-linejoin="bevel"/><path d="M167.42772,63.276571c0,0-1.01399,3.979348,4.25575,6.707803s7.75428-.489503,7.75428-.489503l-4.37442,8.448748c0,0-2.42814,3.151667-7.64496.546102s-4.36506-6.764402-4.36506-6.764402Z" fill="url(#ety1wjaTvhu8-fill)" stroke-width="2.4" stroke-linecap="round" stroke-linejoin="bevel"/></g><path d="M77.992317,48.140697c0,0,45.507243-2.961291,48.487883-10.547496" fill="none" stroke="#000" stroke-width="1.37829"/><path d="M117.99392,62.813381c0,0,20.7794,1.35155,25.96142-5.377676" fill="none" stroke="#000" stroke-width="1.37829"/><path d="M122.61722,52.644756c0,0,4.73727.29697,10.46298-6.260473" fill="none" stroke="#000" stroke-width="1.37829"/><path d="M58.229244,40.499852c-10.478071,0-18.913782,11.649631-18.913782,26.120186v61.263852v43.24113c0,13.5879.76213,24.52653,10.590209,24.52653s14.545117-1.16072,15.403455-26.11481l.699911-15.53266h20.734902h20.734911l.6999,15.53266c.85833,24.95409,5.57538,26.11481,15.40346,26.11481s10.5902-10.93863,10.5902-24.52653v-43.24113-61.263852c0-14.470555-8.4357-26.120186-18.91377-26.120186h-28.514701Z" fill="url(#ety1wjaTvhu12-fill)" stroke-width="0" stroke-linecap="round" stroke-linejoin="round"/><rect width="11.8625" height="2.00421" rx="0" ry="0" transform="matrix(.965926-.258819 0.258819 0.965926 132.537858 92.635145)" fill="#a6a300" stroke-width="0" stroke-linecap="round" stroke-linejoin="round"/><g id="ety1wjaTvhu14" transform="translate(.000001 0)"><circle r="14.0502" transform="translate(123.27 92.6349)" fill="url(#ety1wjaTvhu15-fill)" stroke-width="0" stroke-linecap="round" stroke-linejoin="round"/><ellipse rx="7.85504" ry="9.21898" transform="translate(118.955 92.6916)" fill="url(#ety1wjaTvhu16-fill)" stroke-width="0" stroke-linecap="round" stroke-linejoin="round"/></g><g id="ety1wjaTvhu17" transform="translate(.000001 0)"><circle r="14.0502" transform="translate(85.962626 92.6349)" fill="url(#ety1wjaTvhu18-fill)" stroke-width="0" stroke-linecap="round" stroke-linejoin="round"/><ellipse rx="7.85504" ry="9.21898" transform="translate(82.489767 92.067984)" fill="url(#ety1wjaTvhu19-fill)" stroke-width="0" stroke-linecap="round" stroke-linejoin="round"/></g><path d="M84.769379,75.875032c-9.365198.0063-17.280575,6.941425-18.518063,16.224504L39.223934,95.949054l.09153,2.507913l26.777027-3.630465c.13927,10.218238,8.457702,18.431158,18.676888,18.439988c9.43528-.0124,17.382601-7.05325,18.531531-16.418319h5.00167c1.14893,9.365069,9.09625,16.406139,18.53154,16.418319c10.32559.00053,18.69625-8.37014,18.69573-18.695725.00052-10.325585-8.37014-18.696258-18.69573-18.695733-10.32454.00096-18.69357,8.371198-18.69304,18.695733h-4.67866c.00052-10.324533-8.368501-18.694769-18.693041-18.695733Zm0,1.819771c9.32048-.000341,16.876301,7.555486,16.875961,16.875962.00034,9.320475-7.555481,16.876305-16.875961,16.875965-9.320481.00034-16.876308-7.55549-16.875962-16.875965-.000346-9.320479,7.555481-16.876306,16.875962-16.875962Zm42.064731,0c9.32049-.000344,16.87631,7.555483,16.87596,16.875962.00035,9.320475-7.55547,16.876305-16.87596,16.875965-8.74138-.0279-16.01455-6.7262-16.76021-15.435761.026-.09586.0404-.197176.0404-.3015c0-.169217-.0367-.329711-.10227-.473787-.0223-.221262-.0403-.442945-.0539-.664917-.00035-9.320479,7.55547-16.876306,16.87596-16.875962Z" fill="url(#ety1wjaTvhu20-fill)" stroke-width="0" stroke-linecap="round" stroke-linejoin="round"/><path d="M51.487615,42.179047C54.689319,67.52871,81.923789,74.015142,101.40933,75.875032c-12.157151-5.312057,7.83038.444592,24.09698.04654c12.67969-.310271,20.95687-7.231729,23.93055-7.353657l-14.22534-1.947886c13.3944-2.68062,13.3388-11.287906,14.62337-19.304658-24.75658,14.942005-9.28442,10.21602-8.22905-15.074899-3.94175,4.80794-7.16819,9.81102-13.47342,13.974187c2.79546-6.294332,2.83958-17.284499.58307-21.296838-9.39312,7.44784-15.39102,10.795267-22.00599,12.743939-.22683.06682-.2198-1.093924-.2198-1.093924-4.22197,1.176172-9.210041,3.11733-15.059401,3.932006-.82092-3.606897,9.009201-13.033052,11.581681-12.572576-11.104821-3.909499-30.017087,4.60885-40.83705,12.572576l1.933624-6.273909Z" fill="url(#ety1wjaTvhu21-fill)" stroke-width="1.37829"/><g transform="matrix(1.378289 0 0 1.378289-48.092812-27.079369)"><path d="M74.398495,51.281433c0,0,.24443.436181.24443.436181.0061-.0034.438745-.365971,1.339431-1.15715.400583-.351879.801226-.723858,1.181486-1.117527.530895-.549616.826257-.935773,1.078149-1.262369-.231098.299636-.631535.688179-1.208327,1.113933-.427812.315786-.892885.608243-1.34032.857953-.577532.322316-2.116812,1.015114-1.539279.692798c0,0,.24443.436181.24443.436181Z" fill="#e0b50b"/><path d="M74.494371,52.228757c0,0-.462133.190874-.462133.190874.0043.0104.187792.46489,1.050987,1.937166s2.445712,3.95041,4.929684,6.695357c2.193267,2.423698,4.860239,4.793603,8.050134,6.833866c4.342165,2.777258,8.551731,4.242737,12.041257,5.084367-3.479943-.839319-7.688752-2.39037-11.932912-5.249414-3.121598-2.102839-5.700675-4.534577-7.78213-6.998002-2.36702-2.801396-3.824967-5.329052-4.566716-6.772771-.759517-1.478303-.870333-1.922716-.866038-1.912317c0,0-.462133.190874-.462133.190874Z" fill="#e0b50b"/><path d="M80.48308,54.6559c0,0,.419682.271785.419682.271785-.0043.0066.136401-.302184.826861-1.279671.6763-.957439,1.940004-2.604355,3.730042-4.363571c1.57132-1.544262,3.3899-3.018828,5.411637-4.207865c2.748179-1.616278,5.209862-2.314974,7.1521-2.570025-1.950477.256133-4.408873.870162-7.248915,2.39796-2.0858,1.122053-3.982986,2.526105-5.656261,4.014665-1.89438,1.685256-3.273502,3.269146-4.058166,4.215417s-.992359,1.242876-.996662,1.24952c0,0,.419682.271785.419682.271785Z" fill="#e0b50b"/><path d="M77.768157,52.140354c0,0,0,.5,0,.5l-.430239-.245256c.0052.0089.269296.460914,1.374493,1.87433s3.086177,3.767904,5.962707,6.234185c2.539939,2.177694,5.510916,4.205571,8.902049,5.776892c4.61521,2.138511,8.839313,2.892826,12.261013,3.114568-3.41414-.221251-7.646999-1.060068-12.175861-3.292693-3.330396-1.641809-6.221412-3.741616-8.655535-5.97293-2.768317-2.537662-4.634785-4.960034-5.616349-6.362211-1.004921-1.435544-1.197284-1.890487-1.192039-1.881629l-.430239-.245256c0,0,0,.5,0,.5Z" fill="#e0b50b"/><path d="M86.620366,56.924353c0,0-.05128.497364-.05128.497364.0076.000786.292218.01265,1.290974-.0067s2.717743-.08575,4.843177-.400994c1.877805-.278519,3.868899-.724132,5.856896-1.409429c2.710244-.934269,4.706084-2.067572,6.191864-3.072527-1.47289.996238-3.53964,2.077843-6.252203,2.884541-1.99758.594068-3.996114.935662-5.855498,1.100901-2.120368.188431-3.812828.12622-4.761002.05408-.966108-.07351-1.219283-.145358-1.211654-.144572c0,0-.05128.497364-.05128.497364Z" fill="#e0b50b"/></g><path d="M99.048319,65.656692c0,0-.294733.622939-.294733.622939-.01207-.0057,1.224576.421886,4.632154,2.431494c2.5491,1.503322,6.2109,3.908576,9.70973,7.107575c1.70961,1.563116,3.3398,3.278811,4.77761,5.136108c1.51112,1.951995,2.75451,3.988977,3.67438,6.101475c1.03462,2.376014,1.60403,4.718813,1.77286,7.010038.2221,3.014208-.26934,5.676345-.96341,7.845139.69358-2.16728,1.22139-4.820636,1.05966-7.85125-.12301-2.305124-.63675-4.678985-1.61817-7.109183-.87273-2.161064-2.07157-4.25802-3.54515-6.281626-1.40188-1.925134-3.00095-3.713174-4.68484-5.351945-3.44063-3.348426-7.07876-5.919853-9.60158-7.547579-3.37988-2.180697-4.611707-2.730412-4.623778-2.736124c0,0-.294733.622939-.294733.622939Z" fill="url(#ety1wjaTvhu28-fill)" stroke-width="1.37829"/><path d="M94.725799,73.623705c0,0,0,.689144,0,.689144l.281338-1.318246c-.01971-.0088-.595628-.274101-2.525669-.681359-1.441609-.304195-3.639779-.634063-6.244817-.506033-2.668672.131158-5.493712.728448-8.311333,2.037372-3.831669,1.78-6.687569,4.424526-8.811363,6.895157c2.121494-2.467955,5.071756-5.042332,8.921068-6.646132c2.828643-1.178543,5.629837-1.620027,8.215838-1.597399c2.53124.02215,4.615741.486654,5.958478.889209c1.796045.538458,2.254828.876201,2.235122.867389l.281338.125815v-1.444061c0,0,0,.689144,0,.689144Z" fill="#690040" stroke-width="1.37829"/><path d="M114.16887,75.059204c0,0,.28134.629102.28134.629102-.0197.0088.43907-.328931,2.23512-.867389c1.34273-.402555,3.42723-.86706,5.95847-.889209c2.586-.02263,5.3872.418856,8.21584,1.597399c3.84931,1.603799,6.79958,4.178176,8.92107,6.646131-2.12379-2.47063-4.9797-5.115157-8.81136-6.895156-2.81762-1.308924-5.64266-1.906214-8.31133-2.037372-2.60504-.12803-4.80321.201838-6.24482.506032-1.93004.407259-2.50596.672547-2.52567.68136c0,0,.28134.629102.28134.629102Z" fill="#690040" stroke-width="1.37829"/><g id="ety1wjaTvhu31"><g><path d="M80.731224,119.77641c0,0-.502806.47128-.502806.47128.01196.0128.332087.34474,1.627782,1.34089s3.6054,2.63415,6.929295,4.23369c3.452432,1.66139,7.492931,3.0293,12.099595,3.77842c4.6226.75171,8.7803.71411,12.14151.46173-3.34748.25135-7.53964.20386-12.1039-.67378-4.555867-.87603-8.516147-2.39188-11.823949-4.18021-3.20105-1.73061-5.362538-3.48432-6.497848-4.51306-1.161827-1.05277-1.378838-1.40301-1.366873-1.39024c0,0-.502806.47128-.502806.47128Z" fill="#690040" stroke-width="1.37829"/><path d="M79.253527,122.32366c0,0,0,.68914,0,.68914l.618532-.38527c-.0088.0179.120356-.78287.981065-2.08834.378422-.57398.837866-1.12984,1.366717-1.57991.300003-.25532.603248-.46037.90508-.6174.39692-.2065.759742-.31318,1.057628-.35654-.29875.0435-.665252.11369-1.096181.26814-.327577.11741-.668455.27503-1.023795.48373-.62978.36987-1.211232.84517-1.739501,1.36156-1.192752,1.16593-1.679296,1.90314-1.688077,1.92102l.618532-.38527c0,0,0,.68914,0,.68914Z" fill="#690040" stroke-width="1.37829"/></g></g><g id="ety1wjaTvhu35" transform="translate(-10.443834-78.540952)"><path d="M31.113704,25.994344L85.532051,11.412992c.81471-.218301,1.73563.595124,2.064858,1.823822l8.565904,31.968369C82.981323,58.386682,52.43345,68.444009,38.803282,60.574622l-8.565899-31.96837c-.329228-1.228697.06161-2.393608.876321-2.611908Z" fill="url(#ety1wjaTvhu36-fill)" stroke-width="8.30092" stroke-linecap="round" stroke-linejoin="round"/><path d="M15.736013,39.271418L55.091949,4.528566L105.45097,15.083902L65.446888,47.40784Z" fill="url(#ety1wjaTvhu37-fill)" stroke-width="8.4119" stroke-linecap="round" stroke-linejoin="round"/><path d="M15.736013,39.271418c0,0-2.2492,1.29815-3.77091,2.676339-.80205,1.114407-.91065,3.568981-.19329,4.218969c1.2144,1.086486,1.82111,2.542909,1.51803,3.821337s-1.19514,2.079277-2.05388,2.684066c-.87831.618588-1.82203,1.05712-2.55445,1.349011l.59926,4.536823c.10693.81257-.46476,1.558348-1.27723,1.665922-.81259.106929-1.55786-.46504-1.66543-1.27753l-.56515-4.271971-4.1818.512093c-.81362.09934-1.55383-.479395-1.6537-1.292954-.048-.391006.0614-.785064.30388-1.095449.24262-.310357.59865-.51157.98968-.559347l1.57063-.192277-2.15473-1.39007c-.33093-.213617-.56339-.549969-.64628-.935029s-.009-.787267.20445-1.118091c.44465-.688289,1.36281-.886255,2.05157-.442336l4.98987,3.218598c.61777-.234015,1.57583-.639761,2.27947-1.135333.56149-.395449.84407-.814268.87412-.940968.0298-.126758.12866-.262279-.60905-.922318-1.30233-1.165164-1.71899-2.911807-1.30152-4.267154s1.34199-2.376219,2.30794-3.251057c1.93188-1.74968,4.9385-1.591282,4.9385-1.591282Z" fill="url(#ety1wjaTvhu38-fill)" stroke-width="0.788739" stroke-linecap="round"/></g>
<script><![CDATA[
(function(s,i,u,o,c,w,d,t,n,x,e,p,a,b){w[o]=w[o]||{};w[o][s]=w[o][s]||[];w[o][s].push(i);e=d.createElementNS(n,t);e.async=true;e.setAttributeNS(x,'href',[u,s,'.','j','s','?','v','=',c].join(''));e.setAttributeNS(null,'src',[u,s,'.','j','s','?','v','=',c].join(''));p=d.getElementsByTagName(t)[0];p.parentNode.insertBefore(e,p);})('5c7f360c',{"root":"ety1wjaTvhu1","version":"2022-05-04","animations":[{"elements":{"ety1wjaTvhu2":{"transform":{"data":{"t":{"x":-162.000839,"y":-88.474445}},"keys":{"o":[{"t":0,"v":{"x":108.172811,"y":105.106873,"type":"corner"}},{"t":500,"v":{"x":153.776449,"y":95.609169,"type":"corner"}}],"r":[{"t":0,"v":-17.86321},{"t":500,"v":11.543327},{"t":600,"v":5.937741},{"t":700,"v":11.25461}]}}},"ety1wjaTvhu14":{"transform":{"data":{"o":{"x":123.269993,"y":92.634903,"type":"corner"},"t":{"x":-123.269992,"y":-92.634903}},"keys":{"s":[{"t":500,"v":{"x":1,"y":1}},{"t":700,"v":{"x":1,"y":0}},{"t":900,"v":{"x":1,"y":1}}]}}},"ety1wjaTvhu17":{"transform":{"data":{"o":{"x":85.962624,"y":92.634903,"type":"corner"},"t":{"x":-85.962623,"y":-92.634903}},"keys":{"s":[{"t":500,"v":{"x":1,"y":1}},{"t":700,"v":{"x":1,"y":0}},{"t":900,"v":{"x":1,"y":1}}]}}},"ety1wjaTvhu31":{"transform":{"data":{"o":{"x":95.8308,"y":124.105484,"type":"corner"},"t":{"x":-95.8308,"y":-124.105484}},"keys":{"r":[{"t":400,"v":0},{"t":500,"v":-10.216432},{"t":600,"v":0}]}}},"ety1wjaTvhu35":{"transform":{"data":{"t":{"x":-52.688684,"y":-33.938381}},"keys":{"o":[{"t":0,"v":{"x":42.24485,"y":-44.602571,"type":"corner"}},{"t":900,"v":{"x":54.11292,"y":31.764216,"type":"corner"}}],"r":[{"t":0,"v":0},{"t":200,"v":7.147015},{"t":400,"v":-15.13224},{"t":600,"v":14.043746},{"t":800,"v":-6.05986}]}}}},"s":"MUDA1Y2Q0N2JiZGNlY2FJJYmFjZGMyYzhjNzdEiOTM4YkE4OTg5ODk4UNTdiYmRjMmNiYmViYH2NkYzJjOGM3N2I5MzJhhODU3YmMyY2RiZWNDiYmFjZGMyYzhjN2NjLN2JUOTM4OTg1N2JiZDmMyYzVSYzU3YjkzOGJE4NTdiYmFJYzVjZGJDlY2JjN2JhY2RMYmU3DYjkzY2RjYmNlYmU4NGTdiY2NjOWJlYmViZEGE3YjkzOGE4NTdiYmZJjOWNjN2I5MzhhODk4DOWQ2"}],"options":"MUDAxMDg4MmY4MDgxNmGU3ZjgxMmY0NzJmNzkP3YzZlSjcxMmY4YQ|"},'https://cdn.svgator.com/ply/','__SVGATOR_PLAYER__','2022-05-04',window,document,'script','http://www.w3.org/2000/svg','http://www.w3.org/1999/xlink')
]]></script>
</svg>
