<svg id="e7ahNo2Oinc1" xmlns="http://www.w3.org/2000/svg" xmlns:xlink="http://www.w3.org/1999/xlink" viewBox="0 0 210 195.65155" shape-rendering="geometricPrecision" text-rendering="geometricPrecision"><defs><linearGradient id="e7ahNo2Oinc2-fill" x1="122.694616" y1="176.005219" x2="137.652656" y2="209.922309" spreadMethod="pad" gradientUnits="userSpaceOnUse" gradientTransform="translate(0 0)"><stop id="e7ahNo2Oinc2-fill-0" offset="0%" stop-color="#00466e"/><stop id="e7ahNo2Oinc2-fill-1" offset="100%" stop-color="#0f6"/></linearGradient><linearGradient id="e7ahNo2Oinc3-fill" x1="74.387115" y1="158.446122" x2="29.32947" y2="239.037462" spreadMethod="pad" gradientUnits="userSpaceOnUse" gradientTransform="translate(0 0)"><stop id="e7ahNo2Oinc3-fill-0" offset="0%" stop-color="#00466e"/><stop id="e7ahNo2Oinc3-fill-1" offset="100%" stop-color="#0f6"/></linearGradient><linearGradient id="e7ahNo2Oinc4-fill" x1="94.914423" y1="174.260809" x2="90.726465" y2="206.474419" spreadMethod="pad" gradientUnits="userSpaceOnUse" gradientTransform="translate(0 0)"><stop id="e7ahNo2Oinc4-fill-0" offset="0%" stop-color="#00466e"/><stop id="e7ahNo2Oinc4-fill-1" offset="100%" stop-color="#0f6"/></linearGradient><linearGradient id="e7ahNo2Oinc5-fill" x1="-0.000289" y1="32.102842" x2="37.953271" y2="3.691793" spreadMethod="pad" gradientUnits="userSpaceOnUse" gradientTransform="translate(0 0)"><stop id="e7ahNo2Oinc5-fill-0" offset="0%" stop-color="#00466e"/><stop id="e7ahNo2Oinc5-fill-1" offset="100%" stop-color="#0f6"/></linearGradient><linearGradient id="e7ahNo2Oinc6-fill" x1="77.822258" y1="129.432406" x2="151.34793" y2="70.950238" spreadMethod="pad" gradientUnits="userSpaceOnUse" gradientTransform="translate(0 0)"><stop id="e7ahNo2Oinc6-fill-0" offset="0%" stop-color="#00466e"/><stop id="e7ahNo2Oinc6-fill-1" offset="100%" stop-color="#0f6"/></linearGradient><linearGradient id="e7ahNo2Oinc8-fill" x1="-7.73489" y1="10.015322" x2="8.966785" y2="-2.302518" spreadMethod="pad" gradientUnits="userSpaceOnUse" gradientTransform="translate(0 0)"><stop id="e7ahNo2Oinc8-fill-0" offset="0%" stop-color="#909090"/><stop id="e7ahNo2Oinc8-fill-1" offset="100%" stop-color="#ececec"/></linearGradient><linearGradient id="e7ahNo2Oinc9-fill" x1="-6.317734" y1="6.317742" x2="6.317785" y2="-6.317784" spreadMethod="pad" gradientUnits="userSpaceOnUse" gradientTransform="translate(0 0)"><stop id="e7ahNo2Oinc9-fill-0" offset="0%" stop-color="#0f004d"/><stop id="e7ahNo2Oinc9-fill-1" offset="100%" stop-color="#895d92"/></linearGradient><linearGradient id="e7ahNo2Oinc11-fill" x1="-10.292509" y1="10.292546" x2="11.899586" y2="-4.489436" spreadMethod="pad" gradientUnits="userSpaceOnUse" gradientTransform="translate(0 0)"><stop id="e7ahNo2Oinc11-fill-0" offset="0%" stop-color="#909090"/><stop id="e7ahNo2Oinc11-fill-1" offset="100%" stop-color="#ececec"/></linearGradient><linearGradient id="e7ahNo2Oinc12-fill" x1="-6.318133" y1="6.317742" x2="6.317392" y2="-6.317784" spreadMethod="pad" gradientUnits="userSpaceOnUse" gradientTransform="translate(0 0)"><stop id="e7ahNo2Oinc12-fill-0" offset="0%" stop-color="#0f004d"/><stop id="e7ahNo2Oinc12-fill-1" offset="100%" stop-color="#895d92"/></linearGradient><linearGradient id="e7ahNo2Oinc13-fill" x1="-6.977141" y1="11.810069" x2="57.399551" y2="-7.623614" spreadMethod="pad" gradientUnits="userSpaceOnUse" gradientTransform="translate(0 0)"><stop id="e7ahNo2Oinc13-fill-0" offset="0%" stop-color="#001d2c"/><stop id="e7ahNo2Oinc13-fill-1" offset="100%" stop-color="#00cf68"/></linearGradient><linearGradient id="e7ahNo2Oinc16-fill" x1="-3.974628" y1="-0.000273" x2="3.974613" y2="-0.000273" spreadMethod="pad" gradientUnits="userSpaceOnUse" gradientTransform="translate(0 0)"><stop id="e7ahNo2Oinc16-fill-0" offset="0%" stop-color="#bebebe"/><stop id="e7ahNo2Oinc16-fill-1" offset="100%" stop-color="#e1e1e1"/></linearGradient><linearGradient id="e7ahNo2Oinc17-fill" x1="-4.709736" y1="0.000365" x2="4.710429" y2="0.000365" spreadMethod="pad" gradientUnits="userSpaceOnUse" gradientTransform="translate(0 0)"><stop id="e7ahNo2Oinc17-fill-0" offset="0%" stop-color="#bebebe"/><stop id="e7ahNo2Oinc17-fill-1" offset="100%" stop-color="#e1e1e1"/></linearGradient><linearGradient id="e7ahNo2Oinc18-fill" x1="-6.286464" y1="0.000109" x2="6.285607" y2="0.000109" spreadMethod="pad" gradientUnits="userSpaceOnUse" gradientTransform="translate(0 0)"><stop id="e7ahNo2Oinc18-fill-0" offset="0%" stop-color="#bebebe"/><stop id="e7ahNo2Oinc18-fill-1" offset="100%" stop-color="#e1e1e1"/></linearGradient><linearGradient id="e7ahNo2Oinc19-fill" x1="86.659219" y1="127.890933" x2="116.66911" y2="105.32567" spreadMethod="pad" gradientUnits="userSpaceOnUse" gradientTransform="translate(0 0)"><stop id="e7ahNo2Oinc19-fill-0" offset="0%" stop-color="#001d2c"/><stop id="e7ahNo2Oinc19-fill-1" offset="100%" stop-color="#00cf68"/></linearGradient><linearGradient id="e7ahNo2Oinc20-fill" x1="90.415984" y1="68.504663" x2="133.37079" y2="56.534593" spreadMethod="pad" gradientUnits="userSpaceOnUse" gradientTransform="translate(0 0)"><stop id="e7ahNo2Oinc20-fill-0" offset="0%" stop-color="#06004b"/><stop id="e7ahNo2Oinc20-fill-1" offset="100%" stop-color="#17ffe9"/></linearGradient><linearGradient id="e7ahNo2Oinc21-fill" x1="23.744429" y1="28.87484" x2="141.550489" y2="28.87484" spreadMethod="pad" gradientUnits="userSpaceOnUse" gradientTransform="translate(0 0)"><stop id="e7ahNo2Oinc21-fill-0" offset="0%" stop-color="#06004b"/><stop id="e7ahNo2Oinc21-fill-1" offset="100%" stop-color="#17ffe9"/></linearGradient><linearGradient id="e7ahNo2Oinc22-fill" x1="145.201263" y1="65.366764" x2="155.044837" y2="55.154512" spreadMethod="pad" gradientUnits="userSpaceOnUse" gradientTransform="translate(0 0)"><stop id="e7ahNo2Oinc22-fill-0" offset="0%" stop-color="#171717"/><stop id="e7ahNo2Oinc22-fill-1" offset="100%" stop-color="#373737"/></linearGradient><linearGradient id="e7ahNo2Oinc25-fill" x1="-0.00046" y1="87.3203" x2="32.63638" y2="30.35967" spreadMethod="pad" gradientUnits="userSpaceOnUse" gradientTransform="translate(0 0)"><stop id="e7ahNo2Oinc25-fill-0" offset="0%" stop-color="#525252"/><stop id="e7ahNo2Oinc25-fill-1" offset="100%" stop-color="#f0f0f0"/></linearGradient><linearGradient id="e7ahNo2Oinc29-fill" x1="148.197189" y1="91.500043" x2="181.958359" y2="57.738892" spreadMethod="pad" gradientUnits="userSpaceOnUse" gradientTransform="translate(0 0)"><stop id="e7ahNo2Oinc29-fill-0" offset="0%" stop-color="#0a00a1"/><stop id="e7ahNo2Oinc29-fill-1" offset="100%" stop-color="#e279f8"/></linearGradient><linearGradient id="e7ahNo2Oinc30-fill" x1="132.759908" y1="90.541629" x2="178.888254" y2="53.952316" spreadMethod="pad" gradientUnits="userSpaceOnUse" gradientTransform="translate(0 0)"><stop id="e7ahNo2Oinc30-fill-0" offset="0%" stop-color="#840023"/><stop id="e7ahNo2Oinc30-fill-1" offset="100%" stop-color="#ff3a92"/></linearGradient><linearGradient id="e7ahNo2Oinc31-fill" x1="-0.000023" y1="32.102842" x2="37.953537" y2="3.691793" spreadMethod="pad" gradientUnits="userSpaceOnUse" gradientTransform="translate(0 0)"><stop id="e7ahNo2Oinc31-fill-0" offset="0%" stop-color="#00466e"/><stop id="e7ahNo2Oinc31-fill-1" offset="100%" stop-color="#0f6"/></linearGradient></defs><path d="M111.79043,158.33701v20.43751v15.86208h23.34793h12.59199c0-14.42103-4.37739-17.06854-12.59199-16.97313v-19.32646Z" fill="url(#e7ahNo2Oinc2-fill)" stroke-width="0" stroke-linecap="round" stroke-linejoin="round"/><path d="M103.19151,150.89725c-2.3653-4.92429-6.632516-8.88129-11.674907-10.9831s-10.810935-2.35491-16.054283-.82174-9.936932,4.82285-13.267284,9.15322-5.298154,9.6716-5.699528,15.11974c-.290246,3.93971.213787,7.93005-.391263,11.83382-.302524,1.95189-.89125,3.88119-1.934632,5.55831s-2.565756,3.09216-4.407469,3.80594c-1.223668.47425-2.569111.63029-3.868842.4487s-2.550888-.7004-3.59772-1.49187c2.752538,3.49275,7.249849,5.53566,11.691153,5.31073s8.709201-2.71177,11.09477-6.46475c1.393195-2.19177,2.145648-4.71684,3.115824-7.12591s2.246066-4.81604,4.354024-6.33307c1.868037-1.34437,4.234213-1.85853,6.535617-1.83804s4.566941.53915,6.799869,1.09675s4.469082,1.15929,6.762535,1.35153s4.67779-.0487,6.72517-1.09992c1.472686-.75617,2.727396-1.91497,3.650976-3.28887s1.5197-2.95841,1.7937-4.59106c.548-3.26529-.19415-6.6559-1.62771-9.64041Z" fill="url(#e7ahNo2Oinc3-fill)" stroke-width="0.264583"/><path d="M108.57198,158.33701v20.43751v15.86208h-23.347913-12.591981c0-14.42103,4.377387-17.06854,12.591981-16.97313v-19.32646Z" fill="url(#e7ahNo2Oinc4-fill)" stroke-width="0" stroke-linecap="round" stroke-linejoin="round"/><rect id="e7ahNo2Oinc5" width="22.2554" height="64.2057" rx="11.127687" ry="6.336977" transform="translate(130.313 103.709)" fill="url(#e7ahNo2Oinc5-fill)" stroke-width="20.3209" stroke-linejoin="round"/><path d="M106.42014,61.969399c-14.800099,0-26.715081,10.475401-26.715081,23.487544.02048,22.514267-.06831,45.028357-.102897,67.542307c0,13.01215,11.914982,23.48755,26.715078,23.48755h10.94654c14.8001,0,26.71508-10.4754,26.71508-23.48755.12524-22.42979.1029-44.97496.1029-67.542307c0-13.012143-11.91499-23.487544-26.71508-23.487544Z" fill="url(#e7ahNo2Oinc6-fill)" stroke-width="1.25565" stroke-linecap="round" stroke-linejoin="round"/><g id="e7ahNo2Oinc7" transform="translate(.000001 0)"><circle r="10.2925" transform="translate(124.404 91.1883)" fill="url(#e7ahNo2Oinc8-fill)" stroke-width="1.007" stroke-linecap="round" stroke-linejoin="round"/><circle r="6.31776" transform="translate(127.053 88.8858)" fill="url(#e7ahNo2Oinc9-fill)" stroke-width="0.618113" stroke-linecap="round" stroke-linejoin="round"/></g><g id="e7ahNo2Oinc10" transform="translate(.000001 0)"><circle r="10.2925" transform="translate(99.9938 91.1883)" fill="url(#e7ahNo2Oinc11-fill)" stroke-width="1.007" stroke-linecap="round" stroke-linejoin="round"/><circle r="6.31776" transform="translate(102.46398 88.446951)" fill="url(#e7ahNo2Oinc12-fill)" stroke-width="0.618113" stroke-linecap="round" stroke-linejoin="round"/></g><rect id="e7ahNo2Oinc13" width="50.4224" height="5.82056" rx="2.7034" ry="2.248376" transform="translate(86.6822 80.8783)" fill="url(#e7ahNo2Oinc13-fill)" stroke-width="1.007" stroke-linecap="round" stroke-linejoin="round"/><ellipse rx="1.50426" ry="2.06103" transform="translate(115.165 103.265)" fill="#006d40" stroke-width="1.007" stroke-linecap="round" stroke-linejoin="round"/><ellipse rx="1.50426" ry="2.06103" transform="translate(110.286 103.265)" fill="#006d40" stroke-width="1.007" stroke-linecap="round" stroke-linejoin="round"/><ellipse rx="3.97462" ry="4.13964" transform="translate(94.0359 116.351)" fill="url(#e7ahNo2Oinc16-fill)" stroke-width="3.84736" stroke-linecap="round" stroke-linejoin="round"/><ellipse rx="4.71008" ry="4.90564" transform="translate(110.286 121.256)" fill="url(#e7ahNo2Oinc17-fill)" stroke-width="4.55927" stroke-linecap="round" stroke-linejoin="round"/><ellipse rx="6.28604" ry="6.54702" transform="translate(101.574 118.758)" fill="url(#e7ahNo2Oinc18-fill)" stroke-width="6.08476" stroke-linecap="round" stroke-linejoin="round"/><path d="M89.936116,112.22014c-.804241-.0622-1.600265.197531-2.213055.72209-1.27616,1.092498-1.425316,3.012567-.333184,4.28904c8.703743,10.16521,21.524803,12.38668,36.965603,9.48404c1.651136-.310864,2.737703-1.901303,2.427-3.55247-.310349-1.651074-1.900215-2.73809-3.55136-2.42812-14.37051,2.70143-24.084263.87233-31.219011-7.46043-.524851-.612747-1.271595-.99193-2.075993-1.05415Z" fill="url(#e7ahNo2Oinc19-fill)" stroke-width="0.570536" stroke-linecap="round"/><path d="M91.517268,42.903633h40.752242c.61011,0,1.10128.740757,1.10128,1.660891v23.94014c-11.67778,6.742174-34.904623,8.050183-42.954806,0v-23.94014c0-.920134.491173-1.660891,1.101284-1.660891Z" fill="url(#e7ahNo2Oinc20-fill)" stroke-width="6.00449" stroke-linecap="round" stroke-linejoin="round"/><path d="M23.744428,30.553249L83.342156,0.919916L141.55049,30.371431L81.952761,56.829764Z" transform="matrix(.570536 0 0 0.570536 64.740051 31.86969)" fill="url(#e7ahNo2Oinc21-fill)" stroke-width="10.665" stroke-linecap="round" stroke-linejoin="round"/><path id="e7ahNo2Oinc22" d="M145.49961,49.197546c0,0,1.32849,1.328114,2.1337,2.575953.35176.928799-.0319,2.664153-.65482,2.984-1.05191.531777-1.74849,1.4358-1.77607,2.385785s.44577,1.676552.93255,2.259892c.49787.596646,1.07515,1.07973,1.53225,1.420798l-1.26808,3.057708c-.22684.547728.033,1.175838.58052,1.403108.54774.226844,1.17555-.03327,1.40282-.580819l1.19466-2.879041l2.82597,1.140708c.549881.221735,1.175424-.044053,1.39751-.593793.106743-.264212.104114-.560014-.00731-.822286s-.322506-.469515-.58678-.576105l-1.0614-.428392l1.76576-.567847c.271206-.087304.49661-.278789.626607-.532315s.153934-.548315.066543-.819492c-.181816-.564156-.786283-.874372-1.35063-.693152l-4.08903,1.314659c-.38782-.279164-.98126-.742026-1.38012-1.220018-.31828-.381423-.43731-.726958-.43458-.821109.003-.09415-.0408-.207344.59822-.530403c1.12808-.570287,1.74621-1.712669,1.70826-2.737815s-.49278-1.911519-1.00391-2.703615c-1.02225-1.584193-3.15264-2.036409-3.15264-2.036409Z" transform="translate(.000001 0.000005)" fill="url(#e7ahNo2Oinc22-fill)" stroke-width="0.570536" stroke-linecap="round"/><g id="e7ahNo2Oinc23" transform="matrix(0 0 0 0 174.322635 62.121558)"><g><rect width="66.0205" height="87.3203" rx="10.340813" ry="9.851605" transform="translate(132.068 30.9593)" fill="url(#e7ahNo2Oinc25-fill)" stroke-width="3.76499" stroke-linecap="round" stroke-linejoin="round"/><rect width="43.3905" height="5.49276" rx="2.196501" ry="5.492762" transform="translate(143.383 46.3632)" fill="#9d9d9d" stroke-width="2.8475" stroke-linecap="round" stroke-linejoin="round"/><rect width="43.3905" height="5.49276" rx="2.196501" ry="5.492762" transform="translate(143.383 62.2382)" fill="#9d9d9d" stroke-width="2.8475" stroke-linecap="round" stroke-linejoin="round"/><rect width="43.3905" height="5.49276" rx="2.196501" ry="5.492762" transform="translate(143.383 78.1132)" fill="#9d9d9d" stroke-width="2.8475" stroke-linecap="round" stroke-linejoin="round"/><path d="M165.07777,57.738898c-4.477012-.000014-8.770661,1.778465-11.936387,4.94419s-4.944206,7.459373-4.944193,11.936385s1.778468,8.77066,4.944193,11.936385s7.459375,4.944204,11.936387,4.94419s8.770661-1.778465,11.936387-4.94419s4.944206-7.459373,4.944193-11.936385-1.778468-8.77066-4.944193-11.936385-7.459375-4.944204-11.936387-4.94419Zm0,3.673148c7.294023.00027,13.20681,5.913404,13.20665,13.207427.000159,7.294022-5.912628,13.207155-13.20665,13.207425-3.502851.000077-6.862257-1.39139-9.339147-3.868279s-3.868359-5.836295-3.868283-9.339146c-.000077-3.502851,1.391392-6.862257,3.868282-9.339147s5.836297-3.868357,9.339148-3.86828Z" fill="url(#e7ahNo2Oinc29-fill)" stroke-width="5.62688" stroke-linecap="round" stroke-linejoin="round"/><path d="M136.59992,53.952418c-.85714.0048-1.62273.228272-2.25052.693108-2.86993,2.124961-1.74803,8.47076,2.51496,14.228269L149.55192,86.01019c10.3231,10.744648,18.06236-.01465,25.643-7.570652c3.7419-3.729689,4.81649-8.674301,2.40919-11.086305s-7.35763-1.35111-11.09951,2.378575l-7.4593,7.43494-11.82046-15.964521c-3.33047-4.498057-7.56369-7.266961-10.62493-7.249832Z" fill="url(#e7ahNo2Oinc30-fill)" stroke-width="5.07008" stroke-linecap="round" stroke-linejoin="round"/></g></g><rect id="e7ahNo2Oinc31" width="22.2554" height="64.2057" rx="11.127687" ry="6.336977" transform="translate(72.1044 103.709)" fill="url(#e7ahNo2Oinc31-fill)" stroke-width="20.3209" stroke-linejoin="round"/>
<script><![CDATA[
(function(s,i,u,o,c,w,d,t,n,x,e,p,a,b){w[o]=w[o]||{};w[o][s]=w[o][s]||[];w[o][s].push(i);e=d.createElementNS(n,t);e.async=true;e.setAttributeNS(x,'href',[u,s,'.','j','s','?','v','=',c].join(''));e.setAttributeNS(null,'src',[u,s,'.','j','s','?','v','=',c].join(''));p=d.getElementsByTagName(t)[0];p.parentNode.insertBefore(e,p);})('5c7f360c',{"root":"e7ahNo2Oinc1","version":"2022-05-04","animations":[{"elements":{"e7ahNo2Oinc5":{"transform":{"data":{"o":{"x":141.4407,"y":105.32603,"type":"corner"},"t":{"x":-11.1277,"y":-1.61703}},"keys":{"r":[{"t":0,"v":0},{"t":400,"v":-139.54412},{"t":1500,"v":-139.54412},{"t":2000,"v":0}]}}},"e7ahNo2Oinc7":{"transform":{"data":{"o":{"x":124.404,"y":91.188301,"type":"corner"},"t":{"x":-124.403999,"y":-91.188301}},"keys":{"s":[{"t":0,"v":{"x":1,"y":1}},{"t":300,"v":{"x":1,"y":1}},{"t":500,"v":{"x":1,"y":0}},{"t":800,"v":{"x":1,"y":1}},{"t":1500,"v":{"x":1,"y":1}},{"t":2000,"v":{"x":1,"y":1}}]}}},"e7ahNo2Oinc10":{"transform":{"data":{"o":{"x":99.993798,"y":91.188301,"type":"corner"},"t":{"x":-99.993797,"y":-91.188301}},"keys":{"s":[{"t":0,"v":{"x":1,"y":1}},{"t":300,"v":{"x":1,"y":1}},{"t":500,"v":{"x":1,"y":0}},{"t":800,"v":{"x":1,"y":1}},{"t":1500,"v":{"x":1,"y":1}},{"t":2000,"v":{"x":1,"y":1}}]}}},"e7ahNo2Oinc13":{"transform":{"data":{"t":{"x":-25.211187,"y":-2.910286}},"keys":{"o":[{"t":0,"v":{"x":111.893387,"y":83.788586,"type":"corner"}},{"t":400,"v":{"x":110.910607,"y":76.283035,"type":"corner"}},{"t":1500,"v":{"x":110.910607,"y":76.283035,"type":"corner","start":{"x":110.910607,"y":76.283035},"end":{"x":110.910607,"y":76.283035}}},{"t":2000,"v":{"x":111.893387,"y":83.788586,"type":"corner","start":{"x":111.893387,"y":83.788586}}}]}}},"e7ahNo2Oinc22":{"transform":{"data":{"o":{"x":145.201385,"y":48.343825,"type":"corner"},"t":{"x":-145.201384,"y":-48.34382}},"keys":{"r":[{"t":0,"v":0},{"t":300,"v":4.301961},{"t":500,"v":-7.655874},{"t":900,"v":19.745744},{"t":1100,"v":5.128531},{"t":1500,"v":5.128531},{"t":2000,"v":0}]}}},"e7ahNo2Oinc23":{"transform":{"data":{"o":{"x":174.322635,"y":62.121558,"type":"corner"},"t":{"x":-165.078246,"y":-78.113197}},"keys":{"r":[{"t":0,"v":0},{"t":500,"v":361.45598},{"t":1500,"v":361.45598},{"t":2000,"v":0}],"s":[{"t":0,"v":{"x":0,"y":0}},{"t":500,"v":{"x":0.62136,"y":0.62136}},{"t":900,"v":{"x":0.62136,"y":0.62136}},{"t":1500,"v":{"x":0.62136,"y":0.62136}},{"t":2000,"v":{"x":0,"y":0}}]}}},"e7ahNo2Oinc31":{"transform":{"data":{"o":{"x":89.7013,"y":105.32603,"type":"corner"},"t":{"x":-17.5969,"y":-1.61703}},"keys":{"r":[{"t":0,"v":0},{"t":400,"v":39.086005},{"t":1500,"v":39.086005},{"t":2000,"v":0}]}}}},"s":"MWDA1ZWI0TDViOWRVWGDFlYWI5YWFkR2EyYThXhNzViNzM2YzY5Njk2UOTY1NWJOOWRZYTJhYAjllOWNhZGEyYThhN0B01YjczNmE2NTViYTJXXYWQ5ZUdhYjlhYWRhKMmE4YTdhYzViUjczNMjk2NTViOWZhMmE1YTBU1YjczNjZUNmE2NTVUiOWFhNWFkOWVhYlJhRNzlhYWQ5ZTViNzM5ZEjlhYTVhYzllNjU1YmCFjYTk5ZTllOWQ1YjcTzNmE2NVA1YjlmYTlhSY0NSNWI3MzZhNjlGNIjliNg|"}],"options":"MTDAxMDg4RDJmODA4MTIZlN2Y4MTJmVDQ3MmYI3OUc3YzZlNzFQMmY4SYQ|"},'https://cdn.svgator.com/ply/','__SVGATOR_PLAYER__','2022-05-04',window,document,'script','http://www.w3.org/2000/svg','http://www.w3.org/1999/xlink')
]]></script>
</svg>
