<svg id="ejG3A5JnKTi1" xmlns="http://www.w3.org/2000/svg" xmlns:xlink="http://www.w3.org/1999/xlink" viewBox="0 0 117.92488 95.843566" shape-rendering="geometricPrecision" text-rendering="geometricPrecision"><defs><linearGradient id="ejG3A5JnKTi2-fill" x1="68.307612" y1="62.517965" x2="78.678112" y2="49.389545" spreadMethod="pad" gradientUnits="userSpaceOnUse" gradientTransform="translate(0 0)"><stop id="ejG3A5JnKTi2-fill-0" offset="0%" stop-color="#aeb257"/><stop id="ejG3A5JnKTi2-fill-1" offset="100%" stop-color="#fffdc6"/></linearGradient><linearGradient id="ejG3A5JnKTi3-fill" x1="55.230738" y1="63.532813" x2="39.381179" y2="43.418757" spreadMethod="pad" gradientUnits="userSpaceOnUse" gradientTransform="translate(0 0)"><stop id="ejG3A5JnKTi3-fill-0" offset="0%" stop-color="#aeb257"/><stop id="ejG3A5JnKTi3-fill-1" offset="100%" stop-color="#fffdc6"/></linearGradient><linearGradient id="ejG3A5JnKTi4-fill" x1="16.261251" y1="76.385238" x2="37.990267" y2="76.286533" spreadMethod="pad" gradientUnits="userSpaceOnUse" gradientTransform="translate(0 0)"><stop id="ejG3A5JnKTi4-fill-0" offset="0%" stop-color="#ff68ff"/><stop id="ejG3A5JnKTi4-fill-1" offset="100%" stop-color="#261ac5"/></linearGradient><linearGradient id="ejG3A5JnKTi5-fill" x1="90.502449" y1="45.492481" x2="25.562661" y2="103.547544" spreadMethod="pad" gradientUnits="userSpaceOnUse" gradientTransform="translate(0 0)"><stop id="ejG3A5JnKTi5-fill-0" offset="0%" stop-color="#ff68ff"/><stop id="ejG3A5JnKTi5-fill-1" offset="100%" stop-color="#261ac5"/></linearGradient><linearGradient id="ejG3A5JnKTi6-fill" x1="81.450648" y1="70.120824" x2="98.75968" y2="62.957713" spreadMethod="pad" gradientUnits="userSpaceOnUse" gradientTransform="translate(0 0)"><stop id="ejG3A5JnKTi6-fill-0" offset="0%" stop-color="#ff68ff"/><stop id="ejG3A5JnKTi6-fill-1" offset="100%" stop-color="#261ac5"/></linearGradient><linearGradient id="ejG3A5JnKTi7-fill" x1="29.629173" y1="65.615143" x2="88.238403" y2="24.249763" spreadMethod="pad" gradientUnits="userSpaceOnUse" gradientTransform="translate(0 0)"><stop id="ejG3A5JnKTi7-fill-0" offset="0%" stop-color="#c97156"/><stop id="ejG3A5JnKTi7-fill-1" offset="100%" stop-color="#ffdad0"/></linearGradient><linearGradient id="ejG3A5JnKTi8-fill" x1="-0.250666" y1="10.064356" x2="-0.600839" y2="1.715308" spreadMethod="pad" gradientUnits="userSpaceOnUse" gradientTransform="translate(0 0)"><stop id="ejG3A5JnKTi8-fill-0" offset="0%" stop-color="#75a3b3"/><stop id="ejG3A5JnKTi8-fill-1" offset="100%" stop-color="#fff"/></linearGradient><linearGradient id="ejG3A5JnKTi9-fill" x1="0.053788" y1="15.292224" x2="-0.057165" y2="-2.900716" spreadMethod="pad" gradientUnits="userSpaceOnUse" gradientTransform="translate(0 0)"><stop id="ejG3A5JnKTi9-fill-0" offset="0%" stop-color="#75a3b3"/><stop id="ejG3A5JnKTi9-fill-1" offset="100%" stop-color="#fff"/></linearGradient><linearGradient id="ejG3A5JnKTi10-fill" x1="-2.949863" y1="2.965968" x2="8.037615" y2="-6.474859" spreadMethod="pad" gradientUnits="userSpaceOnUse" gradientTransform="translate(0 0)"><stop id="ejG3A5JnKTi10-fill-0" offset="0%" stop-color="#372f2f"/><stop id="ejG3A5JnKTi10-fill-1" offset="100%" stop-color="rgba(51,51,51,0)"/></linearGradient><linearGradient id="ejG3A5JnKTi11-fill" x1="60.150286" y1="51.93022" x2="73.653441" y2="48.388437" spreadMethod="pad" gradientUnits="userSpaceOnUse" gradientTransform="translate(0 0)"><stop id="ejG3A5JnKTi11-fill-0" offset="0%" stop-color="#ffb950"/><stop id="ejG3A5JnKTi11-fill-1" offset="100%" stop-color="#470014"/></linearGradient><linearGradient id="ejG3A5JnKTi12-fill" x1="52.134715" y1="45.484012" x2="37.36862" y2="45.04361" spreadMethod="pad" gradientUnits="userSpaceOnUse" gradientTransform="translate(0 0)"><stop id="ejG3A5JnKTi12-fill-0" offset="0%" stop-color="#ffb950"/><stop id="ejG3A5JnKTi12-fill-1" offset="100%" stop-color="#470014"/></linearGradient><linearGradient id="ejG3A5JnKTi13-fill" x1="62.958827" y1="66.278421" x2="64.568666" y2="69.630183" spreadMethod="pad" gradientUnits="userSpaceOnUse" gradientTransform="translate(0 0)"><stop id="ejG3A5JnKTi13-fill-0" offset="0%" stop-color="#aeb257"/><stop id="ejG3A5JnKTi13-fill-1" offset="100%" stop-color="#fffdc6"/></linearGradient><linearGradient id="ejG3A5JnKTi14-fill" x1="49.937474" y1="64.633689" x2="47.222963" y2="73.357349" spreadMethod="pad" gradientUnits="userSpaceOnUse" gradientTransform="translate(0 0)"><stop id="ejG3A5JnKTi14-fill-0" offset="0%" stop-color="#aeb257"/><stop id="ejG3A5JnKTi14-fill-1" offset="100%" stop-color="#fffdc6"/></linearGradient><linearGradient id="ejG3A5JnKTi24-fill" x1="-2.949857" y1="2.965968" x2="8.037621" y2="-6.474859" spreadMethod="pad" gradientUnits="userSpaceOnUse" gradientTransform="translate(0 0)"><stop id="ejG3A5JnKTi24-fill-0" offset="0%" stop-color="#372f2f"/><stop id="ejG3A5JnKTi24-fill-1" offset="100%" stop-color="rgba(51,51,51,0)"/></linearGradient><linearGradient id="ejG3A5JnKTi26-fill" x1="82.976243" y1="44.615344" x2="106.109098" y2="6.427441" spreadMethod="pad" gradientUnits="userSpaceOnUse" gradientTransform="translate(0 0)"><stop id="ejG3A5JnKTi26-fill-0" offset="0%" stop-color="#ff5b58"/><stop id="ejG3A5JnKTi26-fill-1" offset="100%" stop-color="#fff"/></linearGradient><linearGradient id="ejG3A5JnKTi27-fill" x1="98.896128" y1="15.015981" x2="118.057776" y2="14.555227" spreadMethod="pad" gradientUnits="userSpaceOnUse" gradientTransform="translate(0 0)"><stop id="ejG3A5JnKTi27-fill-0" offset="0%" stop-color="#b701c2"/><stop id="ejG3A5JnKTi27-fill-1" offset="100%" stop-color="#312b63"/></linearGradient></defs><path d="M72.22799,30.108357c4.202471-.000274,8.232919,1.499216,11.204582,4.168559s4.641086,6.289851,4.640971,10.064957c.000115,3.775106-1.669308,7.395614-4.640971,10.064957s-7.002111,4.168833-11.204582,4.168559c-4.250237-.013672-8.316153-1.560721-11.284254-4.29357c8.341747-.46055,14.85092-6.662213,14.872381-14.169771-.014547-3.736355-1.664048-7.317736-4.592462-9.971111.334311-.020397.669257-.031263,1.004335-.03258Z" fill="url(#ejG3A5JnKTi2-fill)" stroke-width="0" stroke-linecap="round" stroke-linejoin="round"/><path d="M44.877201,28.657807c-4.202471-.000274-8.232919,1.499216-11.204582,4.168559s-4.641086,6.289851-4.640971,10.064957c-.000115,3.775106,1.669308,7.395615,4.640971,10.064958s7.00211,4.168833,11.204582,4.168559c4.250238-.013672,8.316154-1.560721,11.284255-4.29357-8.341747-.46055-14.85092-6.662213-14.872381-14.169771.014547-3.736355,1.664048-7.317736,4.592462-9.971111-.334311-.020397-.669258-.031263-1.004336-.03258Z" fill="url(#ejG3A5JnKTi3-fill)" stroke-width="0" stroke-linecap="round" stroke-linejoin="round"/><path d="M35.482894,62.94979c1.075893.000943,2.189251.09334,3.323073.283246-.527312.711121.337198,3.115706-.103733,3.902027-4.853222.05531-9.912439.530902-10.778286,3.756325-.75488,2.819083,2.316041,7.14309,3.95583,8.363796c1.463709,1.296153,2.384032.930353,3.344454,1.376687.510967.535454.753422,1.096785.790952,1.74651.09087.86491-.202488,1.604765-.655208,1.652451-.452911.04796-.893775-.615011-.984417-1.480366-.046-.245821-.07759-.42538-.119711-.580389-.502473,1.814296-.03568,4.305435-1.241523,4.202007s-.874377-.989751-.874812-1.995888c-.07375.906651-.316292,2.096343-1.089167,1.994485-1.236615-.162974.211635-4.202741.211635-4.202741-5.597206-2.903419-8.611179-7.831453-7.447788-12.177474c1.127665-4.196797,5.858878-6.845633,11.668701-6.840676Z" fill="url(#ejG3A5JnKTi4-fill)" stroke-width="0" stroke-linecap="round" stroke-linejoin="round"/><path d="M57.297352,36.420623c-1.433154-.384013-1.98459,2.124828-1.98459,2.124828s-.324611-1.248822-3.595209-.477378c-1.645289.388078-.928369.87261.189818,1.257899-4.070726,1.234585-7.725722,3.499331-10.697802,6.511889-.725971.27463-1.578045.744862-1.634701,1.511462-.799544.270799-1.903865.803218-1.86135,1.731027-.90418.333384-2.047888.983547-1.586538,2.121995.156304.385705.344412.627516.542539.779104-1.074941,1.988385-1.919784,4.132179-2.493132,6.394316-.851209.470412-1.995799,1.330726-1.313143,2.425137.233068.373648.473679.583814.706859.694111-.174443,1.276005-.269145,2.57988-.269145,3.906851c0,2.131281-.206264,4.200959-.453296,6.190333-1.142958.844127-2.544633,2.132539-1.647451,2.970509.469766.438763.86819.546445,1.19132.49721.0012.0043.0044.0084.0057.01275-.958184,7.481337-1.06844,13.380309,9.850703,15.992873v.899512c-3.940979-.402534-7.288156-.299908-6.690408,3.878516h6.690376h6.016097v-3.793524c3.025118.317495,6.568177.490127,10.761547.490127c2.497077,0,4.749342-.06518,6.819281-.179902-1.017176.556319-1.544475,1.608769-1.276313,3.483299h6.690376h6.016097v-5.168996c4.156545-1.225033,6.451375-3.015282,7.643715-5.24266.358705.337926.962635.598733,1.794772-.178485c1.025326-.957657-.11139-2.214788-.820184-2.854353.219447-1.428448.190406-2.981408.05242-4.62646.230108-.06269.485454-.20236.767771-.466045c1.302851-1.216865-.820019-2.867345-1.181404-3.164577-.36462-2.743851-.783353-5.679626-.783353-8.740127.688271-.642848.396251-1.421518-.08216-2.058251-.06773-.951892-.180127-1.889886-.338556-2.811856.133738-.07808.2728-.177737.420717-.315891c1.37385-1.283179-1.115535-3.092924-1.269231-3.238238-.357166-1.154588-.781833-2.276558-1.276314-3.357229.184134-.153572.35798-.389723.504292-.750772.404937-.999239-.427143-1.622936-1.247982-1.986006.151924-.80218-.530053-1.330533-1.239483-1.661616.248093-.0559.446845-.288995.514208-.832933.196658-1.587895-2.537958-2.064978-3.544214-2.199906-4.431934-4.663512-10.468708-7.625727-17.160112-7.897277.679222-.353884,1.859635-.399648,1.508628-1.218236s-2.982206,1.17394-4.396978,1.272064c.367783-.726702,1.588974-1.541082.155821-1.925094ZM71.25889,91.877224v.08783c-.130297-.01331-.25784-.02334-.386719-.03542.132751-.01624.256182-.03555.386719-.05242Z" fill="url(#ejG3A5JnKTi5-fill)" stroke-width="0" stroke-linecap="round" stroke-linejoin="round"/><path id="ejG3A5JnKTi6" d="M86.002393,62.543392c-1.039477-.277551-2.138812-.476459-3.283151-.586479.325292.823367-2.704199,2.520218-2.481807,3.393867c4.673538,1.309531,11.00936,3.480388,11.010905,6.820006-.000479,2.918402-4.085895,6.300259-5.985751,7.054962-1.749304.873152-2.543591.281619-3.586806.464169-.632142.384961-1.01162.864414-1.216032,1.482285-.311629.811921-.219755,1.602493.205196,1.765726.425066.163551,1.022497-.36273,1.334021-1.175138.10806-.225538.185046-.390803.265847-.529629.01578,1.882524-1.07986,4.167966.11166,4.380157s1.10075-.72972,1.361578-1.701462c-.163419.894847-.237059,2.106775.535843,2.208422c1.236659.162639.883326-4.114312.883326-4.114312c6.157945-1.355824,10.344687-5.335865,10.345775-9.834907-.0029-4.345656-3.887465-8.128762-9.500604-9.627667Z" transform="translate(0 0.000002)" fill="url(#ejG3A5JnKTi6-fill)" stroke-width="0" stroke-linecap="round" stroke-linejoin="round"/><path d="M62.453125,21.177734c-.553789.679843-1.387638,1.075957-2.269531,1.078125-.675629-.00167-1.329849-.234925-1.851563-.660156-.543999.787728-1.44469,1.259623-2.408203,1.261719-.448725-.001354-.891122-.104936-1.292969-.302734-.401847.197798-.844243.30138-1.292968.302734-.412844-.000653-.820874-.08785-1.197266-.25586-.551273.716067-1.407293,1.137581-2.316406,1.140626-.178396-.002146-.356221-.020453-.53125-.05469-.369917,1.226533-1.508459,2.067339-2.800781,2.068359-.02346-.001687-.046898-.003653-.07031-.0059-.284467,1.338277-1.474791,2.297374-2.855469,2.300781-.632579-.002556-1.247281-.208142-1.751953-.585937-.336319,1.272756-1.496023,2.161381-2.824219,2.164062-.446589-.001635-.886873-.104523-1.287109-.300781.326748.478705.501551,1.043243.501953,1.621094.000159.768703-.30803,1.505972-.856745,2.049559s-1.29299.848946-2.069036.848878c-.209768-.002541-.418652-.027424-.623047-.07422.403546.509954.622909,1.139162.623047,1.787109.000159.768703-.30803,1.505972-.856745,2.049559s-1.29299.848946-2.069036.848878c-.088795-.002512-.177429-.009029-.265625-.01953-.003912.011064-.007819.022131-.01172.0332.704668.548863,1.116399,1.387442,1.117187,2.275391-.002028,1.072199-.601573,2.055664-1.558593,2.556641.463444.527451.718721,1.203101.71875,1.902343-.001065,1.139979-.676783,2.17343-1.726563,2.640625c1.050431.467485,1.726274,1.501891,1.726563,2.642578-.001381.667346-.235253,1.313768-.66211,1.830078.927061.511483,1.501817,1.480122,1.501953,2.53125-.002363.507199-.139079,1.0049-.396484,1.44336.259411.441898.396199.943903.396484,1.455078-.002439.662612-.234056,1.304384-.65625,1.818359c1.541666.095887,2.742418,1.362492,2.742188,2.892579-.000886.704107-.260548,1.383809-.730469,1.912109c1.523954.116105,2.700836,1.374679,2.701172,2.888672-.001531.381736-.07919.75941-.228516,1.111328.372628-.164137.775784-.249292,1.183594-.25c1.615287-.000141,2.925023,1.296481,2.925781,2.896484-.001906.44702-.108193.887542-.310547,1.28711.103057-.012614.20672-.019784.310547-.02148c1.615288-.000142,2.925025,1.296481,2.925782,2.896485-.01174.270542-.061706.538119-.148438.794921.041604.026829.083271.053522.125.08008.537527-.546431,1.270919-.860842,2.041016-.875.776052-.000067,1.520333.305298,2.069049.848894s.8569,1.280874.85673,2.049584c-.002467.101248-.010291.202298-.02344.302734.480417-1.019206,1.512868-1.670959,2.648438-1.671874.839253.000063,1.638062.357144,2.193359.980468.554846-.622819,1.352835-.979851,2.191407-.980468.815973.000176,1.594794.337901,2.148437.93164.551796-.591766,1.327371-.92931,2.140625-.93164.822844-.000102,1.607688.343045,2.16211.945312.211788-1.420972,1.442484-2.473836,2.892578-2.474609.03648.000624.072944.001925.109375.0039.349717-1.255262,1.501785-2.125305,2.816406-2.126953.638382.000321,1.259136.207468,1.767578.589844-.043114-.193778-.066021-.39143-.06836-.589844-.000159-.768703.30803-1.505972.856745-2.049559s1.29299-.848947,2.069036-.848879c.107015.000053.213946.005921.320312.01758-.000685-.005858-.001351-.011718-.002-.01758.000168-1.297889.871545-2.437381,2.132813-2.789062-.003296-.036406-.005897-.072871-.0078-.109375-.000159-.768703.30803-1.505973.856745-2.04956s1.292991-.848946,2.069037-.848878c.008466.00063.01693.001297.02539.002.055356-.117409.110045-.23525.164063-.353515-.105958-.272145-.169829-.558576-.189453-.84961.006922-1.07457.61359-2.057117,1.576171-2.552734.060125-.183569.118722-.367822.175782-.552734-1.050645-.455617-1.735604-1.477329-1.751953-2.613282.003281-1.206657.761087-2.285014,1.902343-2.707031-.841568-.532053-1.351115-1.452478-1.351562-2.441406.003322-1.356372.956027-2.528995,2.292969-2.822266-1.336223-.29311-2.288725-1.464672-2.292969-2.820312.001983-1.022166.547479-1.967691,1.435547-2.488282-1.185243-.397967-1.983662-1.498639-1.986328-2.738281.003319-.770216.316058-1.507436.86914-2.048828-.553082-.541392-.865821-1.278612-.86914-2.048828.00148-.257506.037606-.513668.107421-.761719-.035756.003253-.071569.005853-.107421.0078-1.615288.000142-2.925025-1.296481-2.925782-2.896485.022265-.94.503573-1.810868,1.291016-2.335937-.116039-.185821-.233886-.370078-.353516-.552735-.301585.103695-.618271.157796-.9375.160157-1.615294-.000927-2.92416-1.298427-2.923828-2.898438.002152-.0914.008669-.182648.01953-.273437-.387599.179767-.810298.273107-1.238281.273437-1.615287.000141-2.925023-1.296481-2.925781-2.896484-1.038609-.003397-1.997536-.551993-2.519531-1.441406-.134565.019104-.270311.028894-.40625.0293-1.48333-.002867-2.72974-1.104912-2.900391-2.564454Z" transform="matrix(.725275 0 0 0.725275 16.261251 26.330523)" fill="url(#ejG3A5JnKTi7-fill)" stroke-width="0" stroke-linecap="round" stroke-linejoin="round"/><ellipse id="ejG3A5JnKTi8" rx="7.69238" ry="7.88239" transform="translate(63.5745 53.4032)" fill="url(#ejG3A5JnKTi8-fill)" stroke-width="0" stroke-linecap="round" stroke-linejoin="round"/><ellipse id="ejG3A5JnKTi9" rx="7.58208" ry="7.88239" transform="translate(48.2137 53.413)" fill="url(#ejG3A5JnKTi9-fill)" stroke-width="0" stroke-linecap="round" stroke-linejoin="round"/><ellipse id="ejG3A5JnKTi10" rx="3.44059" ry="3.57687" transform="translate(61.5391 56.3762)" fill="url(#ejG3A5JnKTi10-fill)" stroke-width="0" stroke-linecap="round" stroke-linejoin="round"/><path d="M59.350639,45.680208c.517686.61352,6.063764-.988293,11.015053,5.127348s.543968-2.030117.543968-2.030117s4.408329,3.357082,2.04951.549164c-1.458341-1.735995-7.212989-4.212745-7.212989-4.212745s2.013697-.543738.34425-1.262619-7.25748,1.215448-6.739792,1.828969Z" fill="url(#ejG3A5JnKTi11-fill)" stroke-width="0.725275"/><path d="M52.134717,45.484012c-.517686.61352-6.063764-.988293-11.015053,5.127348s-.543968-2.030117-.543968-2.030117-4.408329,3.357082-2.04951.549164c1.458341-1.735995,7.212989-4.212745,7.212989-4.212745s-2.013697-.543739-.34425-1.262619s7.25748,1.215448,6.739792,1.828969Z" fill="url(#ejG3A5JnKTi12-fill)" stroke-width="0.725275"/><path d="M60.402494,68.351069l-.233791,3.102306c.20656.770893.994129,1.225059,1.765025,1.018501l4.282236-1.147407c.770895-.206558,1.225062-.992714,1.018501-1.763608l-.09446-4.272753c-2.13721,1.149269-4.681927,2.592638-6.737511,3.062961Z" fill="url(#ejG3A5JnKTi13-fill)" stroke-width="0" stroke-linecap="round" stroke-linejoin="round"/><path d="M46.293575,65.948653l.034,3.838856c-.206561.770895.247606,1.557047,1.0185,1.763608l4.282238,1.147407c.770894.20656,1.557047-.247607,1.763607-1.018501l-.216733-3.148995c-3.036614-.445167-5.28984-1.503724-6.88161-2.582375Z" fill="url(#ejG3A5JnKTi14-fill)" stroke-width="0" stroke-linecap="round" stroke-linejoin="round"/><path d="M43.165449,62.94979c0,0,3.585397,5.802198,13.101307,5.802198s13.101306-5.802198,13.101306-5.802198" fill="none" stroke="#a06a5b" stroke-width="0.725275" stroke-linecap="round"/><path d="M74.949909,80.03926c0,0,.826127,2.7819,2.589382,2.026957s.57191-3.37303.545323-3.465004" fill="none" stroke="#9441e2" stroke-width="0.725275" stroke-linecap="round"/><path d="M75.495232,76.574257c0,0,.826128,2.7819,2.589382,2.026956s.57191-3.37303.545323-3.465004" fill="none" stroke="#9441e2" stroke-width="0.725275" stroke-linecap="round"/><path d="M71.629539,78.310686c0,0,.826128,2.7819,2.589383,2.026957s.57191-3.373031.545323-3.465004" fill="none" stroke="#9441e2" stroke-width="0.725275" stroke-linecap="round"/><path d="M39.938467,81.534613c0,0-1.235726,2.625725.582547,3.23637s2.672432-2.136007,2.713828-2.222334" fill="none" stroke="#5521cb" stroke-width="0.725275" stroke-linecap="round"/><path d="M34.847299,70.287744c0,0-1.235726,2.625725.582547,3.23637s2.672432-2.136007,2.713828-2.222334" fill="none" stroke="#5521cb" stroke-width="0.725275" stroke-linecap="round"/><path d="M78.300486,56.735369c0,0,.07797,2.900926,1.976536,2.628071s1.425427-3.110075,1.42355-3.205796" fill="none" stroke="#9441e2" stroke-width="0.725275" stroke-linecap="round"/><path d="M79.606045,64.081197c0,0,1.517986,2.473292,3.025765,1.287708s-.320581-3.406118-.370068-3.488076" fill="#cf57f2" stroke="#9441e2" stroke-width="0.725275" stroke-linecap="round"/><path d="M80.148552,62.253372c0,0,1.517986,2.473292,3.025766,1.287708s-.320582-3.406118-.370068-3.488076" fill="#cf57f2" stroke="#9441e2" stroke-width="0.725275" stroke-linecap="round"/><ellipse id="ejG3A5JnKTi24" rx="3.44059" ry="3.57687" transform="translate(47.0336 56.3762)" fill="url(#ejG3A5JnKTi24-fill)" stroke-width="0" stroke-linecap="round" stroke-linejoin="round"/><g id="ejG3A5JnKTi25" transform="matrix(0 0 0 0 97.061867 44.341874)"><path d="M94.235286,12.313177l.0011.01154c-2.471428.146879-5.267548,2.286797-7.074003,5.413853-2.453763,4.25041-2.313281,8.925284.31377,10.441526c2.626859,1.51617,6.745304-.699973,9.199038-4.950019c2.943142-5.812292,6.804359-1.488887,7.680549.000001c2.45397,4.250809,6.57322,6.467131,9.2001,4.950019c2.62644-1.516832,2.76645-6.191525.31272-10.441526-1.8447-3.188297-4.71277-5.340911-7.21045-5.411754v-.01364Z" fill="url(#ejG3A5JnKTi26-fill)" stroke-width="0" stroke-linecap="round" stroke-linejoin="round"/><path d="M98.896125,12.443253l5.332685,2.572726-5.332685,2.572726Z" fill="url(#ejG3A5JnKTi27-fill)" stroke-width="0" stroke-linecap="round" stroke-linejoin="round"/><circle r="2.09519" transform="translate(94.4355 19.587)" fill="#bc6766" stroke-width="0" stroke-linecap="round" stroke-linejoin="round"/><circle r="2.09519" transform="translate(107.33 19.587)" fill="#bc6766" stroke-width="0" stroke-linecap="round" stroke-linejoin="round"/><circle r="1.50571" transform="translate(107.33 19.587)" fill="#955857" stroke-width="0" stroke-linecap="round" stroke-linejoin="round"/><circle r="1.50571" transform="translate(94.4355 19.587)" fill="#955857" stroke-width="0" stroke-linecap="round" stroke-linejoin="round"/></g>
<script><![CDATA[
(function(s,i,u,o,c,w,d,t,n,x,e,p,a,b){w[o]=w[o]||{};w[o][s]=w[o][s]||[];w[o][s].push(i);e=d.createElementNS(n,t);e.async=true;e.setAttributeNS(x,'href',[u,s,'.','j','s','?','v','=',c].join(''));e.setAttributeNS(null,'src',[u,s,'.','j','s','?','v','=',c].join(''));p=d.getElementsByTagName(t)[0];p.parentNode.insertBefore(e,p);})('5c7f360c',{"root":"ejG3A5JnKTi1","version":"2022-05-04","animations":[{"elements":{"ejG3A5JnKTi6":{"transform":{"data":{"o":{"x":81.956421,"y":63.843967,"type":"corner"},"t":{"x":-81.956421,"y":-63.843965}},"keys":{"r":[{"t":0,"v":0},{"t":800,"v":0},{"t":1100,"v":-127.513032}],"s":[{"t":0,"v":{"x":1,"y":1}},{"t":800,"v":{"x":1,"y":1}},{"t":1100,"v":{"x":-1,"y":1}}]}}},"ejG3A5JnKTi8":{"transform":{"data":{"o":{"x":63.574524,"y":53.403208,"type":"corner"},"t":{"x":-0.000024,"y":-0.000008}},"keys":{"s":[{"t":0,"v":{"x":1,"y":1}},{"t":200,"v":{"x":1,"y":1}},{"t":500,"v":{"x":1,"y":0}},{"t":700,"v":{"x":1,"y":1}}]}}},"ejG3A5JnKTi9":{"transform":{"data":{"o":{"x":48.213739,"y":53.412958,"type":"corner"},"t":{"x":-0.000039,"y":0.000042}},"keys":{"s":[{"t":0,"v":{"x":1,"y":1}},{"t":200,"v":{"x":1,"y":1}},{"t":500,"v":{"x":1,"y":0}},{"t":700,"v":{"x":1,"y":1}}]}}},"ejG3A5JnKTi10":{"transform":{"data":{"t":{"x":0.000049,"y":-0.000009}},"keys":{"o":[{"t":0,"v":{"x":61.539051,"y":56.376209,"type":"corner"}},{"t":200,"v":{"x":64.036556,"y":54.191732,"type":"corner"}}],"s":[{"t":0,"v":{"x":1,"y":1}},{"t":200,"v":{"x":1,"y":1}},{"t":500,"v":{"x":1,"y":0}},{"t":700,"v":{"x":1,"y":1}}]}}},"ejG3A5JnKTi24":{"transform":{"data":{"t":{"x":0.000042,"y":-0.000009}},"keys":{"o":[{"t":0,"v":{"x":47.033558,"y":56.376209,"type":"corner"}},{"t":200,"v":{"x":49.531063,"y":54.191732,"type":"corner"}}],"s":[{"t":0,"v":{"x":1,"y":1}},{"t":200,"v":{"x":1,"y":1}},{"t":500,"v":{"x":1,"y":0}},{"t":700,"v":{"x":1,"y":1}}]}}},"ejG3A5JnKTi25":{"transform":{"data":{"o":{"x":97.061867,"y":44.341874,"type":"corner"},"t":{"x":-100.515602,"y":-20.485492}},"keys":{"r":[{"t":0,"v":0},{"t":1100,"v":360.46857}],"s":[{"t":0,"v":{"x":0,"y":0}},{"t":800,"v":{"x":0,"y":0}},{"t":1100,"v":{"x":1,"y":1}}]}}}},"s":"MCDA1Yzk0M2I3ZDhlOGHI3YThkODI4ODg3M2IO1MzRiUTQ5NDk0OTQ1PM2I3ZDgyOGJON2U3YDzhkODI4OE04NzNiNTOM0YTQ1M2I4MjhkN2UF4YjdhOGQ4Mjg4WDg3YOGMzYjUzNDk0NTNiNH2Y4Mjg1Szg1M2JHNTQM0YTQ1M2JYN2E4NThAkN2U4Yjg3N2E4ZDdlHM2I1MzhkOGI4ZVY3ZYTQ1M2I4Yzg5N2U3ZTFdkM2JVNTM0YTQ1M2IE3Zjg5OGMzYjUzTTRhJNDk0OUU5Ng|"}],"options":"MLDAxMDg4MmY4MDgxNmVU3ZjgxMmY0NzJmNzkD3YzZlNzEyZjhhUQ|"},'https://cdn.svgator.com/ply/','__SVGATOR_PLAYER__','2022-05-04',window,document,'script','http://www.w3.org/2000/svg','http://www.w3.org/1999/xlink')
]]></script>
</svg>
