<svg id="epkAZx5f8S61" xmlns="http://www.w3.org/2000/svg" xmlns:xlink="http://www.w3.org/1999/xlink" viewBox="0 0 210 195.65155" shape-rendering="geometricPrecision" text-rendering="geometricPrecision"><defs><linearGradient id="epkAZx5f8S63-fill" x1="14.016497" y1="26.855769" x2="68.659697" y2="104.452994" spreadMethod="pad" gradientUnits="userSpaceOnUse" gradientTransform="translate(0 0)"><stop id="epkAZx5f8S63-fill-0" offset="0%" stop-color="#0a00a1"/><stop id="epkAZx5f8S63-fill-1" offset="100%" stop-color="#e279f8"/></linearGradient><linearGradient id="epkAZx5f8S64-fill" x1="14.016497" y1="26.855769" x2="68.659697" y2="104.452994" spreadMethod="pad" gradientUnits="userSpaceOnUse" gradientTransform="translate(0 0)"><stop id="epkAZx5f8S64-fill-0" offset="0%" stop-color="#0a00a1"/><stop id="epkAZx5f8S64-fill-1" offset="100%" stop-color="#e279f8"/></linearGradient><linearGradient id="epkAZx5f8S68-fill" x1="14.016563" y1="26.855769" x2="68.659763" y2="104.452994" spreadMethod="pad" gradientUnits="userSpaceOnUse" gradientTransform="translate(0 0)"><stop id="epkAZx5f8S68-fill-0" offset="0%" stop-color="#0a00a1"/><stop id="epkAZx5f8S68-fill-1" offset="100%" stop-color="#e279f8"/></linearGradient><linearGradient id="epkAZx5f8S69-fill" x1="14.016563" y1="26.855769" x2="68.659763" y2="104.452994" spreadMethod="pad" gradientUnits="userSpaceOnUse" gradientTransform="translate(0 0)"><stop id="epkAZx5f8S69-fill-0" offset="0%" stop-color="#0a00a1"/><stop id="epkAZx5f8S69-fill-1" offset="100%" stop-color="#e279f8"/></linearGradient><linearGradient id="epkAZx5f8S613-fill" x1="7.791639" y1="159.850486" x2="20.325911" y2="114.099233" spreadMethod="pad" gradientUnits="userSpaceOnUse" gradientTransform="translate(0 0)"><stop id="epkAZx5f8S613-fill-0" offset="0%" stop-color="#840023"/><stop id="epkAZx5f8S613-fill-1" offset="100%" stop-color="#ff3a92"/></linearGradient><linearGradient id="epkAZx5f8S614-fill" x1="7.791639" y1="159.850486" x2="20.325911" y2="114.099233" spreadMethod="pad" gradientUnits="userSpaceOnUse" gradientTransform="translate(0 0)"><stop id="epkAZx5f8S614-fill-0" offset="0%" stop-color="#840023"/><stop id="epkAZx5f8S614-fill-1" offset="100%" stop-color="#ff3a92"/></linearGradient><linearGradient id="epkAZx5f8S618-fill" x1="3.668174" y1="144.508306" x2="23.80375" y2="101.556665" spreadMethod="pad" gradientUnits="userSpaceOnUse" gradientTransform="translate(0 0)"><stop id="epkAZx5f8S618-fill-0" offset="0%" stop-color="#840023"/><stop id="epkAZx5f8S618-fill-1" offset="100%" stop-color="#ff3a92"/></linearGradient><linearGradient id="epkAZx5f8S619-fill" x1="3.668174" y1="144.508306" x2="23.80375" y2="101.556665" spreadMethod="pad" gradientUnits="userSpaceOnUse" gradientTransform="translate(0 0)"><stop id="epkAZx5f8S619-fill-0" offset="0%" stop-color="#840023"/><stop id="epkAZx5f8S619-fill-1" offset="100%" stop-color="#ff3a92"/></linearGradient><linearGradient id="epkAZx5f8S623-fill" x1="5.752201" y1="126.081653" x2="26.623593" y2="83.482711" spreadMethod="pad" gradientUnits="userSpaceOnUse" gradientTransform="translate(0 0)"><stop id="epkAZx5f8S623-fill-0" offset="0%" stop-color="#840023"/><stop id="epkAZx5f8S623-fill-1" offset="100%" stop-color="#ff3a92"/></linearGradient><linearGradient id="epkAZx5f8S624-fill" x1="5.752201" y1="126.081653" x2="26.623593" y2="83.482711" spreadMethod="pad" gradientUnits="userSpaceOnUse" gradientTransform="translate(0 0)"><stop id="epkAZx5f8S624-fill-0" offset="0%" stop-color="#840023"/><stop id="epkAZx5f8S624-fill-1" offset="100%" stop-color="#ff3a92"/></linearGradient><linearGradient id="epkAZx5f8S628-fill" x1="8.686171" y1="102.201688" x2="36.894048" y2="64.062462" spreadMethod="pad" gradientUnits="userSpaceOnUse" gradientTransform="translate(0 0)"><stop id="epkAZx5f8S628-fill-0" offset="0%" stop-color="#840023"/><stop id="epkAZx5f8S628-fill-1" offset="100%" stop-color="#ff3a92"/></linearGradient><linearGradient id="epkAZx5f8S629-fill" x1="8.686171" y1="102.201688" x2="36.894048" y2="64.062462" spreadMethod="pad" gradientUnits="userSpaceOnUse" gradientTransform="translate(0 0)"><stop id="epkAZx5f8S629-fill-0" offset="0%" stop-color="#840023"/><stop id="epkAZx5f8S629-fill-1" offset="100%" stop-color="#ff3a92"/></linearGradient><linearGradient id="epkAZx5f8S633-fill" x1="-38.417155" y1="41.97127" x2="56.89858" y2="-42.22524" spreadMethod="pad" gradientUnits="userSpaceOnUse" gradientTransform="translate(0 0)"><stop id="epkAZx5f8S633-fill-0" offset="0%" stop-color="#0a00a1"/><stop id="epkAZx5f8S633-fill-1" offset="100%" stop-color="#e279f8"/></linearGradient><linearGradient id="epkAZx5f8S634-fill" x1="-38.417155" y1="41.97127" x2="56.89858" y2="-42.22524" spreadMethod="pad" gradientUnits="userSpaceOnUse" gradientTransform="translate(0 0)"><stop id="epkAZx5f8S634-fill-0" offset="0%" stop-color="#0a00a1"/><stop id="epkAZx5f8S634-fill-1" offset="100%" stop-color="#e279f8"/></linearGradient><linearGradient id="epkAZx5f8S638-fill" x1="26.952028" y1="91.260162" x2="68.181175" y2="67.798653" spreadMethod="pad" gradientUnits="userSpaceOnUse" gradientTransform="translate(0 0)"><stop id="epkAZx5f8S638-fill-0" offset="0%" stop-color="#840023"/><stop id="epkAZx5f8S638-fill-1" offset="100%" stop-color="#ff3a92"/></linearGradient><linearGradient id="epkAZx5f8S639-fill" x1="26.952028" y1="91.260162" x2="68.181175" y2="67.798653" spreadMethod="pad" gradientUnits="userSpaceOnUse" gradientTransform="translate(0 0)"><stop id="epkAZx5f8S639-fill-0" offset="0%" stop-color="#840023"/><stop id="epkAZx5f8S639-fill-1" offset="100%" stop-color="#ff3a92"/></linearGradient><linearGradient id="epkAZx5f8S642-fill" x1="-23.011873" y1="21.8328" x2="20.962355" y2="-17.18432" spreadMethod="pad" gradientUnits="userSpaceOnUse" gradientTransform="translate(0 0)"><stop id="epkAZx5f8S642-fill-0" offset="0%" stop-color="#525252"/><stop id="epkAZx5f8S642-fill-1" offset="100%" stop-color="#f0f0f0"/></linearGradient><linearGradient id="epkAZx5f8S644-fill" x1="-23.011873" y1="21.8328" x2="20.962355" y2="-17.18432" spreadMethod="pad" gradientUnits="userSpaceOnUse" gradientTransform="translate(0 0)"><stop id="epkAZx5f8S644-fill-0" offset="0%" stop-color="#525252"/><stop id="epkAZx5f8S644-fill-1" offset="100%" stop-color="#f0f0f0"/></linearGradient><linearGradient id="epkAZx5f8S645-fill" x1="-14.338576" y1="14.33893" x2="14.338655" y2="-14.33832" spreadMethod="pad" gradientUnits="userSpaceOnUse" gradientTransform="translate(0 0)"><stop id="epkAZx5f8S645-fill-0" offset="0%" stop-color="#111"/><stop id="epkAZx5f8S645-fill-1" offset="100%" stop-color="rgba(0,0,255,0.457296)"/></linearGradient><linearGradient id="epkAZx5f8S648-fill" x1="207.36263" y1="-3.030605" x2="248.47856" y2="-69.646797" spreadMethod="pad" gradientUnits="userSpaceOnUse" gradientTransform="translate(0 0)"><stop id="epkAZx5f8S648-fill-0" offset="0%" stop-color="rgba(123,37,36,0.99293)"/><stop id="epkAZx5f8S648-fill-1" offset="100%" stop-color="#000"/></linearGradient><linearGradient id="epkAZx5f8S650-fill" x1="-14.338576" y1="14.33893" x2="14.338655" y2="-14.33832" spreadMethod="pad" gradientUnits="userSpaceOnUse" gradientTransform="translate(0 0)"><stop id="epkAZx5f8S650-fill-0" offset="0%" stop-color="#111"/><stop id="epkAZx5f8S650-fill-1" offset="100%" stop-color="rgba(0,0,255,0.457296)"/></linearGradient><linearGradient id="epkAZx5f8S652-fill" x1="-0.000262" y1="8.318132" x2="86.95451" y2="23.496122" spreadMethod="pad" gradientUnits="userSpaceOnUse" gradientTransform="translate(0 0)"><stop id="epkAZx5f8S652-fill-0" offset="0%" stop-color="rgba(123,37,36,0.99293)"/><stop id="epkAZx5f8S652-fill-1" offset="100%" stop-color="#000"/></linearGradient></defs><g transform="translate(-1.701416-46.913744)" clip-path="url(#epkAZx5f8S65)"><rect width="28.819" height="106.744" rx="0" ry="0" transform="matrix(.758319 0 0 0.758319 51.468156 204.952115)" fill="url(#epkAZx5f8S63-fill)" stroke-width="2.20309" stroke-linecap="round" stroke-linejoin="round"/><rect width="28.819" height="106.744" rx="0" ry="0" transform="matrix(-.998103 0 0 0.998103 157.53786 192.592117)" fill="url(#epkAZx5f8S64-fill)" stroke-width="2.20309" stroke-linecap="round" stroke-linejoin="round"/><clipPath id="epkAZx5f8S65"><rect width="210" height="195.652" rx="0" ry="0" transform="translate(0 48.2244)" fill="#f20f2d" stroke-width="1.765" stroke-linecap="round" stroke-linejoin="round"/></clipPath></g><g transform="translate(-1.701416-46.913746)" clip-path="url(#epkAZx5f8S610)"><rect width="28.819" height="106.744" rx="0" ry="0" transform="matrix(.758319 0 0 0.758319 31.404249 204.952115)" fill="url(#epkAZx5f8S68-fill)" stroke-width="2.20309" stroke-linecap="round" stroke-linejoin="round"/><rect width="28.819" height="106.744" rx="0" ry="0" transform="matrix(-.998103 0 0 1.096255 183.946068 187.553992)" fill="url(#epkAZx5f8S69-fill)" stroke-width="2.20309" stroke-linecap="round" stroke-linejoin="round"/><clipPath id="epkAZx5f8S610"><rect width="210" height="195.652" rx="0" ry="0" transform="translate(0 48.2244)" fill="#f20f2d" stroke-width="1.765" stroke-linecap="round" stroke-linejoin="round"/></clipPath></g><g transform="translate(-1.701416-46.913746)" clip-path="url(#epkAZx5f8S615)"><path d="M47.876032,141.61405c0,0-.838598,9.86756-4.475208,14.53333s-13.000758,7.88832-13.000758,7.88832c-38.906222-48.2116-27.351788-43.66356,17.475966-22.42165Z" transform="matrix(.758319 0 0 0.758319 10.316838 58.940067)" fill="url(#epkAZx5f8S613-fill)" stroke-width="2.25336" stroke-linecap="round" stroke-linejoin="round"/><path d="M47.876032,141.61405c0,0-.838598,9.86756-4.475208,14.53333s-13.000758,7.88832-13.000758,7.88832c-38.906222-48.2116-27.351788-43.66356,17.475966-22.42165Z" transform="matrix(-.998103 0 0 0.998103 211.701416-20.756289)" fill="url(#epkAZx5f8S614-fill)" stroke-width="2.25336" stroke-linecap="round" stroke-linejoin="round"/><clipPath id="epkAZx5f8S615"><rect width="210" height="195.652" rx="0" ry="0" transform="translate(0 48.2244)" fill="#f20f2d" stroke-width="1.765" stroke-linecap="round" stroke-linejoin="round"/></clipPath></g><g transform="translate(-1.701416-46.913746)" clip-path="url(#epkAZx5f8S620)"><path d="M46.270865,133.35765c0,0-2.505224,9.58102-6.882639,13.56003s-14.153317,5.56138-14.153317,5.56138C-4.901414,98.350932,5.71076,104.79852,46.270865,133.35765Z" transform="matrix(.758319 0 0 0.758319 10.316838 58.940067)" fill="url(#epkAZx5f8S618-fill)" stroke-width="2.25336" stroke-linecap="round" stroke-linejoin="round"/><path d="M46.270865,133.35765c0,0-2.505224,9.58102-6.882639,13.56003s-14.153317,5.56138-14.153317,5.56138C-4.901414,98.350932,5.71076,104.79852,46.270865,133.35765Z" transform="matrix(-.998103 0 0 0.998103 211.701416-20.756289)" fill="url(#epkAZx5f8S619-fill)" stroke-width="2.25336" stroke-linecap="round" stroke-linejoin="round"/><clipPath id="epkAZx5f8S620"><rect width="210" height="195.652" rx="0" ry="0" transform="translate(0 48.2244)" fill="#f20f2d" stroke-width="1.765" stroke-linecap="round" stroke-linejoin="round"/></clipPath></g><g transform="translate(-1.701416-46.913746)" clip-path="url(#epkAZx5f8S625)"><path d="M48.540387,115.66543c0,0-2.669655,9.53651-7.114865,13.43964s-14.246879,5.31711-14.246879,5.31711C-2.022185,79.783702,8.477518,86.412868,48.540387,115.66543Z" transform="matrix(.758319 0 0 0.758319 10.316838 58.940067)" fill="url(#epkAZx5f8S623-fill)" stroke-width="2.25336" stroke-linecap="round" stroke-linejoin="round"/><path d="M48.540387,115.66543c0,0-2.669655,9.53651-7.114865,13.43964s-14.246879,5.31711-14.246879,5.31711C-2.022185,79.783702,8.477518,86.412868,48.540387,115.66543Z" transform="matrix(-.998103 0 0 0.998103 211.701416-20.756289)" fill="url(#epkAZx5f8S624-fill)" stroke-width="2.25336" stroke-linecap="round" stroke-linejoin="round"/><clipPath id="epkAZx5f8S625"><rect width="210" height="195.652" rx="0" ry="0" transform="translate(0 48.2244)" fill="#f20f2d" stroke-width="1.765" stroke-linecap="round" stroke-linejoin="round"/></clipPath></g><g transform="translate(-1.701416-46.913746)" clip-path="url(#epkAZx5f8S630)"><path d="M52.651048,99.668511c0,0-4.344856,8.899119-9.420788,11.937089s-14.971929,2.66207-14.971929,2.66207C9.384195,55.260728,18.51704,63.673857,52.651048,99.668511Z" transform="matrix(.758319 0 0 0.758319 10.316838 58.940067)" fill="url(#epkAZx5f8S628-fill)" stroke-width="2.25336" stroke-linecap="round" stroke-linejoin="round"/><path d="M52.651048,99.668511c0,0-4.344856,8.899119-9.420788,11.937089s-14.971929,2.66207-14.971929,2.66207C9.384195,55.260728,18.51704,63.673857,52.651048,99.668511Z" transform="matrix(-.998103 0 0 0.998103 211.701416-20.756289)" fill="url(#epkAZx5f8S629-fill)" stroke-width="2.25336" stroke-linecap="round" stroke-linejoin="round"/><clipPath id="epkAZx5f8S630"><rect width="210" height="195.652" rx="0" ry="0" transform="translate(0 48.2244)" fill="#f20f2d" stroke-width="1.765" stroke-linecap="round" stroke-linejoin="round"/></clipPath></g><g transform="translate(-1.701416-46.913746)" clip-path="url(#epkAZx5f8S635)"><circle r="56.8986" transform="matrix(.758319 0 0 0.758319 53.464127 182.169938)" fill="url(#epkAZx5f8S633-fill)" stroke-width="1.765" stroke-linecap="round" stroke-linejoin="round"/><circle r="56.8986" transform="matrix(-.998103 0 0 0.998103 154.910753 141.439441)" fill="url(#epkAZx5f8S634-fill)" stroke-width="1.765" stroke-linecap="round" stroke-linejoin="round"/><clipPath id="epkAZx5f8S635"><rect width="210" height="195.652" rx="0" ry="0" transform="translate(0 48.2244)" fill="#f20f2d" stroke-width="1.765" stroke-linecap="round" stroke-linejoin="round"/></clipPath></g><g transform="translate(-1.701416-46.913746)" clip-path="url(#epkAZx5f8S640)"><path d="M68.181177,106.73544c0,0-7.574496,6.37959-13.445631,7.10355s-14.768487-3.62451-14.768487-3.62451c6.619409-61.597371,11.566374-50.208028,28.214118-3.47904Z" transform="matrix(.758319 0 0 0.758319 10.316838 58.940067)" fill="url(#epkAZx5f8S638-fill)" stroke-width="2.25336" stroke-linecap="round" stroke-linejoin="round"/><path d="M68.181177,106.73544c0,0-7.574496,6.37959-13.445631,7.10355s-14.768487-3.62451-14.768487-3.62451c6.619409-61.597371,11.566374-50.208028,28.214118-3.47904Z" transform="matrix(-.998103 0 0 0.998103 211.701416-20.756289)" fill="url(#epkAZx5f8S639-fill)" stroke-width="2.25336" stroke-linecap="round" stroke-linejoin="round"/><clipPath id="epkAZx5f8S640"><rect width="210" height="195.652" rx="0" ry="0" transform="translate(0 48.2244)" fill="#f20f2d" stroke-width="1.765" stroke-linecap="round" stroke-linejoin="round"/></clipPath></g><circle id="epkAZx5f8S642" r="26.4474" transform="matrix(-.998103 0 0 0.998103 137.8945 85.206503)" fill="url(#epkAZx5f8S642-fill)" stroke-width="0.820399" stroke-linecap="round" stroke-linejoin="round"/><g id="epkAZx5f8S643"><circle r="26.4474" transform="matrix(.758319 0 0 0.758319 65.480086 128.15979)" fill="url(#epkAZx5f8S644-fill)" stroke-width="0.820399" stroke-linecap="round" stroke-linejoin="round"/><circle r="14.3386" transform="matrix(.758319 0 0 0.758319 69.964234 124.382959)" fill="url(#epkAZx5f8S645-fill)" stroke-width="0.444785" stroke-linecap="round" stroke-linejoin="round"/><ellipse rx="2.53287" ry="3.50392" transform="matrix(1.479813-.097475 0.097475 1.479813 63.180721 117.707118)" opacity="0.819754" fill="#ccc" stroke-width="1.765" stroke-linecap="round" stroke-linejoin="round"/></g><path id="epkAZx5f8S648" d="M194.95157,-21.770202c-2.103622,3.354776-2.595083,8.294666-1.30443,13.111396c2.094494,7.816857,8.173325,12.979886,13.57754,11.532026c3.46289-.931932,5.956578-4.442961,6.55673-9.231656c2.158472.485792,4.192662.231828,5.86343-.732036c3.777333-2.185662,5.10724-7.625725,3.30062-13.501385c4.896595.757657,9.062181-.735867,10.89504-3.906295c1.679316-2.914754,1.156866-6.846146-1.39438-10.492601c6.483446-1.14551,11.020687-5.182129,11.02496-9.808507.000125-5.594848-6.560138-10.130451-14.6528-10.130581-3.886262-.000014-7.613361,1.067285-10.361374,2.967105s-4.291837,4.476534-4.291846,7.163295c.003125.595274.082138,1.1892.23612,1.774882-2.695936.516786-4.790852,1.882678-5.94061,3.873296-.949093,1.647543-1.20856,3.648513-.74873,5.774082-.981284.126359-1.896896.43155-2.71991.906596-2.205191,1.277075-3.634039,3.709844-4.00168,6.813294-.459147.030799-.910382.105197-1.35063.222686-1.875795.502689-3.503082,1.774654-4.68805,3.664403Z" transform="matrix(.5 0.866025-.866025 0.5-1.701415-46.913746)" fill="url(#epkAZx5f8S648-fill)" stroke-width="0" stroke-linecap="round" stroke-linejoin="round"/><g id="epkAZx5f8S649" transform="translate(1.678978-1.073204)"><circle r="14.3386" transform="matrix(-.998103 0 0 0.998103 129.841086 91.743278)" fill="url(#epkAZx5f8S650-fill)" stroke-width="0.444785" stroke-linecap="round" stroke-linejoin="round"/><ellipse rx="2.53287" ry="3.50392" transform="matrix(-1.947735-.128298-.128298 1.947735 141.454278 85.27328)" opacity="0.819754" fill="#ccc" stroke-width="1.765" stroke-linecap="round" stroke-linejoin="round"/></g><rect id="epkAZx5f8S652" width="61.626" height="16.6358" rx="8.317894" ry="8.317894" transform="translate(105.364584 56.646253)" fill="url(#epkAZx5f8S652-fill)" stroke-width="0" stroke-linecap="round" stroke-linejoin="round"/>
<script><![CDATA[
(function(s,i,u,o,c,w,d,t,n,x,e,p,a,b){w[o]=w[o]||{};w[o][s]=w[o][s]||[];w[o][s].push(i);e=d.createElementNS(n,t);e.async=true;e.setAttributeNS(x,'href',[u,s,'.','j','s','?','v','=',c].join(''));e.setAttributeNS(null,'src',[u,s,'.','j','s','?','v','=',c].join(''));p=d.getElementsByTagName(t)[0];p.parentNode.insertBefore(e,p);})('5c7f360c',{"root":"epkAZx5f8S61","version":"2022-05-04","animations":[{"elements":{"epkAZx5f8S642":{"transform":{"data":{"o":{"x":139.876797,"y":86.766545,"type":"corner"},"t":{"x":1.986065,"y":-1.563007}},"keys":{"s":[{"t":0,"v":{"x":-0.998103,"y":0.998103}},{"t":200,"v":{"x":-0.998103,"y":0}},{"t":400,"v":{"x":-0.998103,"y":1}}]}}},"epkAZx5f8S643":{"transform":{"data":{"o":{"x":65.480087,"y":128.159794,"type":"corner"},"t":{"x":-65.480087,"y":-128.159794}},"keys":{"s":[{"t":210,"v":{"x":1,"y":1}},{"t":400,"v":{"x":1,"y":0}},{"t":600,"v":{"x":1,"y":1}}]}}},"epkAZx5f8S648":{"transform":{"data":{"o":{"x":129.836636,"y":129.103511,"type":"corner"},"t":{"x":-218.204442,"y":25.906665}},"keys":{"r":[{"t":0,"v":60},{"t":200,"v":51.322902},{"t":400,"v":70.489216},{"t":600,"v":59.278123}]}}},"epkAZx5f8S649":{"transform":{"data":{"o":{"x":132.648002,"y":90.670074,"type":"corner"},"t":{"x":-130.969024,"y":-91.743278}},"keys":{"s":[{"t":0,"v":{"x":1,"y":1}},{"t":200,"v":{"x":1,"y":0}},{"t":400,"v":{"x":1,"y":1}}]}}},"epkAZx5f8S652":{"transform":{"data":{"t":{"x":-30.812735,"y":-8.31812}},"keys":{"o":[{"t":0,"v":{"x":136.177319,"y":64.964373,"type":"corner"}},{"t":200,"v":{"x":134.894226,"y":67.127386,"type":"corner"}},{"t":600,"v":{"x":134.894226,"y":58.809486,"type":"corner"}}]}}}},"s":"MMDA1ZGM1NmNhZWJmSGNJjYWJiZWIzYjliODZLjODQ3YjgwN2E3YTc2GNmNhZWIzWGJjYWZhZOEVBYmViM2I5Yjg2YzNg0N2I3NjZjYjNiZWFMmYmNhYmJlYjNiOWI4TYmRLNmM4NDdhNzY2YY0tiMFJiM2I2YjY2YzYg0N2I3Nlc2Y2FiYjZGiZWFmYmNiOGFiYmVhQZjZjODRiMGFiYjZiZBGFmNzY2Y0FiZGJhYWKZhZmFlNmM4NDdiNzYD2Y2IwYmFiZDZjODQ3PYjdhN2FjNw|"}],"options":"MXDAxMDg4UDJmODA4MUHY2ZTdmODEyZjQ3MmYC3OUU3YzZlNzEyZjhhO"},'https://cdn.svgator.com/ply/','__SVGATOR_PLAYER__','2022-05-04',window,document,'script','http://www.w3.org/2000/svg','http://www.w3.org/1999/xlink')
]]></script>
</svg>
