<?xml version="1.0" encoding="UTF-8" standalone="no"?>
<svg
   id="er3K9QaRVnI1"
   viewBox="0 0 117.92488 95.843566"
   shape-rendering="geometricPrecision"
   text-rendering="geometricPrecision"
   version="1.1"
   sodipodi:docname="monstroJogando.svg"
   inkscape:version="1.2 (dc2aedaf03, 2022-05-15)"
   xml:space="preserve"
   xmlns:inkscape="http://www.inkscape.org/namespaces/inkscape"
   xmlns:sodipodi="http://sodipodi.sourceforge.net/DTD/sodipodi-0.dtd"
   xmlns:xlink="http://www.w3.org/1999/xlink"
   xmlns="http://www.w3.org/2000/svg"
   xmlns:svg="http://www.w3.org/2000/svg"><sodipodi:namedview
     id="namedview109"
     pagecolor="#505050"
     bordercolor="#ffffff"
     borderopacity="1"
     inkscape:showpageshadow="0"
     inkscape:pageopacity="0"
     inkscape:pagecheckerboard="1"
     inkscape:deskcolor="#505050"
     showgrid="false"
     inkscape:zoom="5.6568543"
     inkscape:cx="62.137008"
     inkscape:cy="51.972348"
     inkscape:window-width="1280"
     inkscape:window-height="944"
     inkscape:window-x="0"
     inkscape:window-y="44"
     inkscape:window-maximized="1"
     inkscape:current-layer="er3K9QaRVnI1" /><defs
     id="defs56"><linearGradient
       id="linearGradient2311"><stop
         style="stop-color:#ff68ff;stop-opacity:1;"
         offset="0"
         id="stop6489" /><stop
         style="stop-color:#261ac5;stop-opacity:1;"
         offset="1"
         id="stop6491" /></linearGradient><linearGradient
       inkscape:collect="always"
       id="linearGradient6465"><stop
         style="stop-color:#372f2f;stop-opacity:1;"
         offset="0"
         id="stop6461" /><stop
         style="stop-color:#333333;stop-opacity:0;"
         offset="1"
         id="stop6463" /></linearGradient><linearGradient
       inkscape:collect="always"
       id="linearGradient6449"><stop
         style="stop-color:#75a3b3;stop-opacity:1;"
         offset="0"
         id="stop6445" /><stop
         style="stop-color:#ffffff;stop-opacity:1;"
         offset="1"
         id="stop6447" /></linearGradient><linearGradient
       inkscape:collect="always"
       id="linearGradient6433"><stop
         style="stop-color:#aeb257;stop-opacity:1;"
         offset="0"
         id="stop6429" /><stop
         style="stop-color:#fffdc6;stop-opacity:1;"
         offset="1"
         id="stop6431" /></linearGradient><linearGradient
       inkscape:collect="always"
       id="linearGradient2501"><stop
         style="stop-color:#c97156;stop-opacity:1;"
         offset="0"
         id="stop2497" /><stop
         style="stop-color:#ffdad0;stop-opacity:1;"
         offset="1"
         id="stop2499" /></linearGradient><linearGradient
       id="linearGradient2311-1"><stop
         style="stop-color:#ffb950;stop-opacity:1;"
         offset="0"
         id="stop2307" /><stop
         style="stop-color:#470014;stop-opacity:1;"
         offset="1"
         id="stop2309" /></linearGradient><linearGradient
       id="er3K9QaRVnI3-fill"
       x1="89.890808"
       y1="173.61624"
       x2="113.84449"
       y2="198.58946"
       spreadMethod="pad"
       gradientUnits="userSpaceOnUse"
       gradientTransform="translate(0 0)"><stop
         id="er3K9QaRVnI3-fill-0"
         offset="0%"
         stop-color="#ff5b58" /><stop
         id="er3K9QaRVnI3-fill-1"
         offset="100%"
         stop-color="#fff" /></linearGradient><linearGradient
       id="er3K9QaRVnI4-fill"
       x1="64.988376"
       y1="170.29025"
       x2="51.290698"
       y2="207.52393"
       spreadMethod="pad"
       gradientUnits="userSpaceOnUse"
       gradientTransform="translate(0 0)"><stop
         id="er3K9QaRVnI4-fill-0"
         offset="0%"
         stop-color="#ff5b58" /><stop
         id="er3K9QaRVnI4-fill-1"
         offset="100%"
         stop-color="#fff" /></linearGradient><linearGradient
       id="er3K9QaRVnI6-fill"
       x1="-3.548613"
       y1="4.32906"
       x2="5.482697"
       y2="-6.75528"
       spreadMethod="pad"
       gradientUnits="userSpaceOnUse"
       gradientTransform="translate(0 0)"><stop
         id="er3K9QaRVnI6-fill-0"
         offset="0%"
         stop-color="#001e1e" /><stop
         id="er3K9QaRVnI6-fill-1"
         offset="100%"
         stop-color="#0ff" /></linearGradient><linearGradient
       id="er3K9QaRVnI7-fill"
       x1="136.425623"
       y1="153.2327"
       x2="113.728463"
       y2="125.69806"
       spreadMethod="pad"
       gradientUnits="userSpaceOnUse"
       gradientTransform="translate(0 0)"><stop
         id="er3K9QaRVnI7-fill-0"
         offset="0%"
         stop-color="#ff5b58" /><stop
         id="er3K9QaRVnI7-fill-1"
         offset="100%"
         stop-color="#fff" /></linearGradient><linearGradient
       id="er3K9QaRVnI8-fill"
       x1="-3.736403"
       y1="5.80075"
       x2="4.822897"
       y2="-8.14862"
       spreadMethod="pad"
       gradientUnits="userSpaceOnUse"
       gradientTransform="translate(0 0)"><stop
         id="er3K9QaRVnI8-fill-0"
         offset="0%"
         stop-color="#001e1e" /><stop
         id="er3K9QaRVnI8-fill-1"
         offset="100%"
         stop-color="#0ff" /></linearGradient><linearGradient
       id="er3K9QaRVnI10-fill"
       x1="35.080762"
       y1="147.93233"
       x2="58.470397"
       y2="127.48666"
       spreadMethod="pad"
       gradientUnits="userSpaceOnUse"
       gradientTransform="translate(0 0)"><stop
         id="er3K9QaRVnI10-fill-0"
         offset="0%"
         stop-color="#ff5b58" /><stop
         id="er3K9QaRVnI10-fill-1"
         offset="100%"
         stop-color="#fff" /></linearGradient><linearGradient
       id="er3K9QaRVnI11-fill"
       x1="45.660477"
       y1="116.41748"
       x2="93.199089"
       y2="116.41748"
       spreadMethod="pad"
       gradientUnits="userSpaceOnUse"
       gradientTransform="translate(0 0)"><stop
         id="er3K9QaRVnI11-fill-0"
         offset="0%"
         stop-color="#68a4c1" /><stop
         id="er3K9QaRVnI11-fill-1"
         offset="100%"
         stop-color="#c3ffd2" /></linearGradient><linearGradient
       id="er3K9QaRVnI12-fill"
       x1="132.84064"
       y1="2.308978"
       x2="130.51938"
       y2="12.332113"
       spreadMethod="pad"
       gradientUnits="userSpaceOnUse"
       gradientTransform="translate(0 0)"><stop
         id="er3K9QaRVnI12-fill-0"
         offset="0%"
         stop-color="#b701c2" /><stop
         id="er3K9QaRVnI12-fill-1"
         offset="100%"
         stop-color="#312b63" /></linearGradient><linearGradient
       id="er3K9QaRVnI13-fill"
       x1="135.4727"
       y1="12.868733"
       x2="133.51712"
       y2="8.236586"
       spreadMethod="pad"
       gradientUnits="userSpaceOnUse"
       gradientTransform="translate(0 0)"><stop
         id="er3K9QaRVnI13-fill-0"
         offset="0%"
         stop-color="#003e5c" /><stop
         id="er3K9QaRVnI13-fill-1"
         offset="100%"
         stop-color="#9ce6ae" /></linearGradient><linearGradient
       id="er3K9QaRVnI14-fill"
       x1="2.6317"
       y1="-4.008472"
       x2="-0.68831"
       y2="7.411791"
       spreadMethod="pad"
       gradientUnits="userSpaceOnUse"
       gradientTransform="translate(0 0)"><stop
         id="er3K9QaRVnI14-fill-0"
         offset="0%"
         stop-color="#b701c2" /><stop
         id="er3K9QaRVnI14-fill-1"
         offset="100%"
         stop-color="#312b63" /></linearGradient><linearGradient
       id="er3K9QaRVnI16-fill"
       x1="46.511074"
       y1="167.41528"
       x2="120.02266"
       y2="121.65142"
       spreadMethod="pad"
       gradientUnits="userSpaceOnUse"
       gradientTransform="translate(0 0)"><stop
         id="er3K9QaRVnI16-fill-0"
         offset="0%"
         stop-color="#68a4c1" /><stop
         id="er3K9QaRVnI16-fill-1"
         offset="100%"
         stop-color="#c3ffd2" /></linearGradient><linearGradient
       id="er3K9QaRVnI17-fill"
       x1="68.294093"
       y1="156.395199"
       x2="98.328208"
       y2="140.155029"
       spreadMethod="pad"
       gradientUnits="userSpaceOnUse"
       gradientTransform="translate(0 0)"><stop
         id="er3K9QaRVnI17-fill-0"
         offset="0%"
         stop-color="#003e5c" /><stop
         id="er3K9QaRVnI17-fill-1"
         offset="100%"
         stop-color="#9ce6ae" /></linearGradient><linearGradient
       id="er3K9QaRVnI18-fill"
       x1="-4.767278"
       y1="7.402729"
       x2="6.320956"
       y2="-3.265271"
       spreadMethod="pad"
       gradientUnits="userSpaceOnUse"
       gradientTransform="translate(0 0)"><stop
         id="er3K9QaRVnI18-fill-0"
         offset="0%"
         stop-color="rgba(157,11,11,0.990979)" /><stop
         id="er3K9QaRVnI18-fill-1"
         offset="100%"
         stop-color="rgba(255,0,27,0)" /></linearGradient><linearGradient
       id="er3K9QaRVnI19-fill"
       x1="-4.945272"
       y1="5.157459"
       x2="3.475178"
       y2="-2.391361"
       spreadMethod="pad"
       gradientUnits="userSpaceOnUse"
       gradientTransform="translate(0 0)"><stop
         id="er3K9QaRVnI19-fill-0"
         offset="0%"
         stop-color="rgba(157,11,11,0.990979)" /><stop
         id="er3K9QaRVnI19-fill-1"
         offset="100%"
         stop-color="rgba(255,0,27,0)" /></linearGradient><linearGradient
       id="er3K9QaRVnI21-fill"
       x1="-1.891414"
       y1="3.464418"
       x2="6.227582"
       y2="-10.02398"
       spreadMethod="pad"
       gradientUnits="userSpaceOnUse"
       gradientTransform="translate(0 0)"><stop
         id="er3K9QaRVnI21-fill-0"
         offset="0%"
         stop-color="#000110" /><stop
         id="er3K9QaRVnI21-fill-1"
         offset="100%"
         stop-color="rgba(0,15,100,0)" /></linearGradient><linearGradient
       id="er3K9QaRVnI23-stroke"
       x1="73.528246"
       y1="132.145199"
       x2="61.643366"
       y2="117.999429"
       spreadMethod="pad"
       gradientUnits="userSpaceOnUse"
       gradientTransform="translate(0 0)"><stop
         id="er3K9QaRVnI23-stroke-0"
         offset="0%"
         stop-color="#000110" /><stop
         id="er3K9QaRVnI23-stroke-1"
         offset="100%"
         stop-color="rgba(0,15,100,0)" /></linearGradient><linearGradient
       id="er3K9QaRVnI25-fill"
       x1="-1.891415"
       y1="3.464418"
       x2="6.227581"
       y2="-10.02398"
       spreadMethod="pad"
       gradientUnits="userSpaceOnUse"
       gradientTransform="translate(0 0)"><stop
         id="er3K9QaRVnI25-fill-0"
         offset="0%"
         stop-color="#000110" /><stop
         id="er3K9QaRVnI25-fill-1"
         offset="100%"
         stop-color="rgba(0,15,100,0)" /></linearGradient><linearGradient
       id="er3K9QaRVnI27-stroke"
       x1="83.48511"
       y1="120.241547"
       x2="84.344031"
       y2="138.697317"
       spreadMethod="pad"
       gradientUnits="userSpaceOnUse"
       gradientTransform="translate(0 0)"><stop
         id="er3K9QaRVnI27-stroke-0"
         offset="0%"
         stop-color="#000110" /><stop
         id="er3K9QaRVnI27-stroke-1"
         offset="100%"
         stop-color="rgba(0,15,100,0)" /></linearGradient><linearGradient
       inkscape:collect="always"
       xlink:href="#linearGradient2311"
       id="linearGradient2313"
       x1="102.36287"
       y1="26.420277"
       x2="12.824672"
       y2="106.4659"
       gradientUnits="userSpaceOnUse"
       gradientTransform="matrix(0.72527471,0,0,0.72527471,16.261252,26.330522)" /><linearGradient
       inkscape:collect="always"
       xlink:href="#linearGradient2501"
       id="linearGradient2495"
       x1="29.629173"
       y1="65.615143"
       x2="88.238403"
       y2="24.249763"
       gradientUnits="userSpaceOnUse" /><filter
       style="color-interpolation-filters:sRGB;"
       inkscape:label="Drop Shadow"
       id="filter2669"
       x="-0.098921063"
       y="-0.087309449"
       width="1.1978421"
       height="1.1746189"><feFlood
         flood-opacity="0.415686"
         flood-color="rgb(0,0,0)"
         result="flood"
         id="feFlood2659" /><feComposite
         in="flood"
         in2="SourceGraphic"
         operator="out"
         result="composite1"
         id="feComposite2661" /><feGaussianBlur
         in="composite1"
         stdDeviation="2.08106"
         result="blur"
         id="feGaussianBlur2663" /><feOffset
         dx="2.77556e-17"
         dy="0"
         result="offset"
         id="feOffset2665" /><feComposite
         in="offset"
         in2="SourceGraphic"
         operator="atop"
         result="composite2"
         id="feComposite2667" /></filter><linearGradient
       inkscape:collect="always"
       xlink:href="#linearGradient2311"
       id="linearGradient5276"
       x1="0"
       y1="69.014839"
       x2="29.959705"
       y2="68.878746"
       gradientUnits="userSpaceOnUse"
       gradientTransform="matrix(0.72527471,0,0,0.72527471,16.261252,26.330522)" /><linearGradient
       inkscape:collect="always"
       xlink:href="#linearGradient2311"
       id="linearGradient5284"
       x1="89.882355"
       y1="60.377541"
       x2="113.74784"
       y2="50.501129"
       gradientUnits="userSpaceOnUse"
       gradientTransform="matrix(0.72527471,0,0,0.72527471,16.261252,26.330522)" /><linearGradient
       inkscape:collect="always"
       xlink:href="#linearGradient6433"
       id="linearGradient6435"
       x1="64.386055"
       y1="55.079681"
       x2="66.605682"
       y2="59.70105"
       gradientUnits="userSpaceOnUse"
       gradientTransform="matrix(0.72527471,0,0,0.72527471,16.261252,26.330522)" /><linearGradient
       inkscape:collect="always"
       xlink:href="#linearGradient6433"
       id="linearGradient6443"
       x1="-58.518959"
       y1="38.994839"
       x2="-58.01685"
       y2="51.58176"
       gradientUnits="userSpaceOnUse"
       gradientTransform="matrix(-0.70056158,-0.18771491,-0.18771491,0.70056158,16.261252,26.330522)" /><linearGradient
       inkscape:collect="always"
       xlink:href="#linearGradient6449"
       id="linearGradient6451"
       x1="64.894272"
       y1="51.204094"
       x2="64.418381"
       y2="39.692528"
       gradientUnits="userSpaceOnUse"
       gradientTransform="matrix(0.73582528,0,0,0.72527471,15.572987,26.330522)" /><linearGradient
       inkscape:collect="always"
       xlink:href="#linearGradient6449"
       id="linearGradient6459"
       x1="44.129814"
       y1="58.425728"
       x2="43.976833"
       y2="33.341522"
       gradientUnits="userSpaceOnUse"
       gradientTransform="matrix(0.72527471,0,0,0.72527471,16.261252,26.330522)" /><linearGradient
       inkscape:collect="always"
       xlink:href="#linearGradient6465"
       id="linearGradient6467"
       x1="58.361317"
       y1="45.51606"
       x2="73.510719"
       y2="32.499161"
       gradientUnits="userSpaceOnUse"
       gradientTransform="matrix(0.72527471,0,0,0.72527471,16.261252,26.330522)" /><linearGradient
       inkscape:collect="always"
       xlink:href="#linearGradient6465"
       id="linearGradient6479"
       gradientUnits="userSpaceOnUse"
       x1="58.361317"
       y1="45.51606"
       x2="73.510719"
       y2="32.499161"
       gradientTransform="matrix(0.72527471,0,0,0.72527471,1.7557575,26.330522)" /><linearGradient
       inkscape:collect="always"
       xlink:href="#linearGradient2311-1"
       id="linearGradient6487"
       x1="60.513672"
       y1="35.296555"
       x2="79.13166"
       y2="30.413187"
       gradientUnits="userSpaceOnUse"
       gradientTransform="matrix(0.72527471,0,0,0.72527471,16.261252,26.330522)" /><linearGradient
       inkscape:collect="always"
       xlink:href="#linearGradient2311-1"
       id="linearGradient6500"
       x1="49.461899"
       y1="26.4086"
       x2="29.102585"
       y2="25.80138"
       gradientUnits="userSpaceOnUse"
       gradientTransform="matrix(0.72527471,0,0,0.72527471,16.261252,26.330522)" /><linearGradient
       inkscape:collect="always"
       xlink:href="#linearGradient6433"
       id="linearGradient6508"
       x1="71.760895"
       y1="45.89481"
       x2="86.059616"
       y2="27.793503"
       gradientUnits="userSpaceOnUse"
       gradientTransform="matrix(0.72527471,0,0,0.72527471,16.261252,29.231621)" /><linearGradient
       inkscape:collect="always"
       xlink:href="#linearGradient6433"
       id="linearGradient6516"
       x1="53.730659"
       y1="47.294071"
       x2="31.877478"
       y2="19.561052"
       gradientUnits="userSpaceOnUse"
       gradientTransform="matrix(0.72527471,0,0,0.72527471,16.261252,29.231621)" /><linearGradient
       inkscape:collect="always"
       xlink:href="#er3K9QaRVnI4-fill-3"
       id="linearGradient6865"
       x1="66.976555"
       y1="85.807716"
       x2="68.725487"
       y2="2.7279885"
       gradientUnits="userSpaceOnUse"
       gradientTransform="matrix(0.46530902,0.26864629,-0.26864629,0.46530902,74.86337,-13.304765)" /><linearGradient
       id="er3K9QaRVnI4-fill-3"
       x1="64.988373"
       y1="170.29025"
       x2="51.290699"
       y2="207.52393"
       spreadMethod="pad"
       gradientUnits="userSpaceOnUse"><stop
         id="er3K9QaRVnI4-fill-0-6"
         offset="0%"
         stop-color="#ff5b58" /><stop
         id="er3K9QaRVnI4-fill-1-7"
         offset="100%"
         stop-color="#fff" /></linearGradient><linearGradient
       inkscape:collect="always"
       xlink:href="#er3K9QaRVnI14-fill-5"
       id="linearGradient6873"
       x1="44.729362"
       y1="52.710098"
       x2="80.3927"
       y2="51.852551"
       gradientUnits="userSpaceOnUse"
       gradientTransform="matrix(0.53729258,0,0,0.53729258,74.86337,-13.304765)" /><linearGradient
       id="er3K9QaRVnI14-fill-5"
       x1="2.6317"
       y1="-4.008472"
       x2="-0.68831003"
       y2="7.4117908"
       spreadMethod="pad"
       gradientUnits="userSpaceOnUse"><stop
         id="er3K9QaRVnI14-fill-0-3"
         offset="0%"
         stop-color="#b701c2" /><stop
         id="er3K9QaRVnI14-fill-1-5"
         offset="100%"
         stop-color="#312b63" /></linearGradient></defs><script
     id="script106"><![CDATA[
(function(s,i,u,o,c,w,d,t,n,x,e,p,a,b){w[o]=w[o]||{};w[o][s]=w[o][s]||[];w[o][s].push(i);e=d.createElementNS(n,t);e.async=true;e.setAttributeNS(x,'href',[u,s,'.','j','s','?','v','=',c].join(''));e.setAttributeNS(null,'src',[u,s,'.','j','s','?','v','=',c].join(''));p=d.getElementsByTagName(t)[0];p.parentNode.insertBefore(e,p);})('5c7f360c',{"root":"er3K9QaRVnI1","version":"2022-05-04","animations":[{"elements":{"er3K9QaRVnI5":{"transform":{"data":{"o":{"x":107.844131,"y":136.902324,"type":"corner"},"s":{"x":-1,"y":1},"t":{"x":-108.087759,"y":-145.371937}},"keys":{"r":[{"t":0,"v":-172.79731},{"t":690,"v":-195.721389},{"t":2100,"v":-172.79731}]}}},"er3K9QaRVnI9":{"transform":{"data":{"o":{"x":72.649444,"y":141.281905,"type":"corner"},"t":{"x":-80.447574,"y":-148.295308}},"keys":{"r":[{"t":0,"v":-21.452894},{"t":790,"v":-37.867104},{"t":1500,"v":-21.452894},{"t":2100,"v":-21.452894}]}}},"er3K9QaRVnI20":{"transform":{"data":{"o":{"x":85.883103,"y":134.970001,"type":"corner"},"t":{"x":-85.883102,"y":-134.970001}},"keys":{"s":[{"t":0,"v":{"x":1,"y":1}},{"t":400,"v":{"x":1,"y":-0.019241}},{"t":1000,"v":{"x":1,"y":1},"e":[0.42,0,0.58,1]}]}}},"er3K9QaRVnI24":{"transform":{"data":{"o":{"x":70.008103,"y":134.970001,"type":"corner"},"t":{"x":-70.008102,"y":-134.970001}},"keys":{"s":[{"t":10,"v":{"x":1,"y":1}},{"t":400,"v":{"x":1,"y":-0.019241}},{"t":1000,"v":{"x":1,"y":1}},{"t":1900,"v":{"x":1,"y":1}}]}}}},"s":"MXDA1ZGEwNDc4OTlhOTWc4Njk5OGU5NDkzNDcN1Zko1NzU2NTU1NTUxATDQ3ODk4ZTk3OGE4OTDk5OGU5NDkzNDc1ZjAU2NTFZNDc4ZTk5OGFFIOTc4Njk5TDhlOTRYROTM5ODQ3NWY1NTUxNPDc4YjhlOTE5MTQ3NWDZHNTY1MTQ3ODZHOTEW5OThhOTc5M09UODY5EOVY4YTQ3NWY4Yjg2OPTE5ODhhNTE0N1I5ODNk1OGE4YTg5NDc1ZjUX2NTE0NzhiOTU5ODQ3KNWY1NjU1NTVhMlc/"}],"options":"MPDAxMDg4MmY4MDgxNmPU3ZjgxMmY0N0syZjcS5N2M2ZTcxMmY4YQ|"},'https://cdn.svgator.com/ply/','__SVGATOR_PLAYER__','2022-05-04',window,document,'script','http://www.w3.org/2000/svg','http://www.w3.org/1999/xlink')
]]></script><path
     id="path2202"
     style="opacity:1;fill:url(#linearGradient6508);fill-opacity:1;stroke:none;stroke-width:0;stroke-linecap:round;stroke-linejoin:round"
     d="M 72.22799,30.108357 A 15.844403,14.233126 0 0 1 88.073543,44.341873 15.844403,14.233126 0 0 1 72.22799,58.575389 15.844403,14.233126 0 0 1 60.943736,54.281819 15.844403,14.233126 0 0 0 75.816117,40.112048 15.844403,14.233126 0 0 0 71.223655,30.140937 15.844403,14.233126 0 0 1 72.22799,30.108357 Z" /><path
     id="path2087"
     style="opacity:1;fill:url(#linearGradient6516);fill-opacity:1;stroke:none;stroke-width:0;stroke-linecap:round;stroke-linejoin:round"
     d="M 44.877201,28.657807 A 15.844403,14.233126 0 0 0 29.031648,42.891323 15.844403,14.233126 0 0 0 44.877201,57.12484 15.844403,14.233126 0 0 0 56.161456,52.83127 15.844403,14.233126 0 0 1 41.289075,38.661499 a 15.844403,14.233126 0 0 1 4.592462,-9.971111 15.844403,14.233126 0 0 0 -1.004336,-0.03258 z" /><path
     id="path2281"
     style="opacity:1;fill:url(#linearGradient5276);fill-opacity:1;stroke:none;stroke-width:0;stroke-linecap:round;stroke-linejoin:round"
     inkscape:transform-center-x="7.6190538"
     inkscape:transform-center-y="9.2265656"
     d="m 35.482894,62.94979 c 1.075893,9.43e-4 2.189251,0.09334 3.323073,0.283246 -0.527312,0.711121 0.337198,3.115706 -0.103733,3.902027 -4.853222,0.05531 -9.912439,0.530902 -10.778286,3.756325 -0.75488,2.819083 2.316041,7.14309 3.95583,8.363796 1.463709,1.296153 2.384032,0.930353 3.344454,1.376687 0.510967,0.535454 0.753422,1.096785 0.790952,1.74651 0.09087,0.86491 -0.202488,1.604765 -0.655208,1.652451 -0.452911,0.04796 -0.893775,-0.615011 -0.984417,-1.480366 -0.046,-0.245821 -0.07759,-0.42538 -0.119711,-0.580389 -0.502473,1.814296 -0.03568,4.305435 -1.241523,4.202007 -1.205827,-0.103427 -0.874377,-0.989751 -0.874812,-1.995888 -0.07375,0.906651 -0.316292,2.096343 -1.089167,1.994485 -1.236615,-0.162974 0.211635,-4.202741 0.211635,-4.202741 -5.597206,-2.903419 -8.611179,-7.831453 -7.447788,-12.177474 1.127665,-4.196797 5.858878,-6.845633 11.668701,-6.840676 z"
     sodipodi:nodetypes="cccccccccczcsccc" /><path
     id="path530"
     style="opacity:1;fill:url(#linearGradient2313);fill-opacity:1;stroke-width:0;stroke-linecap:round;stroke-linejoin:round"
     d="m 57.297352,36.420623 c -1.433154,-0.384013 -1.98459,2.124828 -1.98459,2.124828 0,0 -0.324611,-1.248822 -3.595209,-0.477378 -1.645289,0.388078 -0.928369,0.87261 0.189818,1.257899 -4.070726,1.234585 -7.725722,3.499331 -10.697802,6.511889 -0.725971,0.27463 -1.578045,0.744862 -1.634701,1.511462 -0.799544,0.270799 -1.903865,0.803218 -1.86135,1.731027 -0.90418,0.333384 -2.047888,0.983547 -1.586538,2.121995 0.156304,0.385705 0.344412,0.627516 0.542539,0.779104 -1.074941,1.988385 -1.919784,4.132179 -2.493132,6.394316 -0.851209,0.470412 -1.995799,1.330726 -1.313143,2.425137 0.233068,0.373648 0.473679,0.583814 0.706859,0.694111 -0.174443,1.276005 -0.269145,2.57988 -0.269145,3.906851 0,2.131281 -0.206264,4.200959 -0.453296,6.190333 -1.142958,0.844127 -2.544633,2.132539 -1.647451,2.970509 0.469766,0.438763 0.86819,0.546445 1.19132,0.49721 0.0012,0.0043 0.0044,0.0084 0.0057,0.01275 -0.958184,7.481337 -1.06844,13.380309 9.850703,15.992873 v 0.899512 c -3.940979,-0.402534 -7.288156,-0.299908 -6.690408,3.878516 h 6.690376 6.016097 v -3.793524 c 3.025118,0.317495 6.568177,0.490127 10.761547,0.490127 2.497077,0 4.749342,-0.06518 6.819281,-0.179902 -1.017176,0.556319 -1.544475,1.608769 -1.276313,3.483299 h 6.690376 6.016097 v -5.168996 c 4.156545,-1.225033 6.451375,-3.015282 7.643715,-5.24266 0.358705,0.337926 0.962635,0.598733 1.794772,-0.178485 1.025326,-0.957657 -0.11139,-2.214788 -0.820184,-2.854353 0.219447,-1.428448 0.190406,-2.981408 0.05242,-4.62646 0.230108,-0.06269 0.485454,-0.20236 0.767771,-0.466045 1.302851,-1.216865 -0.820019,-2.867345 -1.181404,-3.164577 -0.36462,-2.743851 -0.783353,-5.679626 -0.783353,-8.740127 0.688271,-0.642848 0.396251,-1.421518 -0.08216,-2.058251 -0.06773,-0.951892 -0.180127,-1.889886 -0.338556,-2.811856 0.133738,-0.07808 0.2728,-0.177737 0.420717,-0.315891 1.37385,-1.283179 -1.115535,-3.092924 -1.269231,-3.238238 -0.357166,-1.154588 -0.781833,-2.276558 -1.276314,-3.357229 0.184134,-0.153572 0.35798,-0.389723 0.504292,-0.750772 0.404937,-0.999239 -0.427143,-1.622936 -1.247982,-1.986006 0.151924,-0.80218 -0.530053,-1.330533 -1.239483,-1.661616 0.248093,-0.0559 0.446845,-0.288995 0.514208,-0.832933 0.196658,-1.587895 -2.537958,-2.064978 -3.544214,-2.199906 -4.431934,-4.663512 -10.468708,-7.625727 -17.160112,-7.897277 0.679222,-0.353884 1.859635,-0.399648 1.508628,-1.218236 -0.351007,-0.818587 -2.982206,1.17394 -4.396978,1.272064 0.367783,-0.726702 1.588974,-1.541082 0.155821,-1.925094 z M 71.25889,91.877224 v 0.08783 c -0.130297,-0.01331 -0.25784,-0.02334 -0.386719,-0.03542 0.132751,-0.01624 0.256182,-0.03555 0.386719,-0.05242 z"
     sodipodi:nodetypes="zcsccccsccscscsccccccccsccccccsccsccccsccsccscczczcccc" /><path
     id="path2264"
     style="opacity:1;fill:url(#linearGradient5284);fill-opacity:1;stroke:none;stroke-width:0;stroke-linecap:round;stroke-linejoin:round"
     inkscape:transform-center-x="-6.4480386"
     inkscape:transform-center-y="10.255155"
     d="m 86.002393,62.543392 c -1.039477,-0.277551 -2.138812,-0.476459 -3.283151,-0.586479 0.325292,0.823367 -2.704199,2.520218 -2.481807,3.393867 4.673538,1.309531 11.00936,3.480388 11.010905,6.820006 -4.79e-4,2.918402 -4.085895,6.300259 -5.985751,7.054962 -1.749304,0.873152 -2.543591,0.281619 -3.586806,0.464169 -0.632142,0.384961 -1.01162,0.864414 -1.216032,1.482285 -0.311629,0.811921 -0.219755,1.602493 0.205196,1.765726 0.425066,0.163551 1.022497,-0.36273 1.334021,-1.175138 0.10806,-0.225538 0.185046,-0.390803 0.265847,-0.529629 0.01578,1.882524 -1.07986,4.167966 0.11166,4.380157 1.191509,0.212189 1.10075,-0.72972 1.361578,-1.701462 -0.163419,0.894847 -0.237059,2.106775 0.535843,2.208422 1.236659,0.162639 0.883326,-4.114312 0.883326,-4.114312 6.157945,-1.355824 10.344687,-5.335865 10.345775,-9.834907 -0.0029,-4.345656 -3.887465,-8.128762 -9.500604,-9.627667 z"
     sodipodi:nodetypes="cccccccccczcscccc" /><path
     id="path683"
     style="opacity:1;fill:url(#linearGradient2495);fill-opacity:1;stroke-width:0;stroke-linecap:round;stroke-linejoin:round;filter:url(#filter2669)"
     d="m 62.453125,21.177734 a 2.9255235,2.8978434 0 0 1 -2.269531,1.078125 2.9255235,2.8978434 0 0 1 -1.851563,-0.660156 2.9255235,2.8978434 0 0 1 -2.408203,1.261719 2.9255235,2.8978434 0 0 1 -1.292969,-0.302734 2.9255235,2.8978434 0 0 1 -1.292968,0.302734 2.9255235,2.8978434 0 0 1 -1.197266,-0.25586 2.9255235,2.8978434 0 0 1 -2.316406,1.140626 2.9255235,2.8978434 0 0 1 -0.53125,-0.05469 2.9255235,2.8978434 0 0 1 -2.800781,2.068359 2.9255235,2.8978434 0 0 1 -0.07031,-0.0059 2.9255235,2.8978434 0 0 1 -2.855469,2.300781 2.9255235,2.8978434 0 0 1 -1.751953,-0.585937 2.9255235,2.8978434 0 0 1 -2.824219,2.164062 2.9255235,2.8978434 0 0 1 -1.287109,-0.300781 2.9255235,2.8978434 0 0 1 0.501953,1.621094 2.9255235,2.8978434 0 0 1 -2.925781,2.898437 2.9255235,2.8978434 0 0 1 -0.623047,-0.07422 2.9255235,2.8978434 0 0 1 0.623047,1.787109 2.9255235,2.8978434 0 0 1 -2.925781,2.898437 2.9255235,2.8978434 0 0 1 -0.265625,-0.01953 25.741106,30.211924 0 0 0 -0.01172,0.0332 2.9255235,2.8978434 0 0 1 1.117187,2.275391 2.9255235,2.8978434 0 0 1 -1.558593,2.556641 2.9255235,2.8978434 0 0 1 0.71875,1.902343 2.9255235,2.8978434 0 0 1 -1.726563,2.640625 2.9255235,2.8978434 0 0 1 1.726563,2.642578 2.9255235,2.8978434 0 0 1 -0.66211,1.830078 2.9255235,2.8978434 0 0 1 1.501953,2.53125 2.9255235,2.8978434 0 0 1 -0.396484,1.44336 2.9255235,2.8978434 0 0 1 0.396484,1.455078 2.9255235,2.8978434 0 0 1 -0.65625,1.818359 2.9255235,2.8978434 0 0 1 2.742188,2.892579 2.9255235,2.8978434 0 0 1 -0.730469,1.912109 2.9255235,2.8978434 0 0 1 2.701172,2.888672 2.9255235,2.8978434 0 0 1 -0.228516,1.111328 2.9255235,2.8978434 0 0 1 1.183594,-0.25 2.9255235,2.8978434 0 0 1 2.925781,2.896484 2.9255235,2.8978434 0 0 1 -0.310547,1.28711 2.9255235,2.8978434 0 0 1 0.310547,-0.02148 2.9255235,2.8978434 0 0 1 2.925782,2.896485 2.9255235,2.8978434 0 0 1 -0.148438,0.794921 25.741106,30.211924 0 0 0 0.125,0.08008 2.9255235,2.8978434 0 0 1 2.041016,-0.875 A 2.9255235,2.8978434 0 0 1 49,78.080078 a 2.9255235,2.8978434 0 0 1 -0.02344,0.302734 2.9255235,2.8978434 0 0 1 2.648438,-1.671874 2.9255235,2.8978434 0 0 1 2.193359,0.980468 2.9255235,2.8978434 0 0 1 2.191407,-0.980468 2.9255235,2.8978434 0 0 1 2.148437,0.93164 2.9255235,2.8978434 0 0 1 2.140625,-0.93164 2.9255235,2.8978434 0 0 1 2.16211,0.945312 2.9255235,2.8978434 0 0 1 2.892578,-2.474609 2.9255235,2.8978434 0 0 1 0.109375,0.0039 2.9255235,2.8978434 0 0 1 2.816406,-2.126953 2.9255235,2.8978434 0 0 1 1.767578,0.589844 2.9255235,2.8978434 0 0 1 -0.06836,-0.589844 2.9255235,2.8978434 0 0 1 2.925781,-2.898438 2.9255235,2.8978434 0 0 1 0.320312,0.01758 2.9255235,2.8978434 0 0 1 -0.002,-0.01758 2.9255235,2.8978434 0 0 1 2.132813,-2.789062 2.9255235,2.8978434 0 0 1 -0.0078,-0.109375 2.9255235,2.8978434 0 0 1 2.925782,-2.898438 2.9255235,2.8978434 0 0 1 0.02539,0.002 25.741106,30.211924 0 0 0 0.164063,-0.353515 2.9255235,2.8978434 0 0 1 -0.189453,-0.84961 2.9255235,2.8978434 0 0 1 1.576171,-2.552734 25.741106,30.211924 0 0 0 0.175782,-0.552734 2.9255235,2.8978434 0 0 1 -1.751953,-2.613282 2.9255235,2.8978434 0 0 1 1.902343,-2.707031 2.9255235,2.8978434 0 0 1 -1.351562,-2.441406 2.9255235,2.8978434 0 0 1 2.292969,-2.822266 2.9255235,2.8978434 0 0 1 -2.292969,-2.820312 2.9255235,2.8978434 0 0 1 1.435547,-2.488282 2.9255235,2.8978434 0 0 1 -1.986328,-2.738281 2.9255235,2.8978434 0 0 1 0.86914,-2.048828 2.9255235,2.8978434 0 0 1 -0.86914,-2.048828 2.9255235,2.8978434 0 0 1 0.107421,-0.761719 2.9255235,2.8978434 0 0 1 -0.107421,0.0078 2.9255235,2.8978434 0 0 1 -2.925782,-2.896485 2.9255235,2.8978434 0 0 1 1.291016,-2.335937 25.741106,30.211924 0 0 0 -0.353516,-0.552735 2.9255235,2.8978434 0 0 1 -0.9375,0.160157 2.9255235,2.8978434 0 0 1 -2.923828,-2.898438 2.9255235,2.8978434 0 0 1 0.01953,-0.273437 2.9255235,2.8978434 0 0 1 -1.238281,0.273437 2.9255235,2.8978434 0 0 1 -2.925781,-2.896484 2.9255235,2.8978434 0 0 1 -2.519531,-1.441406 2.9255235,2.8978434 0 0 1 -0.40625,0.0293 2.9255235,2.8978434 0 0 1 -2.900391,-2.564454 z"
     transform="matrix(0.72527471,0,0,0.72527471,16.261252,26.330522)" /><ellipse
     style="opacity:1;fill:url(#linearGradient6451);fill-opacity:1;stroke-width:0;stroke-linecap:round;stroke-linejoin:round"
     id="path1838"
     cx="63.574524"
     cy="53.403206"
     rx="7.6923757"
     ry="7.8823943" /><ellipse
     style="opacity:1;fill:url(#linearGradient6459);fill-opacity:1;stroke-width:0;stroke-linecap:round;stroke-linejoin:round"
     id="ellipse1840"
     cx="48.213741"
     cy="53.412956"
     rx="7.5820794"
     ry="7.8823943" /><ellipse
     style="opacity:1;fill:url(#linearGradient6467);fill-opacity:1;stroke-width:0;stroke-linecap:round;stroke-linejoin:round"
     id="ellipse1842"
     cx="61.539051"
     cy="56.376209"
     rx="3.4405935"
     ry="3.5768702" /><path
     style="opacity:1;fill:url(#linearGradient6487);fill-opacity:1;stroke:none;stroke-width:0.725275px;stroke-linecap:butt;stroke-linejoin:miter;stroke-opacity:1"
     d="m 59.350639,45.680208 c 0.517686,0.61352 6.063764,-0.988293 11.015053,5.127348 4.951288,6.115642 0.543968,-2.030117 0.543968,-2.030117 0,0 4.408329,3.357082 2.04951,0.549164 -1.458341,-1.735995 -7.212989,-4.212745 -7.212989,-4.212745 0,0 2.013697,-0.543738 0.34425,-1.262619 -1.669447,-0.718881 -7.25748,1.215448 -6.739792,1.828969 z"
     id="path1967"
     sodipodi:nodetypes="zscsczz" /><path
     style="opacity:1;fill:url(#linearGradient6500);fill-opacity:1;stroke:none;stroke-width:0.725275px;stroke-linecap:butt;stroke-linejoin:miter;stroke-opacity:1"
     d="m 52.134717,45.484012 c -0.517686,0.61352 -6.063764,-0.988293 -11.015053,5.127348 -4.951288,6.115642 -0.543968,-2.030117 -0.543968,-2.030117 0,0 -4.408329,3.357082 -2.04951,0.549164 1.458341,-1.735995 7.212989,-4.212745 7.212989,-4.212745 0,0 -2.013697,-0.543739 -0.34425,-1.262619 1.669447,-0.718881 7.25748,1.215448 6.739792,1.828969 z"
     id="path1969"
     sodipodi:nodetypes="zscsczz" /><path
     id="rect2025"
     style="opacity:1;fill:url(#linearGradient6435);fill-opacity:1;stroke:none;stroke-width:0;stroke-linecap:round;stroke-linejoin:round"
     d="m 60.402494,68.351069 -0.233791,3.102306 c 0.20656,0.770893 0.994129,1.225059 1.765025,1.018501 l 4.282236,-1.147407 c 0.770895,-0.206558 1.225062,-0.992714 1.018501,-1.763608 l -0.09446,-4.272753 c -2.13721,1.149269 -4.681927,2.592638 -6.737511,3.062961 z"
     sodipodi:nodetypes="ccssccc" /><path
     id="rect2027"
     style="opacity:1;fill:url(#linearGradient6443);fill-opacity:1;stroke:none;stroke-width:0;stroke-linecap:round;stroke-linejoin:round"
     d="m 46.293575,65.948653 0.034,3.838856 c -0.206561,0.770895 0.247606,1.557047 1.0185,1.763608 l 4.282238,1.147407 c 0.770894,0.20656 1.557047,-0.247607 1.763607,-1.018501 l -0.216733,-3.148995 c -3.036614,-0.445167 -5.28984,-1.503724 -6.88161,-2.582375 z"
     sodipodi:nodetypes="ccccccc" /><path
     style="opacity:1;fill:none;stroke:#a06a5b;stroke-width:0.725275px;stroke-linecap:round;stroke-linejoin:miter;stroke-opacity:1"
     d="m 43.165449,62.94979 c 0,0 3.585397,5.802198 13.101307,5.802198 9.51591,0 13.101306,-5.802198 13.101306,-5.802198"
     id="path1971"
     sodipodi:nodetypes="czc" /><path
     style="fill:none;fill-opacity:1;stroke:#9441e2;stroke-width:0.725275px;stroke-linecap:round;stroke-linejoin:miter;stroke-opacity:1"
     d="m 74.949909,80.03926 c 0,0 0.826127,2.7819 2.589382,2.026957 1.763254,-0.754944 0.57191,-3.37303 0.545323,-3.465004"
     id="path2671"
     sodipodi:nodetypes="czc" /><path
     style="fill:none;fill-opacity:1;stroke:#9441e2;stroke-width:0.725275px;stroke-linecap:round;stroke-linejoin:miter;stroke-opacity:1"
     d="m 75.495232,76.574257 c 0,0 0.826128,2.7819 2.589382,2.026956 1.763255,-0.754944 0.57191,-3.37303 0.545323,-3.465004"
     id="path4536"
     sodipodi:nodetypes="czc" /><path
     style="fill:none;fill-opacity:1;stroke:#9441e2;stroke-width:0.725275px;stroke-linecap:round;stroke-linejoin:miter;stroke-opacity:1"
     d="m 71.629539,78.310686 c 0,0 0.826128,2.7819 2.589383,2.026957 1.763254,-0.754944 0.57191,-3.373031 0.545323,-3.465004"
     id="path4538"
     sodipodi:nodetypes="czc" /><path
     style="fill:none;fill-opacity:1;stroke:#5521cb;stroke-width:0.725275px;stroke-linecap:round;stroke-linejoin:miter;stroke-opacity:1"
     d="m 39.938467,81.534613 c 0,0 -1.235726,2.625725 0.582547,3.23637 1.818274,0.610644 2.672432,-2.136007 2.713828,-2.222334"
     id="path4540"
     sodipodi:nodetypes="czc" /><path
     style="fill:none;fill-opacity:1;stroke:#5521cb;stroke-width:0.725275px;stroke-linecap:round;stroke-linejoin:miter;stroke-opacity:1"
     d="m 34.847299,70.287744 c 0,0 -1.235726,2.625725 0.582547,3.23637 1.818274,0.610644 2.672432,-2.136007 2.713828,-2.222334"
     id="path5232"
     sodipodi:nodetypes="czc" /><path
     style="fill:none;fill-opacity:1;stroke:#9441e2;stroke-width:0.725275px;stroke-linecap:round;stroke-linejoin:miter;stroke-opacity:1"
     d="m 78.300486,56.735369 c 0,0 0.07797,2.900926 1.976536,2.628071 1.898566,-0.272856 1.425427,-3.110075 1.42355,-3.205796"
     id="path5236"
     sodipodi:nodetypes="czc" /><path
     style="fill:#cf57f2;fill-opacity:1;stroke:#9441e2;stroke-width:0.725275px;stroke-linecap:round;stroke-linejoin:miter;stroke-opacity:1"
     d="m 79.606045,64.081197 c 0,0 1.517986,2.473292 3.025765,1.287708 1.50778,-1.185583 -0.320581,-3.406118 -0.370068,-3.488076"
     id="path5286"
     sodipodi:nodetypes="czc" /><path
     style="fill:#cf57f2;fill-opacity:1;stroke:#9441e2;stroke-width:0.725275px;stroke-linecap:round;stroke-linejoin:miter;stroke-opacity:1"
     d="m 80.148552,62.253372 c 0,0 1.517986,2.473292 3.025766,1.287708 1.507779,-1.185583 -0.320582,-3.406118 -0.370068,-3.488076"
     id="path5288"
     sodipodi:nodetypes="czc" /><ellipse
     style="opacity:1;fill:url(#linearGradient6479);fill-opacity:1;stroke-width:0;stroke-linecap:round;stroke-linejoin:round"
     id="ellipse6477"
     cx="47.033558"
     cy="56.376209"
     rx="3.4405935"
     ry="3.5768702" /><path
     id="path6689"
     style="fill:url(#linearGradient6865);fill-opacity:1;stroke:none;stroke-width:0;stroke-linecap:round;stroke-linejoin:round;stroke-opacity:1"
     d="m 94.235286,12.313177 0.0011,0.01154 c -2.471428,0.146879 -5.267548,2.286797 -7.074003,5.413853 -2.453763,4.25041 -2.313281,8.925284 0.31377,10.441526 2.626859,1.51617 6.745304,-0.699973 9.199038,-4.950019 2.943142,-5.812292 6.804359,-1.488887 7.680549,1e-6 2.45397,4.250809 6.57322,6.467131 9.2001,4.950019 2.62644,-1.516832 2.76645,-6.191525 0.31272,-10.441526 -1.8447,-3.188297 -4.71277,-5.340911 -7.21045,-5.411754 v -0.01364 z"
     sodipodi:nodetypes="ccccccccccc" /><path
     id="rect6748"
     style="fill:url(#linearGradient6873);fill-opacity:1;stroke-width:0;stroke-linecap:round;stroke-linejoin:round"
     d="m 98.896125,12.443253 5.332685,2.572726 -5.332685,2.572726 z"
     sodipodi:nodetypes="cccc" /><circle
     style="fill:#bc6766;fill-opacity:1;stroke:none;stroke-width:0;stroke-linecap:round;stroke-linejoin:round;stroke-opacity:1"
     id="path6855"
     cx="94.435455"
     cy="19.586966"
     r="2.0951924" /><circle
     style="fill:#bc6766;fill-opacity:1;stroke:none;stroke-width:0;stroke-linecap:round;stroke-linejoin:round;stroke-opacity:1"
     id="circle6857"
     cx="107.33047"
     cy="19.586966"
     r="2.0951924" /><circle
     style="fill:#955857;fill-opacity:1;stroke:none;stroke-width:0;stroke-linecap:round;stroke-linejoin:round;stroke-opacity:1"
     id="circle8539"
     cx="107.33047"
     cy="19.586966"
     r="1.5057126" /><circle
     style="fill:#955857;fill-opacity:1;stroke:none;stroke-width:0;stroke-linecap:round;stroke-linejoin:round;stroke-opacity:1"
     id="circle8541"
     cx="94.435455"
     cy="19.586966"
     r="1.5057126" /></svg>
