<svg id="er3K9QaRVnI1" xmlns="http://www.w3.org/2000/svg" xmlns:xlink="http://www.w3.org/1999/xlink" viewBox="0 0 117.92488 95.843566" shape-rendering="geometricPrecision" text-rendering="geometricPrecision"><defs><linearGradient id="er3K9QaRVnI3-fill" x1="89.890808" y1="173.61624" x2="113.84449" y2="198.58946" spreadMethod="pad" gradientUnits="userSpaceOnUse" gradientTransform="translate(0 0)"><stop id="er3K9QaRVnI3-fill-0" offset="0%" stop-color="#ff5b58"/><stop id="er3K9QaRVnI3-fill-1" offset="100%" stop-color="#fff"/></linearGradient><linearGradient id="er3K9QaRVnI4-fill" x1="64.988376" y1="170.29025" x2="51.290698" y2="207.52393" spreadMethod="pad" gradientUnits="userSpaceOnUse" gradientTransform="translate(0 0)"><stop id="er3K9QaRVnI4-fill-0" offset="0%" stop-color="#ff5b58"/><stop id="er3K9QaRVnI4-fill-1" offset="100%" stop-color="#fff"/></linearGradient><linearGradient id="er3K9QaRVnI6-fill" x1="-3.548613" y1="4.32906" x2="5.482697" y2="-6.75528" spreadMethod="pad" gradientUnits="userSpaceOnUse" gradientTransform="translate(0 0)"><stop id="er3K9QaRVnI6-fill-0" offset="0%" stop-color="#001e1e"/><stop id="er3K9QaRVnI6-fill-1" offset="100%" stop-color="#0ff"/></linearGradient><linearGradient id="er3K9QaRVnI7-fill" x1="136.425623" y1="153.2327" x2="113.728463" y2="125.69806" spreadMethod="pad" gradientUnits="userSpaceOnUse" gradientTransform="translate(0 0)"><stop id="er3K9QaRVnI7-fill-0" offset="0%" stop-color="#ff5b58"/><stop id="er3K9QaRVnI7-fill-1" offset="100%" stop-color="#fff"/></linearGradient><linearGradient id="er3K9QaRVnI8-fill" x1="-3.736403" y1="5.80075" x2="4.822897" y2="-8.14862" spreadMethod="pad" gradientUnits="userSpaceOnUse" gradientTransform="translate(0 0)"><stop id="er3K9QaRVnI8-fill-0" offset="0%" stop-color="#001e1e"/><stop id="er3K9QaRVnI8-fill-1" offset="100%" stop-color="#0ff"/></linearGradient><linearGradient id="er3K9QaRVnI10-fill" x1="35.080762" y1="147.93233" x2="58.470397" y2="127.48666" spreadMethod="pad" gradientUnits="userSpaceOnUse" gradientTransform="translate(0 0)"><stop id="er3K9QaRVnI10-fill-0" offset="0%" stop-color="#ff5b58"/><stop id="er3K9QaRVnI10-fill-1" offset="100%" stop-color="#fff"/></linearGradient><linearGradient id="er3K9QaRVnI11-fill" x1="45.660477" y1="116.41748" x2="93.199089" y2="116.41748" spreadMethod="pad" gradientUnits="userSpaceOnUse" gradientTransform="translate(0 0)"><stop id="er3K9QaRVnI11-fill-0" offset="0%" stop-color="#68a4c1"/><stop id="er3K9QaRVnI11-fill-1" offset="100%" stop-color="#c3ffd2"/></linearGradient><linearGradient id="er3K9QaRVnI12-fill" x1="132.84064" y1="2.308978" x2="130.51938" y2="12.332113" spreadMethod="pad" gradientUnits="userSpaceOnUse" gradientTransform="translate(0 0)"><stop id="er3K9QaRVnI12-fill-0" offset="0%" stop-color="#b701c2"/><stop id="er3K9QaRVnI12-fill-1" offset="100%" stop-color="#312b63"/></linearGradient><linearGradient id="er3K9QaRVnI13-fill" x1="135.4727" y1="12.868733" x2="133.51712" y2="8.236586" spreadMethod="pad" gradientUnits="userSpaceOnUse" gradientTransform="translate(0 0)"><stop id="er3K9QaRVnI13-fill-0" offset="0%" stop-color="#003e5c"/><stop id="er3K9QaRVnI13-fill-1" offset="100%" stop-color="#9ce6ae"/></linearGradient><linearGradient id="er3K9QaRVnI14-fill" x1="2.6317" y1="-4.008472" x2="-0.68831" y2="7.411791" spreadMethod="pad" gradientUnits="userSpaceOnUse" gradientTransform="translate(0 0)"><stop id="er3K9QaRVnI14-fill-0" offset="0%" stop-color="#b701c2"/><stop id="er3K9QaRVnI14-fill-1" offset="100%" stop-color="#312b63"/></linearGradient><linearGradient id="er3K9QaRVnI16-fill" x1="46.511074" y1="167.41528" x2="120.02266" y2="121.65142" spreadMethod="pad" gradientUnits="userSpaceOnUse" gradientTransform="translate(0 0)"><stop id="er3K9QaRVnI16-fill-0" offset="0%" stop-color="#68a4c1"/><stop id="er3K9QaRVnI16-fill-1" offset="100%" stop-color="#c3ffd2"/></linearGradient><linearGradient id="er3K9QaRVnI17-fill" x1="68.294093" y1="156.395199" x2="98.328208" y2="140.155029" spreadMethod="pad" gradientUnits="userSpaceOnUse" gradientTransform="translate(0 0)"><stop id="er3K9QaRVnI17-fill-0" offset="0%" stop-color="#003e5c"/><stop id="er3K9QaRVnI17-fill-1" offset="100%" stop-color="#9ce6ae"/></linearGradient><linearGradient id="er3K9QaRVnI18-fill" x1="-4.767278" y1="7.402729" x2="6.320956" y2="-3.265271" spreadMethod="pad" gradientUnits="userSpaceOnUse" gradientTransform="translate(0 0)"><stop id="er3K9QaRVnI18-fill-0" offset="0%" stop-color="rgba(157,11,11,0.990979)"/><stop id="er3K9QaRVnI18-fill-1" offset="100%" stop-color="rgba(255,0,27,0)"/></linearGradient><linearGradient id="er3K9QaRVnI19-fill" x1="-4.945272" y1="5.157459" x2="3.475178" y2="-2.391361" spreadMethod="pad" gradientUnits="userSpaceOnUse" gradientTransform="translate(0 0)"><stop id="er3K9QaRVnI19-fill-0" offset="0%" stop-color="rgba(157,11,11,0.990979)"/><stop id="er3K9QaRVnI19-fill-1" offset="100%" stop-color="rgba(255,0,27,0)"/></linearGradient><linearGradient id="er3K9QaRVnI21-fill" x1="-1.891414" y1="3.464418" x2="6.227582" y2="-10.02398" spreadMethod="pad" gradientUnits="userSpaceOnUse" gradientTransform="translate(0 0)"><stop id="er3K9QaRVnI21-fill-0" offset="0%" stop-color="#000110"/><stop id="er3K9QaRVnI21-fill-1" offset="100%" stop-color="rgba(0,15,100,0)"/></linearGradient><linearGradient id="er3K9QaRVnI23-stroke" x1="73.528246" y1="132.145199" x2="61.643366" y2="117.999429" spreadMethod="pad" gradientUnits="userSpaceOnUse" gradientTransform="translate(0 0)"><stop id="er3K9QaRVnI23-stroke-0" offset="0%" stop-color="#000110"/><stop id="er3K9QaRVnI23-stroke-1" offset="100%" stop-color="rgba(0,15,100,0)"/></linearGradient><linearGradient id="er3K9QaRVnI25-fill" x1="-1.891415" y1="3.464418" x2="6.227581" y2="-10.02398" spreadMethod="pad" gradientUnits="userSpaceOnUse" gradientTransform="translate(0 0)"><stop id="er3K9QaRVnI25-fill-0" offset="0%" stop-color="#000110"/><stop id="er3K9QaRVnI25-fill-1" offset="100%" stop-color="rgba(0,15,100,0)"/></linearGradient><linearGradient id="er3K9QaRVnI27-stroke" x1="83.48511" y1="120.241547" x2="84.344031" y2="138.697317" spreadMethod="pad" gradientUnits="userSpaceOnUse" gradientTransform="translate(0 0)"><stop id="er3K9QaRVnI27-stroke-0" offset="0%" stop-color="#000110"/><stop id="er3K9QaRVnI27-stroke-1" offset="100%" stop-color="rgba(0,15,100,0)"/></linearGradient></defs><g transform="translate(-20.015188-98.061821)"><path d="M93.45692,162.14606l5.534752,27.11103c4.528078-.48928,8.891638-.50839,8.087878,4.6483h-13.70769v-4.1305L83.3787,168.7839l10.07822-6.63784Z" transform="translate(10 0)" fill="url(#er3K9QaRVnI3-fill)" stroke-width="3.165" stroke-linecap="round" stroke-linejoin="round"/><path d="M61.602886,162.14606c0,0-7.750349,11.55643-7.671886,16.5649s5.291667,10.54613,5.291667,10.54613c-4.528077-.48928-8.891638-.50839-8.087879,4.6483h14.766024l-1.058333-4.1305c0,0-2.977138-6.77328-1.969486-10.77218s8.613847-10.77218,8.613847-10.77218Z" transform="translate(10 0)" fill="url(#er3K9QaRVnI4-fill)" stroke-width="3.165" stroke-linecap="round" stroke-linejoin="round"/><g id="er3K9QaRVnI5" transform="matrix(.992109 0.12538 0.12538-.992109-17.617394 267.575081)"><circle r="5.59752" transform="matrix(-1 0 0 1 127.335 123.328)" fill="url(#er3K9QaRVnI6-fill)" stroke-width="3.165" stroke-linecap="round" stroke-linejoin="round"/><path d="M125.17934,122.9826c2.6934-2.6934,8.55774-1.45455,8.55771,1.54139-3.95508,4.91158,1.28663,11.39698.92217,16.16122-.46917,3.97818-10.39095,6.04784-19.79926,9.29625-3.74016.00004-6.77219-2.917-6.7722-6.51537s3.03205-6.5154,6.7722-6.51536c1.09877.002,2.18065.26033,3.15227.75396.71628-1.09558,1.81929-2.02259,4.21374-1.93005s3.39139,1.84973,5.64824,2.56068c-2.48235-2.39692,1.35515-4.60533-.42845-7.0845-4.58579-2.91659-4.05962-5.16232-2.26642-8.26822Z" fill="url(#er3K9QaRVnI7-fill)" stroke-width="3.165" stroke-linecap="round" stroke-linejoin="round"/><circle r="5.59752" transform="matrix(-1 0 0 1 132.818 127.412)" fill="url(#er3K9QaRVnI8-fill)" stroke-width="3.165" stroke-linecap="round" stroke-linejoin="round"/></g><g id="er3K9QaRVnI9" transform="matrix(.930719-.365736 0.365736 0.930719-56.461563 32.683294)"><path d="M44.595036,122.9826c-2.693399-2.6934-8.557737-1.45455-8.557713,1.54139c3.955087,4.91158-1.286622,11.39698-.922168,16.16122.46917,3.97818,10.390948,6.04784,19.79925,9.29625c3.740157.00004,6.772182-2.917,6.772196-6.51537s-3.032043-6.5154-6.772196-6.51536c-1.09877.002-2.180643.26033-3.152263.75396-.716289-1.09558-1.819291-2.02259-4.213741-1.93005s-3.39139,1.84973-5.648236,2.56068c2.482347-2.39692-1.355148-4.60533.428445-7.0845c4.585791-2.91659,4.059618-5.16232,2.266426-8.26822Z" fill="url(#er3K9QaRVnI10-fill)" stroke-width="3.165" stroke-linecap="round" stroke-linejoin="round"/><path d="M93.199092,105.75115l-14.107416,9.12813-31.119608,12.20454-2.311593-5.75668l31.036024-12.41269Z" fill="url(#er3K9QaRVnI11-fill)" stroke-width="0" stroke-linecap="round" stroke-linejoin="round"/><path d="M126.41014,2.725453c-.40595.334748-.66384.842013-.66384,1.411658c0,1.012702.81506,1.82777,1.82776,1.82777l1.24808.000011c.51134-.609357,1.21559-1.232688,1.92069-1.521006c1.30196-.166896,2.68084-.339611,4.15041.275385.33113.215978,1.006.762822,1.4148,1.307863l1.79906-.062266c1.0127,0,1.82777-.815061,1.82777-1.827763s-.81538-1.828177-1.82808-1.828177l-10.53231.000101c-.44306,0-.8486.156064-1.16434.416424Z" transform="matrix(.37263 0.92798-.92798 0.37263 0 0)" fill="url(#er3K9QaRVnI12-fill)" stroke-width="0" stroke-linecap="round" stroke-linejoin="round"/><path d="M135.13303,5.435352c.161713.352803.275919.725496.33963,1.10833l.00007-1.108209Zm-4.92481,6.119673l.00019,1.313615l5.26429.000093v-4.866808c-.181712,1.07637-.757998,2.046402-1.61638,2.72077-1.030935.807859-2.36879,1.113097-3.6481.83233Z" transform="matrix(.37263 0.92798-.92798 0.37263 0 0)" fill="url(#er3K9QaRVnI13-fill)" stroke-width="0" stroke-linecap="round" stroke-linejoin="round"/><circle r="4.17351" transform="matrix(.37263 0.92798-.92798 0.37263 36.09698 128.655986)" fill="url(#er3K9QaRVnI14-fill)" stroke-width="0" stroke-linecap="round" stroke-linejoin="round"/><path d="M-31.757368,133.80997c.535411-.5096.951082.4703.846987.88989-.282093,1.13704-1.751076,1.28466-2.626766.80408-1.566402-.85965-1.699653-2.99479-.761181-4.36364c1.377245-2.00885,4.25555-2.12743,6.100517-.71828c2.45905,1.87818,2.560685,5.52239.675376,7.83739-2.372468,2.9132-6.792125,2.99678-9.574269.63248-3.369548-2.86349-3.434519-8.0635-.589571-11.31115c3.352674-3.82724,9.335892-3.87329,13.048021-.54667c4.2858,3.84072,4.312756,10.60897.503766,14.7849-4.328017,4.74496-11.882516,4.7527-16.521772.46086-5.204545-4.81479-5.192997-13.15641-.417961-18.25864c2.162484-2.31067,5.116725-3.80543,8.250966-4.22013" transform="matrix(.132292 0.229136 0.229136-.132292 9.968551 153.852936)" fill="#570060" fill-rule="evenodd" stroke-width="0.264583"/></g><path d="M83.519726,115.21872c-2.334051.043908-4.365794,1.039918-5.5047,2.69854-1.747214-.927935-3.971289-1.098299-6.112122-.46819-2.919058.863657-5.22673,3.075252-5.914639,5.66839-.550155-.773525-1.286647-1.206488-2.053442-1.20716-.782505-.000039-1.532972.450088-2.086305,1.251358s-.864205,1.888048-.864229,3.021252c.000082.092751.00225.185473.0065.27802-5.161419.989486-8.764906,4.428032-8.765028,8.36383.000537,1.932712.87891,3.809505,2.494733,5.33042-4.921971,1.111122-8.283598,4.464268-8.283958,8.26306.000275,2.803672,1.843457,5.433,4.944075,7.0528-.000192.012566-.000348.025133-.000468.0377.000222,3.665884,3.029187,6.637503,6.765405,6.63732c1.247036-.001265,2.46945-.340702,3.532218-.98082-.049647.324673-.074676.652513-.07488.98082-.00007,3.665907,3.028694,6.637769,6.764936,6.63784.983465-.000891,1.954907-.212161,2.846646-.61909c1.040859,1.180409,2.586712,1.934472,4.357244,2.12545c1.27294,2.967808,5.005178,4.353009,8.746778,3.24632.1356-.044807.270269-.092711.403856-.14366.133587.050949.268256.098853.403856.14366c3.7416,1.106689,7.473838-.278512,8.746778-3.24632c1.770532-.190978,3.316385-.945041,4.357243-2.12545.891736.406928,1.863175.618198,2.846637.61909c1.794209-.000031,3.51492-.69939,4.783594-1.944227s1.98139-2.93318,1.981356-4.693613c-.000211-.328308-.025246-.656147-.0749-.98082c1.062766.640116,2.285177.979554,3.53221.98082c3.73622.000185,6.765188-2.971434,6.76541-6.63732-.00012-.012567-.000277-.025134-.00047-.0377c3.100616-1.619801,4.943796-4.249128,4.94407-7.0528-.007368-3.671002-3.15645-6.937916-7.85295-8.14679-.085636-.099546-.175243-.195737-.26861-.28835c1.509311-1.489401,2.327273-3.298452,2.33234-5.15834-.000121-3.935797-3.603604-7.374342-8.76502-8.36383.004417-.092539.006751-.185261.007-.27802-.000024-1.133206-.310897-2.219984-.864231-3.021255s-1.303803-1.251397-2.086309-1.251355c-.76679.000677-1.503278.433639-2.05343,1.20716-.687909-2.593139-2.995582-4.804734-5.91464-5.66839-2.140834-.630109-4.364908-.459745-6.112123.46819-1.138906-1.658622-3.170649-2.654632-5.5047-2.69854-.398157-.003214-.800295.021329-1.202675.0734-.40238-.052071-.804519-.076614-1.202676-.0734Z" fill="url(#er3K9QaRVnI16-fill)" stroke-width="3.19522" stroke-linecap="round" stroke-linejoin="round"/><path d="M70.008103,148.28955c1.138336,3.654335,4.5208,6.143813,8.348328,6.14433c3.827528-.000517,7.209992-2.489995,8.348328-6.14433Z" fill="url(#er3K9QaRVnI17-fill)" stroke-width="3.165" stroke-linecap="round" stroke-linejoin="round"/><circle r="3.80614" transform="translate(63.5606 144.483)" fill="url(#er3K9QaRVnI18-fill)" stroke-width="3.165" stroke-linecap="round" stroke-linejoin="round"/><circle r="3.80614" transform="translate(93.3787 144.483)" fill="url(#er3K9QaRVnI19-fill)" stroke-width="3.165" stroke-linecap="round" stroke-linejoin="round"/><g id="er3K9QaRVnI20" transform="translate(.000001 0)"><ellipse rx="2.64134" ry="4.96266" transform="translate(85.8831 134.97)" fill="url(#er3K9QaRVnI21-fill)" stroke-width="4.42181" stroke-linecap="round" stroke-linejoin="round"/><ellipse rx="0.896927" ry="1.52749" transform="translate(87.3383 133.538)" fill="#e6e6e6" stroke-width="6.63568" stroke-linecap="round" stroke-linejoin="round"/></g><path d="M72.649444,125.97131c0,0-5.440537-2.24417-7.575629,5.7241" fill="none" stroke="url(#er3K9QaRVnI23-stroke)" stroke-width="1.465" stroke-linecap="round" stroke-linejoin="round"/><g id="er3K9QaRVnI24" transform="translate(.000001 0)"><ellipse rx="2.64134" ry="4.96266" transform="translate(70.0081 134.97)" fill="url(#er3K9QaRVnI25-fill)" stroke-width="4.42181" stroke-linecap="round" stroke-linejoin="round"/><ellipse rx="0.896927" ry="1.52749" transform="translate(71.4633 133.538)" fill="#e6e6e6" stroke-width="6.63568" stroke-linecap="round" stroke-linejoin="round"/></g><path d="M80.688149,129.55936c0,0,2.709452,1.2079,9.242822-3.82868" fill="none" stroke="url(#er3K9QaRVnI27-stroke)" stroke-width="1.465" stroke-linecap="round" stroke-linejoin="round"/></g>
<script><![CDATA[
(function(s,i,u,o,c,w,d,t,n,x,e,p,a,b){w[o]=w[o]||{};w[o][s]=w[o][s]||[];w[o][s].push(i);e=d.createElementNS(n,t);e.async=true;e.setAttributeNS(x,'href',[u,s,'.','j','s','?','v','=',c].join(''));e.setAttributeNS(null,'src',[u,s,'.','j','s','?','v','=',c].join(''));p=d.getElementsByTagName(t)[0];p.parentNode.insertBefore(e,p);})('5c7f360c',{"root":"er3K9QaRVnI1","version":"2022-05-04","animations":[{"elements":{"er3K9QaRVnI5":{"transform":{"data":{"o":{"x":107.844131,"y":136.902324,"type":"corner"},"s":{"x":-1,"y":1},"t":{"x":-108.087759,"y":-145.371937}},"keys":{"r":[{"t":0,"v":-172.79731},{"t":690,"v":-195.721389},{"t":2100,"v":-172.79731}]}}},"er3K9QaRVnI9":{"transform":{"data":{"o":{"x":72.649444,"y":141.281905,"type":"corner"},"t":{"x":-80.447574,"y":-148.295308}},"keys":{"r":[{"t":0,"v":-21.452894},{"t":790,"v":-37.867104},{"t":1500,"v":-21.452894},{"t":2100,"v":-21.452894}]}}},"er3K9QaRVnI20":{"transform":{"data":{"o":{"x":85.883103,"y":134.970001,"type":"corner"},"t":{"x":-85.883102,"y":-134.970001}},"keys":{"s":[{"t":0,"v":{"x":1,"y":1}},{"t":400,"v":{"x":1,"y":-0.019241}},{"t":1000,"v":{"x":1,"y":1},"e":[0.42,0,0.58,1]}]}}},"er3K9QaRVnI24":{"transform":{"data":{"o":{"x":70.008103,"y":134.970001,"type":"corner"},"t":{"x":-70.008102,"y":-134.970001}},"keys":{"s":[{"t":10,"v":{"x":1,"y":1}},{"t":400,"v":{"x":1,"y":-0.019241}},{"t":1000,"v":{"x":1,"y":1}},{"t":1900,"v":{"x":1,"y":1}}]}}}},"s":"MXDA1ZGEwNDc4OTlhOTWc4Njk5OGU5NDkzNDcN1Zko1NzU2NTU1NTUxATDQ3ODk4ZTk3OGE4OTDk5OGU5NDkzNDc1ZjAU2NTFZNDc4ZTk5OGFFIOTc4Njk5TDhlOTRYROTM5ODQ3NWY1NTUxNPDc4YjhlOTE5MTQ3NWDZHNTY1MTQ3ODZHOTEW5OThhOTc5M09UODY5EOVY4YTQ3NWY4Yjg2OPTE5ODhhNTE0N1I5ODNk1OGE4YTg5NDc1ZjUX2NTE0NzhiOTU5ODQ3KNWY1NjU1NTVhMlc/"}],"options":"MPDAxMDg4MmY4MDgxNmPU3ZjgxMmY0N0syZjcS5N2M2ZTcxMmY4YQ|"},'https://cdn.svgator.com/ply/','__SVGATOR_PLAYER__','2022-05-04',window,document,'script','http://www.w3.org/2000/svg','http://www.w3.org/1999/xlink')
]]></script>
</svg>
