<?xml version="1.0" encoding="UTF-8" standalone="no"?>
<!-- Created with Inkscape (http://www.inkscape.org/) -->

<svg
   width="99.3713mm"
   height="100.88943mm"
   viewBox="0 0 99.3713 100.88943"
   version="1.1"
   id="svg5"
   sodipodi:docname="bossLock.svg"
   inkscape:version="1.2 (dc2aedaf03, 2022-05-15)"
   xmlns:inkscape="http://www.inkscape.org/namespaces/inkscape"
   xmlns:sodipodi="http://sodipodi.sourceforge.net/DTD/sodipodi-0.dtd"
   xmlns:xlink="http://www.w3.org/1999/xlink"
   xmlns="http://www.w3.org/2000/svg"
   xmlns:svg="http://www.w3.org/2000/svg">
  <sodipodi:namedview
     id="namedview7"
     pagecolor="#505050"
     bordercolor="#ffffff"
     borderopacity="1"
     inkscape:showpageshadow="0"
     inkscape:pageopacity="0"
     inkscape:pagecheckerboard="1"
     inkscape:deskcolor="#505050"
     inkscape:document-units="mm"
     showgrid="false"
     inkscape:zoom="0.4204826"
     inkscape:cx="231.87642"
     inkscape:cy="409.05378"
     inkscape:window-width="1280"
     inkscape:window-height="944"
     inkscape:window-x="0"
     inkscape:window-y="44"
     inkscape:window-maximized="1"
     inkscape:current-layer="layer1" />
  <defs
     id="defs2">
    <linearGradient
       inkscape:collect="always"
       id="linearGradient8620">
      <stop
         style="stop-color:#010101;stop-opacity:1;"
         offset="0"
         id="stop8616" />
      <stop
         style="stop-color:#222222;stop-opacity:1;"
         offset="1"
         id="stop8618" />
    </linearGradient>
    <linearGradient
       inkscape:collect="always"
       id="linearGradient8556">
      <stop
         style="stop-color:#8bb5ff;stop-opacity:1;"
         offset="0"
         id="stop8552" />
      <stop
         style="stop-color:#c3c3c3;stop-opacity:1;"
         offset="1"
         id="stop8554" />
    </linearGradient>
    <inkscape:path-effect
       effect="spiro"
       id="path-effect8493"
       is_visible="true"
       lpeversion="1" />
    <inkscape:path-effect
       effect="spiro"
       id="path-effect8302"
       is_visible="true"
       lpeversion="1" />
    <inkscape:path-effect
       effect="spiro"
       id="path-effect8298"
       is_visible="true"
       lpeversion="1" />
    <inkscape:path-effect
       effect="spiro"
       id="path-effect8294"
       is_visible="true"
       lpeversion="1" />
    <inkscape:path-effect
       effect="spiro"
       id="path-effect8290"
       is_visible="true"
       lpeversion="1" />
    <inkscape:path-effect
       effect="spiro"
       id="path-effect8286"
       is_visible="true"
       lpeversion="1" />
    <inkscape:path-effect
       effect="spiro"
       id="path-effect8187"
       is_visible="true"
       lpeversion="1" />
    <inkscape:path-effect
       effect="spiro"
       id="path-effect8183"
       is_visible="true"
       lpeversion="1" />
    <inkscape:path-effect
       effect="spiro"
       id="path-effect8179"
       is_visible="true"
       lpeversion="1" />
    <inkscape:path-effect
       effect="spiro"
       id="path-effect8175"
       is_visible="true"
       lpeversion="1" />
    <inkscape:path-effect
       effect="spiro"
       id="path-effect8171"
       is_visible="true"
       lpeversion="1" />
    <inkscape:path-effect
       effect="spiro"
       id="path-effect8137"
       is_visible="true"
       lpeversion="1" />
    <inkscape:path-effect
       effect="spiro"
       id="path-effect8027"
       is_visible="true"
       lpeversion="1" />
    <inkscape:path-effect
       effect="spiro"
       id="path-effect8021"
       is_visible="true"
       lpeversion="1" />
    <inkscape:path-effect
       effect="spiro"
       id="path-effect8015"
       is_visible="true"
       lpeversion="1" />
    <inkscape:path-effect
       effect="spiro"
       id="path-effect8009"
       is_visible="true"
       lpeversion="1" />
    <inkscape:path-effect
       effect="spiro"
       id="path-effect8003"
       is_visible="true"
       lpeversion="1" />
    <inkscape:path-effect
       effect="spiro"
       id="path-effect7999"
       is_visible="true"
       lpeversion="1" />
    <inkscape:path-effect
       effect="spiro"
       id="path-effect6496"
       is_visible="true"
       lpeversion="1" />
    <inkscape:path-effect
       effect="spiro"
       id="path-effect6488"
       is_visible="true"
       lpeversion="1" />
    <inkscape:path-effect
       effect="powerstroke"
       id="path-effect6474"
       is_visible="true"
       lpeversion="1"
       offset_points="0,4.9921382"
       not_jump="false"
       sort_points="true"
       interpolator_type="CubicBezierJohan"
       interpolator_beta="0.2"
       start_linecap_type="zerowidth"
       linejoin_type="extrp_arc"
       miter_limit="4"
       scale_width="1"
       end_linecap_type="zerowidth" />
    <inkscape:path-effect
       effect="spiro"
       id="path-effect6472"
       is_visible="true"
       lpeversion="1" />
    <linearGradient
       inkscape:collect="always"
       id="linearGradient6458">
      <stop
         style="stop-color:#ffc000;stop-opacity:1;"
         offset="0"
         id="stop6454" />
      <stop
         style="stop-color:#ac1a16;stop-opacity:1;"
         offset="1"
         id="stop6456" />
    </linearGradient>
    <inkscape:path-effect
       effect="spiro"
       id="path-effect1072"
       is_visible="true"
       lpeversion="1" />
    <filter
       style="color-interpolation-filters:sRGB"
       inkscape:label="Drop Shadow"
       id="filter6436"
       x="-0.81018609"
       y="-0.93060303"
       width="2.6203723"
       height="2.8612061">
      <feFlood
         flood-opacity="0.243137"
         flood-color="rgb(0,0,0)"
         result="flood"
         id="feFlood6426" />
      <feComposite
         in="flood"
         in2="SourceGraphic"
         operator="out"
         result="composite1"
         id="feComposite6428" />
      <feGaussianBlur
         in="composite1"
         stdDeviation="6.9709"
         result="blur"
         id="feGaussianBlur6430" />
      <feOffset
         dx="0"
         dy="0"
         result="offset"
         id="feOffset6432" />
      <feComposite
         in="offset"
         in2="SourceGraphic"
         operator="atop"
         result="composite2"
         id="feComposite6434" />
    </filter>
    <linearGradient
       inkscape:collect="always"
       xlink:href="#linearGradient6458"
       id="linearGradient8189"
       gradientUnits="userSpaceOnUse"
       gradientTransform="matrix(0.92814249,0,0,0.92814249,65.753371,-84.579167)"
       x1="50.097218"
       y1="194.87204"
       x2="146.71385"
       y2="113.59477" />
    <linearGradient
       inkscape:collect="always"
       xlink:href="#linearGradient6458"
       id="linearGradient8191"
       gradientUnits="userSpaceOnUse"
       x1="56.587917"
       y1="56.969677"
       x2="89.084854"
       y2="56.969677"
       gradientTransform="translate(58.208334)" />
    <linearGradient
       inkscape:collect="always"
       xlink:href="#linearGradient6458"
       id="linearGradient8193"
       gradientUnits="userSpaceOnUse"
       x1="62.053272"
       y1="87.501709"
       x2="123.51911"
       y2="87.501709"
       gradientTransform="translate(58.208334)" />
    <linearGradient
       inkscape:collect="always"
       xlink:href="#linearGradient6458"
       id="linearGradient8195"
       gradientUnits="userSpaceOnUse"
       x1="69.867737"
       y1="21.086378"
       x2="132.69286"
       y2="21.086378"
       gradientTransform="translate(58.208334)" />
    <linearGradient
       inkscape:collect="always"
       xlink:href="#linearGradient6458"
       id="linearGradient8197"
       gradientUnits="userSpaceOnUse"
       x1="112.37905"
       y1="40.623722"
       x2="155.95895"
       y2="40.623722"
       gradientTransform="translate(58.208334)" />
    <linearGradient
       inkscape:collect="always"
       xlink:href="#linearGradient6458"
       id="linearGradient8199"
       gradientUnits="userSpaceOnUse"
       gradientTransform="matrix(-1,0,0,1,268.20833,0)"
       x1="56.587917"
       y1="56.969677"
       x2="89.084854"
       y2="56.969677" />
    <filter
       style="color-interpolation-filters:sRGB"
       inkscape:label="Drop Shadow"
       id="filter8614"
       x="-0.77641131"
       y="-0.7510176"
       width="2.5528226"
       height="2.5020352">
      <feFlood
         flood-opacity="0.415686"
         flood-color="rgb(0,0,0)"
         result="flood"
         id="feFlood8604" />
      <feComposite
         in="flood"
         in2="SourceGraphic"
         operator="in"
         result="composite1"
         id="feComposite8606" />
      <feGaussianBlur
         in="composite1"
         stdDeviation="6.9709"
         result="blur"
         id="feGaussianBlur8608" />
      <feOffset
         dx="0"
         dy="0"
         result="offset"
         id="feOffset8610" />
      <feComposite
         in="SourceGraphic"
         in2="offset"
         operator="over"
         result="composite2"
         id="feComposite8612" />
    </filter>
    <filter
       style="color-interpolation-filters:sRGB"
       inkscape:label="Drop Shadow"
       id="filter8646"
       x="-2.7012623"
       y="-1.7326611"
       width="6.4025246"
       height="4.4653223">
      <feFlood
         flood-opacity="0.415686"
         flood-color="rgb(0,0,0)"
         result="flood"
         id="feFlood8636" />
      <feComposite
         in="flood"
         in2="SourceGraphic"
         operator="out"
         result="composite1"
         id="feComposite8638" />
      <feGaussianBlur
         in="composite1"
         stdDeviation="6.9709"
         result="blur"
         id="feGaussianBlur8640" />
      <feOffset
         dx="0"
         dy="0"
         result="offset"
         id="feOffset8642" />
      <feComposite
         in="offset"
         in2="SourceGraphic"
         operator="atop"
         result="composite2"
         id="feComposite8644" />
    </filter>
    <linearGradient
       inkscape:collect="always"
       xlink:href="#linearGradient8620"
       id="linearGradient8666"
       gradientUnits="userSpaceOnUse"
       gradientTransform="translate(-56.935238,-93.217634)"
       x1="218.32002"
       y1="153.32788"
       x2="224.51347"
       y2="148.5" />
    <linearGradient
       inkscape:collect="always"
       xlink:href="#linearGradient8556"
       id="linearGradient8668"
       gradientUnits="userSpaceOnUse"
       gradientTransform="translate(-56.935238,-93.217634)"
       x1="210.64272"
       y1="159.63832"
       x2="238.60835"
       y2="141.03976" />
    <linearGradient
       inkscape:collect="always"
       xlink:href="#linearGradient8556"
       id="linearGradient8670"
       gradientUnits="userSpaceOnUse"
       gradientTransform="translate(-56.935238,-93.217634)"
       x1="211.85193"
       y1="142.41927"
       x2="231.02113"
       y2="135.13019" />
  </defs>
  <g
     inkscape:label="Camada 1"
     inkscape:groupmode="layer"
     id="layer1"
     transform="translate(-114.79599,-4.8377254)">
    <g
       id="g8701">
      <path
         style="fill:url(#linearGradient8199);fill-opacity:1;stroke:none;stroke-width:0.264583px;stroke-linecap:butt;stroke-linejoin:miter;stroke-opacity:1"
         d="m 179.12347,82.624482 c 3.31302,3.438051 7.97653,5.538601 12.74676,5.741437 4.77024,0.202836 9.59522,-1.494252 13.18814,-4.638655 3.42415,-2.996705 5.70034,-7.273972 6.27314,-11.788056 -0.9167,3.133014 -3.48307,5.73158 -6.60442,6.687268 -3.12134,0.955688 -6.70264,0.239408 -9.21629,-1.843307 -1.69947,-1.40812 -2.91708,-3.435189 -3.18005,-5.626502 -0.13148,-1.095657 -0.0259,-2.221779 0.32995,-3.266336 0.35588,-1.044558 0.96363,-2.005349 1.77162,-2.756945 0.82998,-0.772047 1.86809,-1.318183 2.97448,-1.56483 1.10638,-0.246647 2.27817,-0.193164 3.35749,0.153242 1.07932,0.346406 2.06336,0.984838 2.81956,1.829281 0.7562,0.844443 1.2826,1.892707 1.50826,3.003562 1.59663,-0.887346 2.88604,-2.315937 3.60566,-3.994857 0.71961,-1.678919 0.86501,-3.597853 0.40658,-5.366033 -0.45843,-1.76818 -1.51786,-3.374743 -2.96256,-4.492532 -1.44471,-1.117789 -3.2658,-1.739936 -5.09244,-1.739748 -2.14203,2.2e-4 -4.18476,0.818825 -6.23746,1.430976 -1.02634,0.306075 -2.07361,0.563625 -3.14179,0.641446 -1.06818,0.07782 -2.16298,-0.02984 -3.15532,-0.432735 -0.86448,-0.350984 -1.63768,-0.924139 -2.22485,-1.649224 -0.58717,-0.725085 -0.98705,-1.600553 -1.15064,-2.519113 -0.16358,-0.91856 -0.0905,-1.878254 0.21022,-2.761468 0.30074,-0.883214 0.82853,-1.688064 1.51869,-2.315915 1.16352,2.106624 2.91542,3.884233 5.00487,5.078317 2.08945,1.194084 4.51031,1.801131 6.91596,1.734227 2.40565,-0.06691 4.78902,-0.807564 6.80888,-2.115933 2.01985,-1.30837 3.67024,-3.180601 4.71488,-5.348637 1.01242,-2.101167 1.4539,-4.474066 1.26493,-6.798755 -0.18897,-2.324689 -1.0079,-4.595131 -2.34638,-6.505198 -1.33849,-1.910067 -3.19304,-3.454798 -5.31361,-4.425915 -2.12057,-0.971117 -4.50165,-1.366098 -6.8222,-1.131686 1.90611,-0.53721 4.017,-0.306912 5.76242,0.628681 1.74543,0.935593 3.10583,2.565998 3.71369,4.450762 0.60786,1.884765 0.45638,4.002774 -0.41352,5.781848 -0.8699,1.779074 -2.44849,3.199281 -4.30929,3.876955 -1.66514,0.606415 -3.54008,0.618013 -5.2126,0.03225 -1.67251,-0.585768 -3.1305,-1.76467 -4.05341,-3.277502"
         id="path8157"
         inkscape:transform-center-x="-32.163609"
         inkscape:transform-center-y="3.7196874"
         inkscape:original-d="m 179.12347,82.624482 c 8.64532,0.367703 17.29029,0.735303 25.9349,1.102782 8.6446,0.367482 6.27314,-11.788056 6.27314,-11.788056 0,0 -10.54678,3.229408 -15.82071,4.843961 -5.27393,1.614547 -0.71862,-7.766417 -1.07848,-11.649783 -0.35985,-3.883367 10.65979,3.421255 10.65979,3.421255 0,0 -2.69482,-10.395347 -4.04276,-15.59317 -1.34794,-5.197835 -8.35602,1.093233 -12.53457,1.639687 -4.17854,0.546463 -1.64658,-9.24572 -1.64658,-9.24572 0,0 15.63009,-0.434581 23.44459,-0.652026 7.81452,-0.217457 -13.21726,-18.861554 -13.21726,-18.861554 0,0 3.16922,9.825607 4.7533,14.738246 1.58408,4.912632 -6.17698,-2.163401 -9.26601,-3.245257"
         inkscape:path-effect="#path-effect8171" />
      <path
         style="fill:url(#linearGradient8197);fill-opacity:1;stroke:none;stroke-width:0.264583px;stroke-linecap:butt;stroke-linejoin:miter;stroke-opacity:1"
         d="m 170.58738,20.666212 c 2.25991,-4.205844 6.18167,-7.489199 10.71934,-8.974401 4.53768,-1.485202 9.64182,-1.156065 13.95116,0.899632 4.10693,1.959137 7.45494,5.46155 9.22705,9.652573 -1.72975,-2.768408 -4.90319,-4.576191 -8.16668,-4.652231 -3.26348,-0.07604 -6.51768,1.581976 -8.37449,4.266816 -1.25539,1.815216 -1.8795,4.096021 -1.54011,6.276806 0.16969,1.090393 0.57582,2.146021 1.2009,3.05543 0.62508,0.90941 1.47,1.670066 2.45113,2.175171 1.00783,0.518849 2.15495,0.763923 3.28681,0.702203 1.13187,-0.06172 2.24554,-0.430074 3.19097,-1.055435 0.94544,-0.62536 1.72019,-1.506105 2.21987,-2.523573 0.49968,-1.017469 0.723,-2.169022 0.63987,-3.299515 1.7771,0.422544 3.40477,1.449245 4.55158,2.871026 1.1468,1.421782 1.80568,3.22991 1.84246,5.05618 0.0368,1.826271 -0.54875,3.659464 -1.63737,5.126272 -1.08862,1.466808 -2.67363,2.558219 -4.43227,3.051981 -2.06229,0.579014 -4.25028,0.343283 -6.39203,0.309009 -1.07088,-0.01714 -2.14877,0.0181 -3.1982,0.232025 -1.04943,0.213926 -2.07433,0.613619 -2.92075,1.269846 -0.73736,0.571673 -1.32677,1.332557 -1.69599,2.189406 -0.36923,0.856848 -0.51747,1.807833 -0.42658,2.736408 0.0909,0.928575 0.42074,1.832761 0.94912,2.601746 0.52837,0.768985 1.25414,1.40113 2.08836,1.818963 0.55052,-2.34277 1.75647,-4.527888 3.44518,-6.242497 1.68872,-1.714609 3.85523,-2.953666 6.18935,-3.539769 2.33413,-0.586102 4.82899,-0.517526 7.12739,0.195911 2.2984,0.713436 4.39358,2.069635 5.98556,3.87442 1.54288,1.749121 2.60957,3.914236 3.05626,6.20342 0.44669,2.289184 0.27222,4.696489 -0.4999,6.897337 -0.77211,2.200848 -2.13987,4.189521 -3.91884,5.697883 -1.77897,1.508363 -3.96454,2.532497 -6.26202,2.934317 1.98036,0.0018 3.95034,-0.790759 5.37775,-2.163478 1.4274,-1.372718 2.29624,-3.31025 2.3718,-5.289172 0.0756,-1.978922 -0.64301,-3.977063 -1.96159,-5.454627 -1.31858,-1.477564 -3.22239,-2.417997 -5.19712,-2.567242 -1.76708,-0.133551 -3.57531,0.362288 -5.02712,1.378498 -1.4518,1.016209 -2.53669,2.545448 -3.01613,4.251482"
         id="path8159"
         inkscape:transform-center-x="-29.169008"
         inkscape:transform-center-y="-12.626264"
         inkscape:original-d="m 170.58738,20.666212 c 8.22381,-2.691791 16.44731,-5.383388 24.6705,-8.074769 8.22317,-2.6913837 9.22705,9.652573 9.22705,9.652573 0,0 -11.02714,-0.257134 -16.54117,-0.385415 -5.51405,-0.128265 1.40827,7.671409 2.11192,11.507407 0.70366,3.835998 9.33752,-6.17632 9.33752,-6.17632 0,0 0.21659,10.736776 0.3244,16.105459 0.10783,5.368683 -8.34033,1.207049 -12.51098,1.81088 -4.17064,0.603809 0.91491,9.346523 0.91491,9.346523 0,0 15.1653,-3.808154 22.74748,-5.711935 7.58218,-1.903774 -7.6245,21.732957 -7.6245,21.732957 0,0 0.39421,-10.316549 0.59084,-15.474519 0.19664,-5.157963 -5.36184,3.753129 -8.04325,5.62998"
         inkscape:path-effect="#path-effect8175" />
      <path
         style="fill:url(#linearGradient8195);fill-opacity:1;stroke:none;stroke-width:0.264583px;stroke-linecap:butt;stroke-linejoin:miter;stroke-opacity:1"
         d="m 133.83381,37.334859 c -3.43805,-3.313021 -5.5386,-7.976525 -5.74144,-12.746764 -0.20284,-4.770238 1.49425,-9.595223 4.63865,-13.18814 2.99671,-3.4241528 7.27397,-5.7003476 11.78806,-6.2731437 -3.13302,0.916702 -5.73158,3.4830736 -6.68727,6.6044177 -0.95569,3.121344 -0.23941,6.702651 1.84331,9.216297 1.40812,1.699472 3.43519,2.91708 5.62651,3.180044 1.09566,0.131481 2.22178,0.02593 3.26634,-0.329947 1.04455,-0.355882 2.00534,-0.96363 2.75694,-1.771626 0.77205,-0.829981 1.31818,-1.868095 1.56483,-2.97448 0.24664,-1.106385 0.19316,-2.278172 -0.15325,-3.357488 -0.3464,-1.079317 -0.98484,-2.063365 -1.82928,-2.819565 -0.84444,-0.7562 -1.89271,-1.282591 -3.00356,-1.508255 0.88735,-1.5966328 2.31594,-2.8860435 3.99486,-3.6056586 1.67892,-0.7196151 3.59785,-0.8650137 5.36603,-0.4065871 1.76819,0.4584266 3.37475,1.5178621 4.49254,2.9625647 1.11779,1.444703 1.73994,3.265797 1.73975,5.092439 -2.2e-4,2.142027 -0.81882,4.184763 -1.43097,6.237457 -0.30608,1.026347 -0.56363,2.073611 -0.64145,3.141793 -0.0778,1.068183 0.0298,2.162977 0.43274,3.155319 0.35098,0.864479 0.92414,1.637681 1.64923,2.224848 0.72508,0.587167 1.60055,0.987047 2.51911,1.150634 0.91856,0.163586 1.87825,0.09053 2.76147,-0.210214 0.88321,-0.300745 1.68806,-0.828537 2.31591,-1.518695 -2.10663,-1.163518 -3.88424,-2.915416 -5.07832,-5.004866 -1.19409,-2.08945 -1.80114,-4.510305 -1.73423,-6.915958 0.0669,-2.405654 0.80756,-4.789028 2.11593,-6.808883 1.30836,-2.019855 3.18059,-3.6702488 5.34863,-4.7148855 2.10117,-1.0124174 4.47407,-1.4539046 6.79876,-1.2649355 2.32469,0.1889691 4.59513,1.0079038 6.5052,2.3463859 1.91006,1.3384822 3.4548,3.1930351 4.42591,5.3136071 0.97112,2.120571 1.3661,4.501654 1.13169,6.822202 0.53721,-1.906107 0.30691,-4.017001 -0.62868,-5.762425 -0.93559,-1.745424 -2.566,-3.105824 -4.45077,-3.7136881 -1.88476,-0.6078639 -4.00277,-0.4563821 -5.78185,0.4135231 -1.77907,0.869905 -3.19928,2.448487 -3.87695,4.309293 -0.60641,1.665137 -0.61801,3.540083 -0.0322,5.212594 0.58577,1.672511 1.76467,3.130505 3.2775,4.053413"
         id="path8161"
         inkscape:transform-center-x="3.7197058"
         inkscape:transform-center-y="-32.163609"
         inkscape:original-d="m 133.83381,37.334859 c -0.36771,-8.645321 -0.73531,-17.29029 -1.10279,-25.934904 -0.36749,-8.6446002 11.78806,-6.2731437 11.78806,-6.2731437 0,0 -3.22941,10.5467887 -4.84396,15.8207147 -1.61454,5.273932 7.76642,0.71862 11.64979,1.078471 3.88337,0.359853 -3.42126,-10.659788 -3.42126,-10.659788 0,0 10.39535,2.694814 15.59318,4.042758 5.19783,1.34794 -1.09323,8.356016 -1.63968,12.534569 -0.54647,4.178542 9.24572,1.646573 9.24572,1.646573 0,0 0.43457,-15.630089 0.65201,-23.4445925 0.21745,-7.8145135 18.86156,13.2172595 18.86156,13.2172595 0,0 -9.82561,-3.169223 -14.73825,-4.753297 -4.91263,-1.584082 2.16341,6.176976 3.24526,9.266007"
         inkscape:path-effect="#path-effect8179" />
      <path
         style="fill:url(#linearGradient8193);fill-opacity:1;stroke:none;stroke-width:0.264583px;stroke-linecap:butt;stroke-linejoin:miter;stroke-opacity:1"
         d="m 180.95768,81.55393 c 1.36416,4.575519 0.89958,9.669117 -1.26984,13.922342 -2.16942,4.253226 -6.02004,7.619728 -10.5249,9.201658 -4.29326,1.50763 -9.13694,1.38594 -13.34908,-0.33538 3.17877,0.74266 6.70351,-0.2139 9.07073,-2.46166 2.36722,-2.247757 3.50486,-5.718288 2.92765,-8.931225 -0.39025,-2.172261 -1.5564,-4.229364 -3.33506,-5.536029 -0.88933,-0.653333 -1.92176,-1.115266 -3.00629,-1.319118 -1.08453,-0.203853 -2.21998,-0.147206 -3.27178,0.186681 -1.08041,0.342972 -2.06649,0.97827 -2.82537,1.820303 -0.75888,0.842033 -1.28861,1.888617 -1.5178,2.998748 -0.2292,1.110131 -0.15727,2.28093 0.20608,3.354659 0.36336,1.07373 1.01721,2.047604 1.87345,2.790415 -1.55785,0.953794 -3.43587,1.3739 -5.25163,1.174769 -1.81575,-0.199131 -3.55809,-1.016276 -4.87219,-2.285033 -1.31411,-1.268757 -2.19192,-2.981331 -2.45467,-4.788976 -0.26275,-1.807645 0.0912,-3.699257 0.98969,-5.28963 1.05365,-1.864965 2.77105,-3.240989 4.31358,-4.72722 0.77126,-0.743116 1.51056,-1.528309 2.10366,-2.420107 0.5931,-0.891799 1.03778,-1.897989 1.17502,-2.960174 0.11955,-0.925322 7.7e-4,-1.880435 -0.34179,-2.748286 -0.34257,-0.867851 -0.90818,-1.646589 -1.62752,-2.240779 -0.71934,-0.594189 -1.59088,-1.002563 -2.50781,-1.175073 -0.91692,-0.172509 -1.87728,-0.108788 -2.76338,0.183356 1.26202,2.049132 1.9482,4.448758 1.96029,6.855311 0.0121,2.406552 -0.64994,4.812952 -1.89131,6.874662 -1.24137,2.061709 -3.05842,3.772664 -5.191,4.887897 -2.13258,1.115233 -4.57441,1.631463 -6.97589,1.47478 -2.32741,-0.151851 -4.61063,-0.934452 -6.54181,-2.242286 -1.93118,-1.307833 -3.50531,-3.137501 -4.51014,-5.242307 -1.00483,-2.104805 -1.43776,-4.479282 -1.24041,-6.803275 0.19736,-2.323993 1.02448,-4.591467 2.36984,-6.496694 -1.40519,1.395453 -2.24281,3.34668 -2.2866,5.326558 -0.0438,1.979879 0.70677,3.966228 2.04889,5.422437 1.34212,1.456209 3.26078,2.365963 5.23765,2.483493 1.97687,0.11753 3.98981,-0.558481 5.49502,-1.845409 1.34693,-1.151604 2.27914,-2.778424 2.59166,-4.522772 0.31252,-1.744348 0.003,-3.593622 -0.86024,-5.141222"
         id="path8163"
         inkscape:transform-center-x="12.213809"
         inkscape:transform-center-y="34.251722"
         inkscape:original-d="m 180.95768,81.55393 c -3.93166,7.708362 -7.86323,15.416367 -11.79474,23.124 -3.93149,7.70763 -13.34908,-0.33538 -13.34908,-0.33538 0,0 7.99883,-7.594899 11.99838,-11.392885 3.99954,-3.797995 -6.40884,-4.445279 -9.61313,-6.668466 -3.20429,-2.22319 -2.26364,10.964125 -2.26364,10.964125 0,0 -7.72596,-7.458886 -11.5888,-11.18887 -3.86286,-3.729985 5.06142,-6.737963 7.59226,-10.107501 2.53084,-3.369523 -7.2405,-5.980782 -7.2405,-5.980782 0,0 -8.06536,13.395465 -12.09791,20.09265 -4.03257,6.69719 -9.92252,-20.784562 -9.92252,-20.784562 0,0 6.99656,7.591753 10.49496,11.387079 3.49839,3.795332 1.15419,-6.442296 1.73142,-9.663994"
         inkscape:path-effect="#path-effect8183" />
      <path
         style="fill:url(#linearGradient8191);fill-opacity:1;stroke:none;stroke-width:0.264583px;stroke-linecap:butt;stroke-linejoin:miter;stroke-opacity:1"
         d="m 147.29317,82.624482 c -3.31302,3.438051 -7.97653,5.538601 -12.74676,5.741437 -4.77024,0.202836 -9.59522,-1.494252 -13.18814,-4.638655 -3.42415,-2.996705 -5.70034,-7.273972 -6.27314,-11.788056 0.9167,3.133014 3.48307,5.73158 6.60442,6.687268 3.12134,0.955688 6.70264,0.239408 9.21629,-1.843307 1.69947,-1.40812 2.91708,-3.435189 3.18005,-5.626502 0.13148,-1.095657 0.0259,-2.221779 -0.32995,-3.266336 -0.35588,-1.044558 -0.96363,-2.005349 -1.77162,-2.756945 -0.82998,-0.772047 -1.86809,-1.318183 -2.97448,-1.56483 -1.10638,-0.246647 -2.27817,-0.193164 -3.35749,0.153242 -1.07932,0.346406 -2.06336,0.984838 -2.81956,1.829281 -0.7562,0.844443 -1.2826,1.892707 -1.50826,3.003562 -1.59663,-0.887348 -2.88604,-2.315939 -3.60565,-3.99486 -0.71962,-1.67892 -0.86501,-3.597854 -0.40658,-5.366034 0.45842,-1.76818 1.51786,-3.374742 2.96256,-4.49253 1.44471,-1.117788 3.2658,-1.739934 5.09244,-1.739746 2.14203,2.21e-4 4.18476,0.818825 6.23745,1.430975 1.02635,0.306075 2.07361,0.563625 3.14179,0.641447 1.06818,0.07782 2.16298,-0.02984 3.15532,-0.432735 0.86448,-0.350984 1.63768,-0.924139 2.22485,-1.649224 0.58717,-0.725084 0.98705,-1.600552 1.15064,-2.519113 0.16358,-0.91856 0.0905,-1.878254 -0.21022,-2.761468 -0.30074,-0.883214 -0.82853,-1.688064 -1.51869,-2.315915 -1.16352,2.106624 -2.91542,3.884232 -5.00487,5.078317 -2.08945,1.194084 -4.51031,1.801131 -6.91596,1.734226 -2.40565,-0.0669 -4.78902,-0.807563 -6.80888,-2.115933 -2.01985,-1.308369 -3.67024,-3.180601 -4.71488,-5.348636 -1.01242,-2.101168 -1.4539,-4.474068 -1.26493,-6.798758 0.18897,-2.32469 1.0079,-4.595132 2.34639,-6.505199 1.33848,-1.910068 3.19303,-3.454799 5.31361,-4.425915 2.12057,-0.971116 4.50165,-1.366095 6.8222,-1.131682 -1.90611,-0.537213 -4.017,-0.306917 -5.76243,0.628674 -1.74542,0.935592 -3.10582,2.565997 -3.71369,4.450763 -0.60787,1.884765 -0.45639,4.002776 0.41352,5.781851 0.8699,1.779075 2.44848,3.199284 4.30929,3.876958 1.66514,0.606414 3.54008,0.618013 5.2126,0.03225 1.67251,-0.585768 3.1305,-1.76467 4.05341,-3.277502"
         id="path8165"
         inkscape:transform-center-x="32.163613"
         inkscape:transform-center-y="3.7196875"
         inkscape:original-d="m 147.29317,82.624482 c -8.64532,0.367703 -17.29029,0.735303 -25.9349,1.102782 -8.6446,0.367482 -6.27314,-11.788056 -6.27314,-11.788056 0,0 10.54679,3.229408 15.82071,4.843961 5.27394,1.614547 0.71863,-7.766417 1.07848,-11.649783 0.35985,-3.883367 -10.65979,3.421255 -10.65979,3.421255 0,0 2.69482,-10.395347 4.04277,-15.59317 1.34794,-5.197835 8.35601,1.093233 12.53456,1.639687 4.17854,0.546463 1.64658,-9.24572 1.64658,-9.24572 0,0 -15.63009,-0.434581 -23.44459,-0.652026 -7.81452,-0.217457 13.21727,-18.861554 13.21727,-18.861554 0,0 -3.16923,9.825607 -4.75331,14.738246 -1.58408,4.912632 6.17698,-2.163401 9.26601,-3.245257"
         inkscape:path-effect="#path-effect8187" />
      <circle
         style="fill:url(#linearGradient8189);fill-opacity:1;stroke-width:2.38204;stroke-linejoin:round"
         id="circle8167"
         cx="163.20828"
         cy="53.249989"
         r="33.408875" />
      <path
         id="path8272"
         style="opacity:0.85;fill:#000000;fill-opacity:1;stroke:none;stroke-width:0.264583px;stroke-linecap:butt;stroke-linejoin:miter;stroke-opacity:1"
         inkscape:transform-center-x="-32.163609"
         inkscape:transform-center-y="3.7196874"
         d="m 177.68002,4.8389811 c -2.04027,-0.028249 -4.0867,0.4205159 -5.92522,1.3063802 -2.16804,1.0446357 -4.04015,2.6951047 -5.34851,4.7149577 -1.30837,2.019853 -2.04925,4.403235 -2.11615,6.808887 -0.0204,0.733887 0.023,1.469372 0.12557,2.196248 a 33.408875,33.408875 0 0 0 -1.20767,-0.02429 33.408875,33.408875 0 0 0 -0.58446,0.0217 c 0.45875,-1.460641 0.87317,-2.9323 0.87333,-4.453991 1.9e-4,-1.826641 -0.62216,-3.647495 -1.73995,-5.092196 -1.11779,-1.4447012 -2.72404,-2.5041838 -4.49223,-2.9626099 -1.76818,-0.4584262 -3.68716,-0.3129209 -5.36608,0.4066935 -1.67892,0.7196144 -3.10776,2.0088335 -3.99511,3.6054644 1.11085,0.225664 2.159,0.752236 3.00344,1.508435 0.84444,0.7562 1.48294,1.740151 1.82934,2.819466 0.34641,1.079315 0.40012,2.251034 0.15348,3.357418 -0.24665,1.106384 -0.79271,2.144516 -1.56476,2.974496 -0.006,0.0062 -0.0118,0.01195 -0.0176,0.01809 a 33.408875,33.408875 0 0 0 -4.49895,2.1115 c -0.50165,0.03987 -1.00728,0.03205 -1.50688,-0.02791 -2.19132,-0.262964 -4.21842,-1.480697 -5.62653,-3.180167 -2.08272,-2.513644 -2.79899,-6.095151 -1.8433,-9.216492 0.95569,-3.1213411 3.55443,-5.6875471 6.68744,-6.6042482 -4.51408,0.5727956 -8.79172,2.8488528 -11.78842,6.2730022 -3.1444,3.592913 -4.84132,8.418109 -4.63848,13.188342 0.0146,0.342467 0.04,0.684354 0.0739,1.025261 -1.575,-0.188407 -3.20841,0.107382 -4.60747,0.857312 -0.12406,0.06649 -0.24584,0.137483 -0.36587,0.21084 1.58487,-0.617368 3.28969,-0.925164 4.99039,-0.902788 0.4725,4.348123 2.49901,8.519189 5.6503,11.555884 l 0.0295,-0.0088 a 33.408875,33.408875 0 0 0 -0.0207,0.03876 l -0.009,-0.02997 c -0.92291,1.512831 -2.38047,2.692069 -4.05298,3.277836 -1.67252,0.585763 -3.54746,0.573857 -5.2126,-0.03256 -1.86081,-0.677673 -3.4394,-2.097693 -4.3093,-3.876766 -0.86991,-1.779073 -1.0218,-3.897313 -0.41393,-5.782076 0.56467,-1.750809 1.77931,-3.28076 3.34812,-4.239534 -0.23394,0.09113 -0.46572,0.187421 -0.69402,0.291971 -2.12058,0.971115 -3.97489,2.516021 -5.31337,4.426087 -1.33849,1.910065 -2.15766,4.180341 -2.34662,6.505029 -0.18897,2.324688 0.25262,4.697386 1.26503,6.798552 1.04464,2.168032 2.69511,4.040659 4.71496,5.349027 2.01986,1.308369 4.40324,2.048733 6.80889,2.115633 0.741,0.02061 1.48316,-0.0229 2.21692,-0.127641 a 33.408875,33.408875 0 0 0 -0.0455,1.209746 33.408875,33.408875 0 0 0 0.0217,0.58446 c -1.46064,-0.458758 -2.93179,-0.872658 -4.45348,-0.872815 -1.82664,-1.88e-4 -3.648,0.621642 -5.09271,1.739429 -1.4447,1.117787 -2.50419,2.724571 -2.96261,4.492749 -0.45843,1.768178 -0.31293,3.687162 0.40669,5.366081 0.71961,1.678919 2.00884,3.107241 3.60547,3.994588 0.22566,-1.110854 0.75223,-2.158992 1.50843,-3.003434 0.7562,-0.844443 1.74015,-1.48294 2.81947,-1.829346 1.07932,-0.346406 2.25104,-0.399609 3.35742,-0.152962 1.10639,0.246646 2.14451,0.792716 2.97449,1.564762 0.006,0.0058 0.0119,0.01225 0.0181,0.01809 a 33.408875,33.408875 0 0 0 2.11201,4.497916 c 0.0399,0.501709 0.0315,1.00774 -0.0284,1.507402 -0.26297,2.191311 -1.4807,4.218411 -3.18017,5.62653 -2.51364,2.082713 -6.09463,2.798985 -9.21597,1.843298 -0.11067,-0.03388 -0.22047,-0.07055 -0.3297,-0.10852 -0.5862,-1.06889 -0.92289,-2.275073 -0.96479,-3.493327 -0.0357,0.248469 -0.0656,0.498115 -0.0868,0.748275 -0.0653,0.768982 -0.0603,1.543048 0.0103,2.311486 -2.48703,-1.211021 -4.4554,-3.485057 -5.23378,-6.145361 0.57279,4.51408 2.84937,8.791209 6.27351,11.787911 0.55924,0.489424 1.14809,0.944084 1.76217,1.361674 0.83438,1.051179 1.82703,1.976961 2.93832,2.729549 1.93118,1.307833 4.21431,2.09039 6.54172,2.242241 2.40148,0.156683 4.84323,-0.359614 6.9758,-1.474846 1.33654,-0.698942 2.5488,-1.631716 3.57343,-2.738334 1.10934,-0.637478 2.15438,-1.385962 3.11144,-2.234489 -0.73054,0.745081 -1.40183,1.535632 -1.91462,2.443262 -0.89848,1.590371 -1.25235,3.481956 -0.9896,5.2896 0.26275,1.807643 1.14052,3.520616 2.45463,4.789371 1.3141,1.268756 3.05631,2.086001 4.87206,2.285132 1.81575,0.199131 3.69402,-0.221329 5.25187,-1.175122 -0.85624,-0.74281 -1.51043,-1.716798 -1.87379,-2.790527 -0.36335,-1.073728 -0.43487,-2.244188 -0.20567,-3.354318 0.22919,-1.110129 0.75886,-2.156751 1.51774,-2.998783 0.75888,-0.842032 1.74474,-1.477589 2.82515,-1.820561 6.8e-4,-2.15e-4 0.001,-3.02e-4 0.002,-5.16e-4 a 33.408875,33.408875 0 0 0 5.00021,0.378271 c 0.44815,0.209986 0.87708,0.462015 1.27589,0.754993 1.77866,1.306664 2.94495,3.363837 3.3352,5.536096 0.57721,3.212934 -0.56077,6.683483 -2.92799,8.931235 -2.36722,2.24776 -5.892,3.20401 -9.07076,2.46135 4.21213,1.72132 9.0558,1.84301 13.34905,0.33538 4.50486,-1.58193 8.35552,-4.948282 10.52494,-9.201504 1.67053,-3.275124 2.32915,-7.048657 1.92133,-10.700122 2.97877,2.150885 6.58817,3.433255 10.26139,3.589445 4.77023,0.202835 9.59491,-1.494077 13.18782,-4.638477 3.42415,-2.996702 5.70072,-7.273831 6.27352,-11.787911 -0.9167,3.133011 -3.48341,5.73176 -6.60476,6.687447 -3.12134,0.955687 -6.70233,0.239415 -9.21598,-1.843298 -1.69946,-1.408119 -2.91719,-3.435219 -3.18016,-5.62653 -0.06,-0.499662 -0.0683,-1.005693 -0.0284,-1.507402 a 33.408875,33.408875 0 0 0 2.11099,-4.497399 c 0.006,-0.0061 0.0126,-0.01255 0.0191,-0.0186 0.82998,-0.772046 1.8681,-1.318116 2.97449,-1.564762 1.10638,-0.246647 2.2781,-0.193444 3.35742,0.152962 1.07932,0.346406 2.06327,0.984903 2.81947,1.829346 0.7562,0.844442 1.28277,1.89258 1.50843,3.003434 1.59663,-0.887345 2.88585,-2.31567 3.60547,-3.994588 0.7196,-1.678918 0.86512,-3.597903 0.40669,-5.366081 -0.2501,-0.964637 -0.68033,-1.880648 -1.25315,-2.69596 0.42896,0.314593 0.82692,0.671541 1.18132,1.068669 1.31858,1.477563 2.03724,3.475527 1.96164,5.454447 -0.0702,1.838629 -0.82638,3.640448 -2.07791,4.98781 0.2008,-0.151138 0.39842,-0.307181 0.59014,-0.469739 1.77897,-1.508361 3.14652,-3.496998 3.91863,-5.697843 0.77211,-2.200846 0.94691,-4.608072 0.50022,-6.897254 -0.44669,-2.289182 -1.51326,-4.45412 -3.05614,-6.203239 -0.58244,-0.660295 -1.23283,-1.25989 -1.93528,-1.790588 0.53273,-0.700839 0.99656,-1.453751 1.37872,-2.246891 1.01242,-2.101165 1.45401,-4.473865 1.26504,-6.798552 -0.18897,-2.324687 -1.00814,-4.594964 -2.34662,-6.505029 -1.33849,-1.910065 -3.19281,-3.454971 -5.31337,-4.426087 -0.22831,-0.10455 -0.46008,-0.200843 -0.69402,-0.291971 1.56879,0.958777 2.78347,2.488746 3.34812,4.239534 0.60786,1.884763 0.45597,4.003004 -0.41393,5.782076 -0.23396,0.478486 -0.52034,0.929651 -0.84853,1.348755 0.33127,-0.940151 0.49809,-1.93851 0.47801,-2.935221 -0.0368,-1.826269 -0.69598,-3.634242 -1.84278,-5.056023 -1.14681,-1.421779 -2.77405,-2.448599 -4.55115,-2.871142 0.0831,1.130492 -0.14059,2.282072 -0.64027,3.29954 -0.49968,1.017467 -1.27406,1.898518 -2.2195,2.523877 -0.94543,0.62536 -2.05915,0.993513 -3.19102,1.055233 -1.13186,0.06172 -2.27931,-0.183434 -3.28714,-0.702283 -0.001,-7.44e-4 -0.003,-0.0018 -0.004,-0.0026 a 33.408875,33.408875 0 0 0 -3.2737,-3.787366 c -0.17068,-0.466686 -0.29774,-0.949783 -0.37414,-1.440738 -0.33939,-2.180783 0.28457,-4.461406 1.53996,-6.27662 0.7133,-1.0314 1.63443,-1.909023 2.68149,-2.597257 -0.003,0.03375 -0.005,0.06756 -0.009,0.101285 0.0107,-0.03785 0.0194,-0.0762 0.0295,-0.114205 1.67438,-1.094876 3.67086,-1.703385 5.67252,-1.656746 3.26349,0.07604 6.43719,1.884024 8.16694,4.652429 -1.77211,-4.191019 -5.12041,-7.693505 -9.22734,-9.652641 -2.10386,-1.003608 -4.39722,-1.594398 -6.72155,-1.76475 C 187.61728,9.421913 186.43329,8.1902695 185.05856,7.2269201 183.14849,5.8884393 180.8777,5.0697789 178.55301,4.88081 178.26243,4.857189 177.97115,4.842988 177.67968,4.838952 Z m 25.54366,21.8425949 c -0.12005,-0.07337 -0.2418,-0.144336 -0.36587,-0.21084 -1.74542,-0.935592 -3.85633,-1.166112 -5.76244,-0.628903 2.07072,-0.209174 4.18931,0.08443 6.12831,0.839743 z m 5.69268,41.327193 c -1.66239,1.251248 -3.62213,2.106451 -5.67201,2.464966 1.98036,0.0018 3.95056,-0.790975 5.37797,-2.163693 0.10119,-0.09732 0.19854,-0.198467 0.29404,-0.301273 z m -88.52121,7.016109 c 0.29594,-2.059812 1.08252,-4.048344 2.28306,-5.748486 -1.40519,1.395451 -2.24289,3.346413 -2.28668,5.326289 -0.003,0.140655 -0.001,0.281669 0.004,0.422197 z M 183.34841,9.5208659 c 0.74221,0.016541 1.48171,0.1379204 2.1885,0.3658691 0.65321,0.210669 1.27469,0.51372 1.84846,0.889868 -2.05877,-0.02744 -4.12146,0.274579 -6.0787,0.91519 -1.93523,0.633411 -3.75774,1.594695 -5.38778,2.814298 0.69213,-1.815452 2.09069,-3.352326 3.83646,-4.205945 1.11192,-0.5436897 2.35604,-0.8068484 3.59306,-0.7792801 z M 147.28446,82.595475 a 33.408875,33.408875 0 0 0 0.0165,0.0088 c -0.004,0.0034 -0.007,0.0069 -0.0109,0.01034 z" />
      <path
         style="color:#000000;fill:url(#linearGradient8670);fill-opacity:1"
         d="m 164.50223,34.623526 c -1.69863,-3e-5 -3.37789,0.45619 -4.84375,1.31446 -1.46586,0.85827 -2.68433,2.09875 -3.51563,3.58007 -0.83129,1.48132 -1.25574,3.16687 -1.2246,4.86524 0.0311,1.69834 0.51731,3.36849 1.40234,4.81836 l 2.70117,-1.64844 c -0.58723,-0.96201 -0.91684,-2.09967 -0.9375,-3.22656 -0.0207,-1.12689 0.26873,-2.27687 0.82031,-3.25977 0.55159,-0.9829 1.38088,-1.82895 2.35352,-2.39844 0.97263,-0.56947 2.11706,-0.87893 3.24414,-0.8789 1.12705,2e-5 2.2696,0.3094 3.24219,0.8789 0.97258,0.5695 1.80391,1.41554 2.35547,2.39844 0.55154,0.98289 0.84099,2.13291 0.82031,3.25977 -0.0207,1.12686 -0.35223,2.26455 -0.93945,3.22656 l 2.70117,1.64844 c 0.88499,-1.44983 1.3712,-3.12003 1.40234,-4.81836 0.0312,-1.69832 -0.39338,-3.38393 -1.22461,-4.86524 -0.83124,-1.4813 -2.04981,-2.72177 -3.51562,-3.58007 -1.46579,-0.8583 -3.14319,-1.31442 -4.8418,-1.31446 z"
         id="path8660" />
      <rect
         style="opacity:1;fill:url(#linearGradient8668);fill-opacity:1;stroke:none;stroke-width:2.43052;stroke-linecap:round;stroke-linejoin:bevel;stroke-dasharray:none;filter:url(#filter8614)"
         id="rect8662"
         width="21.548063"
         height="22.276655"
         x="153.70744"
         y="44.144047"
         ry="2.5299807" />
      <path
         id="path8664"
         style="opacity:1;fill:url(#linearGradient8666);fill-opacity:1;stroke:none;stroke-width:7.05362;stroke-linecap:round;stroke-linejoin:bevel;stroke-dasharray:none;filter:url(#filter8646)"
         d="m 164.48175,50.454512 a 3.0965012,3.0965012 0 0 0 -3.097,3.09646 3.0965012,3.0965012 0 0 0 1.06387,2.33321 l -0.91655,4.22609 h 5.89881 l -0.91654,-4.22609 a 3.0965012,3.0965012 0 0 0 1.06387,-2.33321 3.0965012,3.0965012 0 0 0 -3.09646,-3.09646 z" />
    </g>
  </g>
</svg>
