<?xml version="1.0" encoding="UTF-8" standalone="no"?>
<!-- Created with Inkscape (http://www.inkscape.org/) -->

<svg
   width="99.371048mm"
   height="100.88926mm"
   viewBox="0 0 99.371048 100.88926"
   version="1.1"
   id="svg5"
   sodipodi:docname="boss.svg"
   inkscape:version="1.2 (dc2aedaf03, 2022-05-15)"
   xmlns:inkscape="http://www.inkscape.org/namespaces/inkscape"
   xmlns:sodipodi="http://sodipodi.sourceforge.net/DTD/sodipodi-0.dtd"
   xmlns:xlink="http://www.w3.org/1999/xlink"
   xmlns="http://www.w3.org/2000/svg"
   xmlns:svg="http://www.w3.org/2000/svg">
  <sodipodi:namedview
     id="namedview7"
     pagecolor="#505050"
     bordercolor="#ffffff"
     borderopacity="1"
     inkscape:showpageshadow="0"
     inkscape:pageopacity="0"
     inkscape:pagecheckerboard="1"
     inkscape:deskcolor="#505050"
     inkscape:document-units="mm"
     showgrid="false"
     inkscape:zoom="0.4204826"
     inkscape:cx="153.39517"
     inkscape:cy="378.13693"
     inkscape:window-width="1280"
     inkscape:window-height="944"
     inkscape:window-x="0"
     inkscape:window-y="44"
     inkscape:window-maximized="1"
     inkscape:current-layer="layer1" />
  <defs
     id="defs2">
    <inkscape:path-effect
       effect="spiro"
       id="path-effect8493"
       is_visible="true"
       lpeversion="1" />
    <inkscape:path-effect
       effect="spiro"
       id="path-effect8302"
       is_visible="true"
       lpeversion="1" />
    <inkscape:path-effect
       effect="spiro"
       id="path-effect8298"
       is_visible="true"
       lpeversion="1" />
    <inkscape:path-effect
       effect="spiro"
       id="path-effect8294"
       is_visible="true"
       lpeversion="1" />
    <inkscape:path-effect
       effect="spiro"
       id="path-effect8290"
       is_visible="true"
       lpeversion="1" />
    <inkscape:path-effect
       effect="spiro"
       id="path-effect8286"
       is_visible="true"
       lpeversion="1" />
    <inkscape:path-effect
       effect="spiro"
       id="path-effect8187"
       is_visible="true"
       lpeversion="1" />
    <inkscape:path-effect
       effect="spiro"
       id="path-effect8183"
       is_visible="true"
       lpeversion="1" />
    <inkscape:path-effect
       effect="spiro"
       id="path-effect8179"
       is_visible="true"
       lpeversion="1" />
    <inkscape:path-effect
       effect="spiro"
       id="path-effect8175"
       is_visible="true"
       lpeversion="1" />
    <inkscape:path-effect
       effect="spiro"
       id="path-effect8171"
       is_visible="true"
       lpeversion="1" />
    <inkscape:path-effect
       effect="spiro"
       id="path-effect8137"
       is_visible="true"
       lpeversion="1" />
    <inkscape:path-effect
       effect="spiro"
       id="path-effect8027"
       is_visible="true"
       lpeversion="1" />
    <inkscape:path-effect
       effect="spiro"
       id="path-effect8021"
       is_visible="true"
       lpeversion="1" />
    <inkscape:path-effect
       effect="spiro"
       id="path-effect8015"
       is_visible="true"
       lpeversion="1" />
    <inkscape:path-effect
       effect="spiro"
       id="path-effect8009"
       is_visible="true"
       lpeversion="1" />
    <inkscape:path-effect
       effect="spiro"
       id="path-effect8003"
       is_visible="true"
       lpeversion="1" />
    <inkscape:path-effect
       effect="spiro"
       id="path-effect7999"
       is_visible="true"
       lpeversion="1" />
    <inkscape:path-effect
       effect="spiro"
       id="path-effect6496"
       is_visible="true"
       lpeversion="1" />
    <inkscape:path-effect
       effect="spiro"
       id="path-effect6488"
       is_visible="true"
       lpeversion="1" />
    <inkscape:path-effect
       effect="powerstroke"
       id="path-effect6474"
       is_visible="true"
       lpeversion="1"
       offset_points="0,4.9921382"
       not_jump="false"
       sort_points="true"
       interpolator_type="CubicBezierJohan"
       interpolator_beta="0.2"
       start_linecap_type="zerowidth"
       linejoin_type="extrp_arc"
       miter_limit="4"
       scale_width="1"
       end_linecap_type="zerowidth" />
    <inkscape:path-effect
       effect="spiro"
       id="path-effect6472"
       is_visible="true"
       lpeversion="1" />
    <linearGradient
       inkscape:collect="always"
       id="linearGradient6458">
      <stop
         style="stop-color:#ffc000;stop-opacity:1;"
         offset="0"
         id="stop6454" />
      <stop
         style="stop-color:#ac1a16;stop-opacity:1;"
         offset="1"
         id="stop6456" />
    </linearGradient>
    <inkscape:path-effect
       effect="spiro"
       id="path-effect1072"
       is_visible="true"
       lpeversion="1" />
    <filter
       style="color-interpolation-filters:sRGB"
       inkscape:label="Drop Shadow"
       id="filter6436"
       x="-0.81018609"
       y="-0.93060303"
       width="2.6203723"
       height="2.8612061">
      <feFlood
         flood-opacity="0.243137"
         flood-color="rgb(0,0,0)"
         result="flood"
         id="feFlood6426" />
      <feComposite
         in="flood"
         in2="SourceGraphic"
         operator="out"
         result="composite1"
         id="feComposite6428" />
      <feGaussianBlur
         in="composite1"
         stdDeviation="6.9709"
         result="blur"
         id="feGaussianBlur6430" />
      <feOffset
         dx="0"
         dy="0"
         result="offset"
         id="feOffset6432" />
      <feComposite
         in="offset"
         in2="SourceGraphic"
         operator="atop"
         result="composite2"
         id="feComposite6434" />
    </filter>
    <linearGradient
       inkscape:collect="always"
       xlink:href="#linearGradient6458"
       id="linearGradient6452"
       gradientUnits="userSpaceOnUse"
       x1="50.097218"
       y1="194.87204"
       x2="146.71385"
       y2="113.59477"
       gradientTransform="matrix(0.92814249,0,0,0.92814249,7.5450363,-84.579167)" />
    <linearGradient
       inkscape:collect="always"
       xlink:href="#linearGradient6458"
       id="linearGradient8035"
       x1="62.053272"
       y1="87.501709"
       x2="123.51911"
       y2="87.501709"
       gradientUnits="userSpaceOnUse" />
    <linearGradient
       inkscape:collect="always"
       xlink:href="#linearGradient6458"
       id="linearGradient8039"
       x1="112.37905"
       y1="40.623722"
       x2="155.95895"
       y2="40.623722"
       gradientUnits="userSpaceOnUse" />
    <linearGradient
       inkscape:collect="always"
       xlink:href="#linearGradient6458"
       id="linearGradient8041"
       x1="69.867737"
       y1="21.086378"
       x2="132.69286"
       y2="21.086378"
       gradientUnits="userSpaceOnUse" />
    <linearGradient
       inkscape:collect="always"
       xlink:href="#linearGradient6458"
       id="linearGradient8043"
       x1="56.587917"
       y1="56.969677"
       x2="89.084854"
       y2="56.969677"
       gradientUnits="userSpaceOnUse" />
    <linearGradient
       inkscape:collect="always"
       xlink:href="#linearGradient6458"
       id="linearGradient8139"
       gradientUnits="userSpaceOnUse"
       x1="56.587917"
       y1="56.969677"
       x2="89.084854"
       y2="56.969677"
       gradientTransform="matrix(-1,0,0,1,210,0)" />
    <filter
       style="color-interpolation-filters:sRGB"
       inkscape:label="Drop Shadow"
       id="filter8614"
       x="-0.77641129"
       y="-0.75101757"
       width="2.5528226"
       height="2.5020351">
      <feFlood
         flood-opacity="0.415686"
         flood-color="rgb(0,0,0)"
         result="flood"
         id="feFlood8604" />
      <feComposite
         in="flood"
         in2="SourceGraphic"
         operator="in"
         result="composite1"
         id="feComposite8606" />
      <feGaussianBlur
         in="composite1"
         stdDeviation="6.9709"
         result="blur"
         id="feGaussianBlur8608" />
      <feOffset
         dx="0"
         dy="0"
         result="offset"
         id="feOffset8610" />
      <feComposite
         in="SourceGraphic"
         in2="offset"
         operator="over"
         result="composite2"
         id="feComposite8612" />
    </filter>
    <filter
       style="color-interpolation-filters:sRGB"
       inkscape:label="Drop Shadow"
       id="filter8646"
       x="-2.7012622"
       y="-1.7326611"
       width="6.4025245"
       height="4.4653225">
      <feFlood
         flood-opacity="0.415686"
         flood-color="rgb(0,0,0)"
         result="flood"
         id="feFlood8636" />
      <feComposite
         in="flood"
         in2="SourceGraphic"
         operator="out"
         result="composite1"
         id="feComposite8638" />
      <feGaussianBlur
         in="composite1"
         stdDeviation="6.9709"
         result="blur"
         id="feGaussianBlur8640" />
      <feOffset
         dx="0"
         dy="0"
         result="offset"
         id="feOffset8642" />
      <feComposite
         in="offset"
         in2="SourceGraphic"
         operator="atop"
         result="composite2"
         id="feComposite8644" />
    </filter>
  </defs>
  <g
     inkscape:label="Camada 1"
     inkscape:groupmode="layer"
     id="layer1"
     transform="translate(-56.587916,-4.8378981)">
    <path
       style="fill:url(#linearGradient8139);fill-opacity:1;stroke:none;stroke-width:0.264583px;stroke-linecap:butt;stroke-linejoin:miter;stroke-opacity:1"
       d="m 120.91514,82.624482 c 3.31302,3.438051 7.97653,5.538601 12.74676,5.741437 4.77024,0.202836 9.59522,-1.494252 13.18814,-4.638655 3.42415,-2.996705 5.70034,-7.273972 6.27314,-11.788056 -0.9167,3.133014 -3.48307,5.73158 -6.60442,6.687268 -3.12134,0.955688 -6.70264,0.239408 -9.21629,-1.843307 -1.69947,-1.40812 -2.91708,-3.435189 -3.18005,-5.626502 -0.13148,-1.095657 -0.0259,-2.221779 0.32995,-3.266336 0.35588,-1.044558 0.96363,-2.005349 1.77162,-2.756945 0.82998,-0.772047 1.86809,-1.318183 2.97448,-1.56483 1.10638,-0.246647 2.27817,-0.193164 3.35749,0.153242 1.07932,0.346406 2.06336,0.984838 2.81956,1.829281 0.7562,0.844443 1.2826,1.892707 1.50826,3.003562 1.59663,-0.887346 2.88604,-2.315937 3.60566,-3.994857 0.71961,-1.678919 0.86501,-3.597853 0.40658,-5.366033 -0.45843,-1.76818 -1.51786,-3.374743 -2.96256,-4.492532 -1.44471,-1.117789 -3.2658,-1.739936 -5.09244,-1.739748 -2.14203,2.2e-4 -4.18476,0.818825 -6.23746,1.430976 -1.02634,0.306075 -2.07361,0.563625 -3.14179,0.641446 -1.06818,0.07782 -2.16298,-0.02984 -3.15532,-0.432735 -0.86448,-0.350984 -1.63768,-0.924139 -2.22485,-1.649224 -0.58717,-0.725085 -0.98705,-1.600553 -1.15064,-2.519113 -0.16358,-0.91856 -0.0905,-1.878254 0.21022,-2.761468 0.30074,-0.883214 0.82853,-1.688064 1.51869,-2.315915 1.16352,2.106624 2.91542,3.884233 5.00487,5.078317 2.08945,1.194084 4.51031,1.801131 6.91596,1.734227 2.40565,-0.06691 4.78902,-0.807564 6.80888,-2.115933 2.01985,-1.30837 3.67024,-3.180601 4.71488,-5.348637 1.01242,-2.101167 1.4539,-4.474066 1.26493,-6.798755 -0.18897,-2.324689 -1.0079,-4.595131 -2.34638,-6.505198 -1.33849,-1.910067 -3.19304,-3.454798 -5.31361,-4.425915 -2.12057,-0.971117 -4.50165,-1.366098 -6.8222,-1.131686 1.90611,-0.53721 4.017,-0.306912 5.76242,0.628681 1.74543,0.935593 3.10583,2.565998 3.71369,4.450762 0.60786,1.884765 0.45638,4.002774 -0.41352,5.781848 -0.8699,1.779074 -2.44849,3.199281 -4.30929,3.876955 -1.66514,0.606415 -3.54008,0.618013 -5.2126,0.03225 -1.67251,-0.585768 -3.1305,-1.76467 -4.05341,-3.277502"
       id="path8133"
       inkscape:path-effect="#path-effect8137"
       inkscape:original-d="m 120.91514,82.624482 c 8.64532,0.367703 17.29029,0.735303 25.9349,1.102782 8.6446,0.367482 6.27314,-11.788056 6.27314,-11.788056 0,0 -10.54678,3.229408 -15.82071,4.843961 -5.27393,1.614547 -0.71862,-7.766417 -1.07848,-11.649783 -0.35985,-3.883367 10.65979,3.421255 10.65979,3.421255 0,0 -2.69482,-10.395347 -4.04276,-15.59317 -1.34794,-5.197835 -8.35602,1.093233 -12.53457,1.639687 -4.17854,0.546463 -1.64658,-9.24572 -1.64658,-9.24572 0,0 15.63009,-0.434581 23.44459,-0.652026 7.81452,-0.217457 -13.21726,-18.861554 -13.21726,-18.861554 0,0 3.16922,9.825607 4.7533,14.738246 1.58408,4.912632 -6.17698,-2.163401 -9.26601,-3.245257"
       inkscape:transform-center-x="-32.163609"
       inkscape:transform-center-y="3.7196874" />
    <path
       style="fill:url(#linearGradient8039);fill-opacity:1;stroke:none;stroke-width:0.264583px;stroke-linecap:butt;stroke-linejoin:miter;stroke-opacity:1"
       d="m 112.37905,20.666212 c 2.25991,-4.205844 6.18167,-7.489199 10.71934,-8.974401 4.53768,-1.485202 9.64182,-1.156065 13.95116,0.899632 4.10693,1.959137 7.45494,5.46155 9.22705,9.652573 -1.72975,-2.768408 -4.90319,-4.576191 -8.16668,-4.652231 -3.26348,-0.07604 -6.51768,1.581976 -8.37449,4.266816 -1.25539,1.815216 -1.8795,4.096021 -1.54011,6.276806 0.16969,1.090393 0.57582,2.146021 1.2009,3.05543 0.62508,0.90941 1.47,1.670066 2.45113,2.175171 1.00783,0.518849 2.15495,0.763923 3.28681,0.702203 1.13187,-0.06172 2.24554,-0.430074 3.19097,-1.055435 0.94544,-0.62536 1.72019,-1.506105 2.21987,-2.523573 0.49968,-1.017469 0.723,-2.169022 0.63987,-3.299515 1.7771,0.422544 3.40477,1.449245 4.55158,2.871026 1.1468,1.421782 1.80568,3.22991 1.84246,5.05618 0.0368,1.826271 -0.54875,3.659464 -1.63737,5.126272 -1.08862,1.466808 -2.67363,2.558219 -4.43227,3.051981 -2.06229,0.579014 -4.25028,0.343283 -6.39203,0.309009 -1.07088,-0.01714 -2.14877,0.0181 -3.1982,0.232025 -1.04943,0.213926 -2.07433,0.613619 -2.92075,1.269846 -0.73736,0.571673 -1.32677,1.332557 -1.69599,2.189406 -0.36923,0.856848 -0.51747,1.807833 -0.42658,2.736408 0.0909,0.928575 0.42074,1.832761 0.94912,2.601746 0.52837,0.768985 1.25414,1.40113 2.08836,1.818963 0.55052,-2.34277 1.75647,-4.527888 3.44518,-6.242497 1.68872,-1.714609 3.85523,-2.953666 6.18935,-3.539769 2.33413,-0.586102 4.82899,-0.517526 7.12739,0.195911 2.2984,0.713436 4.39358,2.069635 5.98556,3.87442 1.54288,1.749121 2.60957,3.914236 3.05626,6.20342 0.44669,2.289184 0.27222,4.696489 -0.4999,6.897337 -0.77211,2.200848 -2.13987,4.189521 -3.91884,5.697883 -1.77897,1.508363 -3.96454,2.532497 -6.26202,2.934317 1.98036,0.0018 3.95034,-0.790759 5.37775,-2.163478 1.4274,-1.372718 2.29624,-3.31025 2.3718,-5.289172 0.0756,-1.978922 -0.64301,-3.977063 -1.96159,-5.454627 -1.31858,-1.477564 -3.22239,-2.417997 -5.19712,-2.567242 -1.76708,-0.133551 -3.57531,0.362288 -5.02712,1.378498 -1.4518,1.016209 -2.53669,2.545448 -3.01613,4.251482"
       id="path8017"
       inkscape:path-effect="#path-effect8021"
       inkscape:original-d="m 112.37905,20.666212 c 8.22381,-2.691791 16.44731,-5.383388 24.6705,-8.074769 8.22317,-2.6913837 9.22705,9.652573 9.22705,9.652573 0,0 -11.02714,-0.257134 -16.54117,-0.385415 -5.51405,-0.128265 1.40827,7.671409 2.11192,11.507407 0.70366,3.835998 9.33752,-6.17632 9.33752,-6.17632 0,0 0.21659,10.736776 0.3244,16.105459 0.10783,5.368683 -8.34033,1.207049 -12.51098,1.81088 -4.17064,0.603809 0.91491,9.346523 0.91491,9.346523 0,0 15.1653,-3.808154 22.74748,-5.711935 7.58218,-1.903774 -7.6245,21.732957 -7.6245,21.732957 0,0 0.39421,-10.316549 0.59084,-15.474519 0.19664,-5.157963 -5.36184,3.753129 -8.04325,5.62998"
       inkscape:transform-center-x="-29.169008"
       inkscape:transform-center-y="-12.626264" />
    <path
       style="fill:url(#linearGradient8041);fill-opacity:1;stroke:none;stroke-width:0.264583px;stroke-linecap:butt;stroke-linejoin:miter;stroke-opacity:1"
       d="M 75.625494,37.334859 C 72.18744,34.021838 70.086887,29.358335 69.884049,24.588096 69.681211,19.817858 71.378298,14.992872 74.5227,11.399955 77.519404,7.9758029 81.796672,5.6996081 86.310756,5.1268113 83.177741,6.0435142 80.579175,8.6098862 79.623488,11.73123 c -0.955687,3.121345 -0.239405,6.70265 1.843312,9.216296 1.408122,1.699472 3.435192,2.917079 5.626506,3.180042 1.095658,0.131482 2.221779,0.02594 3.266337,-0.329946 1.044558,-0.355882 2.005349,-0.963629 2.756944,-1.771625 0.772046,-0.829981 1.318181,-1.868095 1.564827,-2.974481 0.246646,-1.106385 0.193163,-2.278172 -0.153245,-3.357489 -0.346407,-1.079317 -0.98484,-2.063365 -1.829283,-2.819564 -0.844443,-0.7562 -1.892708,-1.282591 -3.003563,-1.508254 0.887346,-1.5966323 2.315937,-2.8860425 3.994857,-3.6056572 1.678921,-0.7196148 3.597855,-0.8650132 5.366036,-0.4065866 1.768184,0.4584265 3.374744,1.5178618 4.492534,2.9625638 1.11779,1.444703 1.73994,3.265797 1.73975,5.092438 -2.2e-4,2.142027 -0.81882,4.184763 -1.43097,6.237457 -0.30608,1.026347 -0.56363,2.073611 -0.64145,3.141793 -0.0778,1.068183 0.0298,2.162977 0.43274,3.155319 0.35098,0.864479 0.92414,1.637681 1.64923,2.224848 0.72508,0.587167 1.60055,0.987047 2.51911,1.150634 0.91856,0.163586 1.87825,0.09053 2.76147,-0.210214 0.88321,-0.300745 1.68806,-0.828537 2.31591,-1.518695 -2.10663,-1.163518 -3.88424,-2.915416 -5.07832,-5.004866 -1.19409,-2.08945 -1.80114,-4.510305 -1.73423,-6.915958 0.0669,-2.405654 0.80756,-4.789028 2.11593,-6.808883 1.30836,-2.019855 3.18059,-3.6702488 5.34863,-4.7148855 2.10117,-1.0124174 4.47407,-1.4539046 6.79876,-1.2649355 2.32469,0.1889691 4.59513,1.0079038 6.5052,2.3463859 1.91006,1.3384822 3.4548,3.1930351 4.42591,5.3136071 0.97112,2.120571 1.3661,4.501654 1.13169,6.822202 0.53721,-1.906107 0.30691,-4.017001 -0.62868,-5.762425 -0.93559,-1.745424 -2.566,-3.105824 -4.45077,-3.7136881 -1.88476,-0.6078639 -4.00277,-0.4563821 -5.78185,0.4135231 -1.77907,0.869905 -3.19928,2.448487 -3.87695,4.309293 -0.60641,1.665137 -0.61801,3.540083 -0.0322,5.212594 0.58577,1.672511 1.76467,3.130505 3.2775,4.053413"
       id="path8011"
       inkscape:path-effect="#path-effect8015"
       inkscape:original-d="M 75.625494,37.334859 C 75.257786,28.689538 74.890181,20.044569 74.5227,11.399955 74.155213,2.7553548 86.310756,5.1268113 86.310756,5.1268113 c 0,0 -3.229403,10.5467887 -4.843956,15.8207147 -1.614539,5.273932 7.766423,0.71862 11.649787,1.078471 3.883364,0.359853 -3.421264,-10.659788 -3.421264,-10.659788 0,0 10.395347,2.694814 15.593177,4.042758 5.19783,1.34794 -1.09323,8.356016 -1.63968,12.534569 -0.54647,4.178542 9.24572,1.646573 9.24572,1.646573 0,0 0.43457,-15.630089 0.65201,-23.4445925 0.21745,-7.8145135 18.86156,13.2172595 18.86156,13.2172595 0,0 -9.82561,-3.169223 -14.73825,-4.753297 -4.91263,-1.584082 2.16341,6.176976 3.24526,9.266007"
       inkscape:transform-center-x="3.7197058"
       inkscape:transform-center-y="-32.163609" />
    <path
       style="fill:url(#linearGradient8035);fill-opacity:1;stroke:none;stroke-width:0.264583px;stroke-linecap:butt;stroke-linejoin:miter;stroke-opacity:1"
       d="m 122.74935,81.55393 c 1.36416,4.575519 0.89958,9.669117 -1.26984,13.922342 -2.16942,4.253226 -6.02004,7.619728 -10.5249,9.201658 -4.29326,1.50763 -9.13694,1.38594 -13.349081,-0.33538 3.178771,0.74266 6.703511,-0.2139 9.070731,-2.46166 2.36722,-2.247756 3.50486,-5.718288 2.92765,-8.931225 -0.39025,-2.17226 -1.5564,-4.229362 -3.33506,-5.536027 -0.88933,-0.653332 -1.92176,-1.115266 -3.00628,-1.319118 -1.08453,-0.203853 -2.21999,-0.147207 -3.271784,0.186679 -1.080414,0.342971 -2.066488,0.978269 -2.825371,1.820301 -0.758883,0.842033 -1.288607,1.888617 -1.517804,2.998748 -0.229197,1.110132 -0.157272,2.280931 0.206085,3.354661 0.363356,1.073729 1.017202,2.047603 1.873446,2.790415 -1.55785,0.953792 -3.435871,1.373896 -5.251624,1.174765 -1.815754,-0.199132 -3.558087,-1.016278 -4.872192,-2.285034 -1.314106,-1.268756 -2.191911,-2.981329 -2.454662,-4.788974 -0.26275,-1.807644 0.09117,-3.699255 0.989685,-5.289627 1.053653,-1.864965 2.771046,-3.24099 4.313575,-4.727221 0.771265,-0.743115 1.510565,-1.528308 2.103663,-2.420107 0.593097,-0.891798 1.037784,-1.897988 1.175019,-2.960173 0.119552,-0.925322 7.69e-4,-1.880434 -0.341794,-2.748285 -0.342562,-0.867851 -0.908173,-1.646589 -1.627515,-2.240778 -0.719342,-0.59419 -1.590881,-1.002563 -2.507807,-1.175073 -0.916926,-0.17251 -1.877285,-0.108789 -2.763381,0.183354 1.262022,2.049132 1.948201,4.448758 1.960292,6.855311 0.01209,2.406553 -0.649941,4.812953 -1.89131,6.874662 -1.241368,2.06171 -3.058421,3.772665 -5.191001,4.887897 -2.13258,1.115233 -4.574414,1.631464 -6.975891,1.47478 -2.327409,-0.151851 -4.61063,-0.934453 -6.541812,-2.242286 -1.931182,-1.307834 -3.505309,-3.137502 -4.51014,-5.242307 -1.004831,-2.104806 -1.437756,-4.479283 -1.240402,-6.803276 0.197354,-2.323993 1.024474,-4.591466 2.369837,-6.496693 -1.405187,1.395452 -2.242816,3.34668 -2.286601,5.326559 -0.04378,1.979879 0.706764,3.966229 2.048887,5.422438 1.342122,1.456209 3.260783,2.365963 5.237655,2.483493 1.976873,0.11753 3.989811,-0.558482 5.495019,-1.845411 1.346931,-1.151605 2.27914,-2.778425 2.59166,-4.522773 0.31252,-1.744348 0.0031,-3.593621 -0.860244,-5.141221"
       id="path8023"
       inkscape:path-effect="#path-effect8027"
       inkscape:original-d="m 122.74935,81.55393 c -3.93166,7.708362 -7.86323,15.416367 -11.79474,23.124 -3.93149,7.70763 -13.349081,-0.33538 -13.349081,-0.33538 0,0 7.998831,-7.594899 11.998381,-11.392885 3.99954,-3.797995 -6.40884,-4.445279 -9.613124,-6.668466 -3.204288,-2.22319 -2.263644,10.964125 -2.263644,10.964125 0,0 -7.725951,-7.458886 -11.588793,-11.18887 -3.862854,-3.729985 5.06142,-6.737963 7.592257,-10.107501 2.53084,-3.369523 -7.240497,-5.980782 -7.240497,-5.980782 0,0 -8.065361,13.395465 -12.09791,20.09265 -4.032565,6.69719 -9.922517,-20.784562 -9.922517,-20.784562 0,0 6.996559,7.591753 10.49496,11.387079 3.498391,3.795332 1.15419,-6.442296 1.731416,-9.663994"
       inkscape:transform-center-x="12.213809"
       inkscape:transform-center-y="34.251722" />
    <path
       style="fill:url(#linearGradient8043);fill-opacity:1;stroke:none;stroke-width:0.264583px;stroke-linecap:butt;stroke-linejoin:miter;stroke-opacity:1"
       d="m 89.084854,82.624482 c -3.313022,3.438052 -7.976526,5.538603 -12.746764,5.741439 -4.770238,0.202836 -9.595223,-1.494253 -13.188138,-4.638657 -3.42415,-2.996705 -5.700342,-7.273972 -6.273137,-11.788056 0.916702,3.133015 3.483072,5.731581 6.604415,6.687269 3.121344,0.955688 6.702649,0.239408 9.216295,-1.843308 1.699471,-1.40812 2.917079,-3.435189 3.180044,-5.626503 0.131482,-1.095657 0.02594,-2.221778 -0.329945,-3.266336 -0.35588,-1.044558 -0.963627,-2.005348 -1.771622,-2.756944 -0.82998,-0.772047 -1.868094,-1.318183 -2.974479,-1.56483 -1.106386,-0.246647 -2.278173,-0.193164 -3.35749,0.153242 -1.079317,0.346407 -2.063365,0.984838 -2.819566,1.829281 -0.7562,0.844443 -1.282592,1.892707 -1.508256,3.003562 -1.596631,-0.887347 -2.88604,-2.315939 -3.605653,-3.994859 -0.719613,-1.67892 -0.86501,-3.597854 -0.406582,-5.366034 0.458427,-1.768179 1.517863,-3.374742 2.962565,-4.49253 1.444703,-1.117789 3.265797,-1.739935 5.092437,-1.739747 2.142027,2.21e-4 4.184762,0.818826 6.237456,1.430976 1.026346,0.306075 2.07361,0.563625 3.141792,0.641446 1.068182,0.07782 2.162977,-0.02984 3.155319,-0.432735 0.864479,-0.350984 1.637682,-0.924139 2.224849,-1.649224 0.587168,-0.725085 0.987048,-1.600553 1.150636,-2.519113 0.163587,-0.918561 0.09053,-1.878254 -0.210213,-2.761468 -0.300744,-0.883214 -0.828536,-1.688065 -1.518694,-2.315915 -1.16352,2.106624 -2.915419,3.884233 -5.00487,5.078318 -2.089451,1.194084 -4.510306,1.801131 -6.915959,1.734227 -2.405653,-0.0669 -4.789027,-0.807564 -6.808881,-2.115934 -2.019854,-1.30837 -3.670247,-3.180601 -4.714882,-5.348637 -1.012416,-2.101168 -1.453902,-4.474067 -1.264932,-6.798757 0.18897,-2.32469 1.007906,-4.595132 2.346389,-6.505199 1.338483,-1.910067 3.193037,-3.454798 5.313609,-4.425915 2.120572,-0.971116 4.501654,-1.366096 6.822202,-1.131683 -1.906107,-0.537212 -4.017001,-0.306914 -5.762425,0.628678 -1.745424,0.935592 -3.105825,2.565998 -3.713689,4.450763 -0.607865,1.884765 -0.456384,4.002774 0.41352,5.781849 0.869904,1.779075 2.448485,3.199283 4.309291,3.876956 1.665137,0.606414 3.540083,0.618012 5.212594,0.03224 1.672512,-0.585767 3.130506,-1.76467 4.053414,-3.277501"
       id="path8005"
       inkscape:path-effect="#path-effect8009"
       inkscape:original-d="m 89.084854,82.624482 c -8.645321,0.367703 -17.290291,0.735303 -25.934902,1.102782 -8.644601,0.367482 -6.273137,-11.788056 -6.273137,-11.788056 0,0 10.546785,3.229408 15.82071,4.843961 5.273933,1.614547 0.718625,-7.766417 1.078477,-11.649783 0.359854,-3.883367 -10.659791,3.421255 -10.659791,3.421255 0,0 2.69482,-10.395347 4.042767,-15.59317 1.347942,-5.197835 8.356014,1.093233 12.534567,1.639687 4.178542,0.546463 1.646578,-9.24572 1.646578,-9.24572 0,0 -15.630089,-0.434581 -23.444592,-0.652026 -7.814515,-0.217457 13.217268,-18.861554 13.217268,-18.861554 0,0 -3.169228,9.825607 -4.753303,14.738246 -1.584085,4.912632 6.176976,-2.163401 9.266008,-3.245257"
       inkscape:transform-center-x="32.163613"
       inkscape:transform-center-y="3.7196875" />
    <circle
       style="fill:url(#linearGradient6452);fill-opacity:1;stroke-width:2.38204;stroke-linejoin:round"
       id="circle6446"
       cx="105"
       cy="53.249989"
       r="33.408875" />
  </g>
</svg>
