<?xml version="1.0" encoding="UTF-8" standalone="no"?>
<!-- Created with Inkscape (http://www.inkscape.org/) -->

<svg
   width="872"
   height="486"
   viewBox="0 0 230.71667 128.5875"
   version="1.1"
   id="svg5"
   inkscape:version="1.1.2 (b8e25be833, 2022-02-05)"
   sodipodi:docname="barts.svg"
   xmlns:inkscape="http://www.inkscape.org/namespaces/inkscape"
   xmlns:sodipodi="http://sodipodi.sourceforge.net/DTD/sodipodi-0.dtd"
   xmlns:xlink="http://www.w3.org/1999/xlink"
   xmlns="http://www.w3.org/2000/svg"
   xmlns:svg="http://www.w3.org/2000/svg">
  <sodipodi:namedview
     id="namedview7"
     pagecolor="#505050"
     bordercolor="#eeeeee"
     borderopacity="1"
     inkscape:pageshadow="0"
     inkscape:pageopacity="0"
     inkscape:pagecheckerboard="0"
     inkscape:document-units="mm"
     showgrid="false"
     units="px"
     inkscape:zoom="0.84987375"
     inkscape:cx="320.63586"
     inkscape:cy="227.09255"
     inkscape:window-width="1366"
     inkscape:window-height="745"
     inkscape:window-x="-8"
     inkscape:window-y="-8"
     inkscape:window-maximized="1"
     inkscape:current-layer="layer3" />
  <defs
     id="defs2">
    <inkscape:path-effect
       effect="spiro"
       id="path-effect304"
       is_visible="true"
       lpeversion="1" />
    <inkscape:path-effect
       effect="spiro"
       id="path-effect300"
       is_visible="true"
       lpeversion="1" />
    <inkscape:path-effect
       effect="spiro"
       id="path-effect57"
       is_visible="true"
       lpeversion="1" />
    <inkscape:path-effect
       effect="spiro"
       id="path-effect53"
       is_visible="true"
       lpeversion="1" />
  </defs>
  <g
     inkscape:groupmode="layer"
     id="layer3"
     inkscape:label="Camada 3">
    <path
       style="fill:none;stroke:#000000;stroke-width:0.264583px;stroke-linecap:butt;stroke-linejoin:miter;stroke-opacity:1"
       d="m 120.05722,94.438778 c -2.99688,1.441803 -6.41517,1.993765 -9.71354,1.568477 -1.0454,-0.134793 -2.07843,-0.36538 -3.08192,-0.687928"
       id="path51"
       inkscape:path-effect="#path-effect53"
       inkscape:original-d="m 120.05722,94.438778 c -3.23758,0.52309 -6.47543,1.045914 -9.71354,1.568477 -3.23812,0.52256 -2.1369,-0.485871 -3.08192,-0.687928"
       sodipodi:nodetypes="csc" />
    <path
       style="fill:none;stroke:#000000;stroke-width:0.264583px;stroke-linecap:butt;stroke-linejoin:miter;stroke-opacity:1"
       d="m 107.26176,95.319325 c 0,0 0.27517,-2.889298 2.53157,-4.292671"
       id="path1045" />
    <path
       style="fill:none;stroke:#000000;stroke-width:0.264583px;stroke-linecap:butt;stroke-linejoin:miter;stroke-opacity:1"
       d="m 109.79333,91.026654 c 2.20138,-1.293305 2.20138,-1.293305 2.20138,-1.293305"
       id="path1047" />
    <path
       style="fill:none;stroke:#000000;stroke-width:0.264583px;stroke-linecap:butt;stroke-linejoin:miter;stroke-opacity:1"
       d="m 118.40619,89.485694 c 2.39399,2.559093 1.65103,4.953084 1.65103,4.953084"
       id="path1049"
       sodipodi:nodetypes="cc" />
    <path
       style="fill:none;stroke:#000000;stroke-width:0.264583px;stroke-linecap:butt;stroke-linejoin:miter;stroke-opacity:1"
       d="m 107.78458,93.668298 c 4.4658,1.088073 6.22342,1.160314 12.27264,-0.880549"
       id="path1259"
       sodipodi:nodetypes="cc" />
    <path
       style="fill:none;stroke:#000000;stroke-width:0.264583px;stroke-linecap:butt;stroke-linejoin:miter;stroke-opacity:1"
       d="m 111.99471,89.733349 c 0,0 2.77922,1.320825 6.41148,-0.247655"
       id="path1503"
       sodipodi:nodetypes="cc" />
    <path
       style="fill:none;stroke:#000000;stroke-width:0.264583px;stroke-linecap:butt;stroke-linejoin:miter;stroke-opacity:1"
       d="m 111.99471,89.733349 c 0,0 -0.44028,-1.293306 0.52284,-1.706061"
       id="path1671"
       sodipodi:nodetypes="cc" />
    <path
       style="fill:none;stroke:#000000;stroke-width:0.264583px;stroke-linecap:butt;stroke-linejoin:miter;stroke-opacity:1"
       d="m 117.47061,87.559495 c 0,0 1.1007,0.02752 0.93558,1.926199"
       id="path1763"
       sodipodi:nodetypes="cc" />
    <path
       style="fill:none;stroke:#000000;stroke-width:0.264583px;stroke-linecap:butt;stroke-linejoin:miter;stroke-opacity:1"
       d="m 112.54507,87.99977 c 0,0 0.76359,0.722325 2.01218,0.736083 1.10289,0.01215 2.32174,0.08943 2.94088,-1.203875"
       id="path1931"
       sodipodi:nodetypes="csc" />
    <path
       style="fill:none;stroke:#000000;stroke-width:0.264583px;stroke-linecap:butt;stroke-linejoin:miter;stroke-opacity:1"
       d="m 117.27603,87.929188 -0.0251,-2.685675"
       id="path2366"
       sodipodi:nodetypes="cc" />
    <path
       style="fill:none;stroke:#000000;stroke-width:0.264583px;stroke-linecap:butt;stroke-linejoin:miter;stroke-opacity:1"
       d="m 112.54507,87.99977 c 0,0 -1.40357,-5.616517 2.17666,-7.387154"
       id="path2368"
       sodipodi:nodetypes="cc" />
    <path
       style="fill:none;stroke:#000000;stroke-width:0.264583px;stroke-linecap:butt;stroke-linejoin:miter;stroke-opacity:1"
       d="m 116.4145,85.710492 c 0,0 1.40095,-1.245283 1.9263,-1.284198"
       id="path2536" />
    <path
       style="fill:none;stroke:#000000;stroke-width:0.264583px;stroke-linecap:butt;stroke-linejoin:miter;stroke-opacity:1"
       d="m 114.66332,79.425706 c 0,0 2.08196,6.887972 8.40566,5.817807"
       id="path2538" />
    <path
       style="fill:none;stroke:#000000;stroke-width:0.264583px;stroke-linecap:butt;stroke-linejoin:miter;stroke-opacity:1"
       d="m 114.66332,79.425704 c 0,0 1.34257,-1.731719 2.58786,-1.4204"
       id="path2540" />
    <path
       style="fill:none;stroke:#000000;stroke-width:0.264583px;stroke-linecap:butt;stroke-linejoin:miter;stroke-opacity:1"
       d="m 117.25118,78.005304 c 0,0 8.7948,-11.032428 16.69457,-5.07842"
       id="path2542"
       sodipodi:nodetypes="cc" />
    <path
       style="fill:none;stroke:#000000;stroke-width:0.264583px;stroke-linecap:butt;stroke-linejoin:miter;stroke-opacity:1"
       d="m 133.94575,72.926884 c 0,0 0.27241,4.319577 -1.24528,5.33137"
       id="path2748" />
    <path
       style="fill:none;stroke:#000000;stroke-width:0.264583px;stroke-linecap:butt;stroke-linejoin:miter;stroke-opacity:1"
       d="m 133.67335,76.935139 c 0,0 2.68514,2.762972 2.49056,3.268868"
       id="path2750" />
    <path
       style="fill:none;stroke:#000000;stroke-width:0.264583px;stroke-linecap:butt;stroke-linejoin:miter;stroke-opacity:1"
       d="m 136.16391,80.204005 c 0,0 -1.01179,2.257078 -2.29599,2.607312"
       id="path2752" />
    <path
       style="fill:none;stroke:#000000;stroke-width:0.264583px;stroke-linecap:butt;stroke-linejoin:miter;stroke-opacity:1"
       d="m 133.86792,82.811315 c 0,0 -0.11674,1.595522 1.51769,1.712267"
       id="path2754" />
    <path
       style="fill:none;stroke:#000000;stroke-width:0.264583px;stroke-linecap:butt;stroke-linejoin:miter;stroke-opacity:1"
       d="m 138.03183,85.18514 c 0,0 -0.85613,-2.062503 -2.64622,-0.661558 0,0 -2.14033,2.918634 -1.32311,4.708728"
       id="path2756" />
    <path
       style="fill:none;stroke:#000000;stroke-width:0.264583px;stroke-linecap:butt;stroke-linejoin:miter;stroke-opacity:1"
       d="m 134.0625,89.232308 c 0,0 0.35023,0.661558 1.12854,0.583729 0,0 0.0778,-4.553067 2.84079,-4.630897 0,0 4.47524,-0.116745 4.16392,1.945755 0,0 0.23349,7.121462 -1.86792,7.510613 0,0 -6.1875,0.739387 -7.4717,-0.505896 0,0 0,-3.191038 2.14033,-3.541274 l 0.19458,-0.933962"
       id="path2758" />
    <path
       style="fill:none;stroke:#000000;stroke-width:0.264583px;stroke-linecap:butt;stroke-linejoin:miter;stroke-opacity:1"
       d="m 142.19575,87.130894 c 0,0 -2.76297,-1.829009 -3.03538,5.097878 0,0 -0.0389,1.790095 -1.01179,2.451651"
       id="path2760" />
    <path
       style="fill:none;stroke:#000000;stroke-width:0.264583px;stroke-linecap:butt;stroke-linejoin:miter;stroke-opacity:1"
       d="m 141.84552,86.041271 c 0,0 -3.3467,-1.439857 -3.89152,6.343161"
       id="path2762" />
    <path
       style="fill:none;stroke:#000000;stroke-width:0.264583px;stroke-linecap:butt;stroke-linejoin:miter;stroke-opacity:1"
       d="m 137.954,92.384432 c 0,0 0.38916,2.412735 -4.98113,0.661556"
       id="path2764" />
    <ellipse
       style="fill:none;stroke:#000000;stroke-width:0.365;stroke-linecap:round;stroke-linejoin:round;stroke-miterlimit:4;stroke-dasharray:none;stroke-opacity:1;paint-order:stroke markers fill"
       id="path2788"
       ry="1.634434"
       rx="0.83667451"
       cy="89.310143"
       cx="137.07841" />
    <path
       style="fill:none;stroke:#000000;stroke-width:0.264583px;stroke-linecap:butt;stroke-linejoin:miter;stroke-opacity:1"
       d="m 129.19811,83.278299 c 0,0 -0.95341,5.487024 4.59198,5.38974"
       id="path3758"
       sodipodi:nodetypes="cc" />
    <path
       style="fill:none;stroke:#000000;stroke-width:0.165;stroke-linecap:butt;stroke-linejoin:miter;stroke-miterlimit:4;stroke-dasharray:none;stroke-opacity:1"
       d="m 128.43927,83.959313 c 0,0 3.36615,-3.677476 7.08254,-3.580189"
       id="path3850" />
    <path
       style="fill:none;stroke:#000000;stroke-width:0.264583px;stroke-linecap:butt;stroke-linejoin:miter;stroke-opacity:1"
       d="M 115.03302,29.886791 Z"
       id="path298"
       inkscape:path-effect="#path-effect300"
       inkscape:original-d="m 115.03302,29.886791 c -2.7e-4,-22.7266785 2.6e-4,45.453095 0,0 z" />
    <path
       style="fill:#ffffff;stroke:#0efe0a;stroke-width:4.40315;stroke-linecap:round;stroke-linejoin:round;paint-order:stroke markers fill;fill-opacity:1"
       id="path488"
       sodipodi:type="arc"
       sodipodi:cx="118.04323"
       sodipodi:cy="63.58408"
       sodipodi:rx="45.548546"
       sodipodi:ry="41.817383"
       sodipodi:start="1.257767"
       sodipodi:end="1.2560384"
       sodipodi:arc-type="slice"
       d="M 132.06955,103.36935 A 45.548546,41.817383 0 0 1 74.714176,76.478607 45.548546,41.817383 0 0 1 103.97946,23.809954 a 45.548546,41.817383 0 0 1 57.38067,26.845222 45.548546,41.817383 0 0 1 -29.2157,52.691854 l -14.1012,-39.76295 z" />
  </g>
  <g
     inkscape:groupmode="layer"
     id="layer2"
     inkscape:label="Camada 2"
     sodipodi:insensitive="true"
     style="mix-blend-mode:normal">
    <image
       width="55.827084"
       height="63.235416"
       preserveAspectRatio="none"
       xlink:href="../../../bart.png"
       id="image23"
       x="89.660378"
       y="33" />
  </g>
</svg>
