<?xml version="1.0" encoding="UTF-8" standalone="no"?>
<!-- Created with Inkscape (http://www.inkscape.org/) -->

<svg
   width="164.51425mm"
   height="138.17938mm"
   viewBox="0 0 164.51425 138.17938"
   version="1.1"
   id="svg5"
   inkscape:version="1.2 (dc2aedaf03, 2022-05-15)"
   sodipodi:docname="logo1.svg"
   xmlns:inkscape="http://www.inkscape.org/namespaces/inkscape"
   xmlns:sodipodi="http://sodipodi.sourceforge.net/DTD/sodipodi-0.dtd"
   xmlns:xlink="http://www.w3.org/1999/xlink"
   xmlns="http://www.w3.org/2000/svg"
   xmlns:svg="http://www.w3.org/2000/svg">
  <sodipodi:namedview
     id="namedview7"
     pagecolor="#505050"
     bordercolor="#ffffff"
     borderopacity="1"
     inkscape:showpageshadow="0"
     inkscape:pageopacity="0"
     inkscape:pagecheckerboard="1"
     inkscape:deskcolor="#505050"
     inkscape:document-units="mm"
     showgrid="false"
     inkscape:zoom="0.8409652"
     inkscape:cx="311.54678"
     inkscape:cy="281.81903"
     inkscape:window-width="1280"
     inkscape:window-height="944"
     inkscape:window-x="0"
     inkscape:window-y="44"
     inkscape:window-maximized="1"
     inkscape:current-layer="layer1"
     showguides="false" />
  <defs
     id="defs2">
    <inkscape:path-effect
       effect="spiro"
       id="path-effect3983"
       is_visible="true"
       lpeversion="1" />
    <inkscape:path-effect
       effect="spiro"
       id="path-effect1079"
       is_visible="true"
       lpeversion="1" />
    <inkscape:path-effect
       effect="spiro"
       id="path-effect6974"
       is_visible="true"
       lpeversion="1" />
    <linearGradient
       id="linearGradient6436">
      <stop
         style="stop-color:#003336;stop-opacity:1;"
         offset="0"
         id="stop6843" />
      <stop
         style="stop-color:#91edf9;stop-opacity:1;"
         offset="1"
         id="stop6845" />
    </linearGradient>
    <linearGradient
       id="linearGradient764-1">
      <stop
         style="stop-color:#4d4d4d;stop-opacity:1;"
         offset="0"
         id="stop6673" />
      <stop
         style="stop-color:#140628;stop-opacity:1;"
         offset="1"
         id="stop6675" />
    </linearGradient>
    <inkscape:path-effect
       effect="spiro"
       id="path-effect6659"
       is_visible="true"
       lpeversion="1" />
    <linearGradient
       id="linearGradient6436-1">
      <stop
         style="stop-color:#0b2700;stop-opacity:0.17701098"
         offset="0"
         id="stop6432" />
      <stop
         style="stop-color:#6cff94;stop-opacity:0.3507656"
         offset="1"
         id="stop6434" />
    </linearGradient>
    <linearGradient
       id="linearGradient764">
      <stop
         style="stop-color:#150f20;stop-opacity:1;"
         offset="0"
         id="stop4058" />
      <stop
         style="stop-color:#ab30ff;stop-opacity:1;"
         offset="1"
         id="stop4060" />
    </linearGradient>
    <linearGradient
       inkscape:collect="always"
       id="linearGradient4052">
      <stop
         style="stop-color:#626262;stop-opacity:1;"
         offset="0"
         id="stop4048" />
      <stop
         style="stop-color:#dcdcdc;stop-opacity:1;"
         offset="1"
         id="stop4050" />
    </linearGradient>
    <linearGradient
       id="linearGradient764-2">
      <stop
         style="stop-color:#ab4c63;stop-opacity:0.46111307;"
         offset="0"
         id="stop760" />
      <stop
         style="stop-color:#140628;stop-opacity:0.31131017;"
         offset="1"
         id="stop762" />
    </linearGradient>
    <linearGradient
       inkscape:collect="always"
       xlink:href="#linearGradient764"
       id="linearGradient758"
       x1="26.394897"
       y1="190.58594"
       x2="127.46175"
       y2="116.98247"
       gradientUnits="userSpaceOnUse"
       gradientTransform="translate(8.828259e-4)" />
    <linearGradient
       inkscape:collect="always"
       xlink:href="#linearGradient4052"
       id="linearGradient4054"
       x1="97.516724"
       y1="156.04315"
       x2="148.60799"
       y2="134.60367"
       gradientUnits="userSpaceOnUse"
       gradientTransform="translate(-4.6594472,8.94086)" />
    <linearGradient
       inkscape:collect="always"
       xlink:href="#linearGradient764-1"
       id="linearGradient4056"
       x1="124.70111"
       y1="123.07513"
       x2="93.195122"
       y2="156.11217"
       gradientUnits="userSpaceOnUse"
       gradientTransform="translate(-4.6594472,8.94086)" />
    <linearGradient
       inkscape:collect="always"
       xlink:href="#linearGradient6436"
       id="linearGradient6438"
       x1="12.188393"
       y1="232.29185"
       x2="187.27667"
       y2="106.81519"
       gradientUnits="userSpaceOnUse"
       gradientTransform="translate(8.828259e-4)" />
    <filter
       inkscape:collect="always"
       style="color-interpolation-filters:sRGB"
       id="filter6649"
       x="-0.98669135"
       y="-0.69012265"
       width="2.9733827"
       height="2.3802453">
      <feGaussianBlur
         inkscape:collect="always"
         stdDeviation="1.6255836"
         id="feGaussianBlur6651" />
    </filter>
    <linearGradient
       inkscape:collect="always"
       xlink:href="#linearGradient764-2"
       id="linearGradient6671"
       x1="178.11145"
       y1="106.81519"
       x2="22.762419"
       y2="171.89334"
       gradientUnits="userSpaceOnUse"
       gradientTransform="translate(8.828259e-4)" />
    <linearGradient
       inkscape:collect="always"
       xlink:href="#linearGradient764-2"
       id="linearGradient6680"
       gradientUnits="userSpaceOnUse"
       x1="178.11145"
       y1="106.81519"
       x2="22.762419"
       y2="171.89334"
       gradientTransform="translate(-4.4615872,33.51614)" />
    <linearGradient
       inkscape:collect="always"
       xlink:href="#linearGradient764-2"
       id="linearGradient6833"
       x1="131.16704"
       y1="65.426979"
       x2="131.61264"
       y2="50.854721"
       gradientUnits="userSpaceOnUse"
       gradientTransform="translate(7.2042937e-4,-5.0414516e-4)" />
    <linearGradient
       inkscape:collect="always"
       xlink:href="#linearGradient764-2"
       id="linearGradient6835"
       x1="124.61975"
       y1="64.061142"
       x2="126.61931"
       y2="51.783535"
       gradientUnits="userSpaceOnUse"
       gradientTransform="translate(7.2042937e-4,-5.0414516e-4)" />
    <linearGradient
       inkscape:collect="always"
       xlink:href="#linearGradient764-2"
       id="linearGradient6837"
       x1="139.8829"
       y1="62.410305"
       x2="130.96233"
       y2="35.538631"
       gradientUnits="userSpaceOnUse"
       gradientTransform="translate(7.2042937e-4,-5.0414516e-4)" />
  </defs>
  <g
     inkscape:label="Camada 1"
     inkscape:groupmode="layer"
     id="layer1"
     transform="translate(-22.762858,-80.427841)">
    <circle
       style="fill:url(#linearGradient758);fill-opacity:1;stroke-width:3.0278;stroke-linecap:round;stroke-linejoin:round"
       id="path184"
       cx="105.00087"
       cy="148.5"
       r="52.87532" />
    <path
       style="color:#000000;fill:url(#linearGradient6680);fill-opacity:1;-inkscape-stroke:none"
       d="m 89.307943,160.50052 c -1.41439,-0.13411 -2.88322,-0.12615 -4.38477,0.0781 -4.55737,0.61998 -8.07198,2.7759 -10.96289,4.51367 -2.86155,1.72013 -5.27808,3.08442 -7.34375,3.48633 -2.20223,0.42848 -4.76019,-0.11392 -6.59961,-1.39844 -1.83941,-1.28451 -6.28023,-6.88555 -6.63639,-9.10062 -1.42049,3.53991 0.52401,9.43989 0,12.40906 3.71651,10.26849 16.13196,8.95702 25.7321,3.17398 2.77448,-1.66778 5.16767,-2.90472 7.16015,-3.17578 1.29593,-0.17629 2.82889,-0.0258 4.42969,0.41797 1.61372,0.44737 3.32398,1.18876 5.14844,2.08985 3.65895,1.80712 7.860327,4.40313 13.279297,5.4082 3.95345,0.73326 7.59943,0.40897 10.7832,0.14258 3.17377,-0.26556 5.96484,-0.46932 8.29492,-0.11524 2.74024,0.41642 5.80279,1.76306 9.35156,3.24414 4.71454,1.96762 1.49082,2.10964 6.38864,3.56211 0.10509,-2.91333 -3.03078,4.41061 6.52363,-9.75196 -4.55528,-1.35088 -4.67588,-1.20865 -9.06069,-3.03866 -3.30996,-1.38142 -7.09367,-3.20218 -11.70118,-3.90235 -3.92189,-0.59598 -7.50288,-0.22461 -10.63085,0.0371 -3.11797,0.26089 -5.86074,0.4102 -8.125,-0.01 -3.1128,-0.57734 -6.55464,-2.50562 -10.67579,-4.54102 -2.065577,-1.02017 -4.339027,-2.05002 -6.906247,-2.76172 -1.29007,-0.35764 -2.65006,-0.63347 -4.06445,-0.76757 z"
       id="path6678"
       sodipodi:nodetypes="ccssscccsssssssccssscsscc" />
    <path
       id="circle344"
       style="fill:url(#linearGradient6438);fill-opacity:1;stroke-width:3.43354;stroke-linecap:round;stroke-linejoin:round"
       d="m 73.100053,106.81519 v 5.1e-4 a 84.92878,42.333382 16.617483 0 0 -0.60823,0.0155 84.92878,42.333382 16.617483 0 1 0.60823,-0.016 z m -0.60823,0.016 a 52.87532,52.87532 0 0 0 -5.2e-4,5.1e-4 52.87532,52.87532 0 0 0 -6.20944,5.70301 66.6446,33.219498 16.617483 0 0 -0.27026,0.0744 66.6446,33.219498 16.617483 0 0 -20.42563,13.80122 66.6446,33.219498 16.617483 0 0 -0.0739,0.19431 66.6446,33.219498 16.617483 0 0 -0.77359,2.02985 66.6446,33.219498 16.617483 0 0 -0.5178,2.37401 66.6446,33.219498 16.617483 0 0 -0.003,0.0124 66.6446,33.219498 16.617483 0 0 -0.17466,2.466 66.6446,33.219498 16.617483 0 0 0.13901,2.11305 66.6446,33.219498 16.617483 0 0 0.0222,0.30489 66.6446,33.219498 16.617483 0 0 0.43925,2.32286 66.6446,33.219498 16.617483 0 0 0.0284,0.13746 66.6446,33.219498 16.617483 0 0 0.76429,2.48253 66.6446,33.219498 16.617483 0 0 53.66339,38.68136 66.6446,33.219498 16.617483 0 0 72.548027,-10.62157 66.6446,33.219498 16.617483 0 0 0.81339,-2.15129 66.6446,33.219498 16.617483 0 0 0,-5.2e-4 66.6446,33.219498 16.617483 0 0 0.03,-0.13694 66.6446,33.219498 16.617483 0 0 0.44856,-2.0531 66.6446,33.219498 16.617483 0 0 0.1881,-2.24018 66.6446,33.219498 16.617483 0 0 -15.76752,-26.3679 66.6446,33.219498 16.617483 0 0 -0.005,-0.004 66.6446,33.219498 16.617483 0 0 -1.23816,-1.04232 52.87532,52.87532 0 0 0 -1.54771,-4.81366 84.92878,42.333382 16.617483 0 1 0.65525,0.41341 84.92878,42.333382 16.617483 0 1 0.0145,0.009 84.92878,42.333382 16.617483 0 1 31.65337,45.7724 84.92878,42.333382 16.617483 0 1 -0.0413,0.18396 84.92878,42.333382 16.617483 0 1 -0.42995,1.90221 84.92878,42.333382 16.617483 0 1 -0.92449,2.47324 84.92878,42.333382 16.617483 0 1 -0.0305,0.0811 84.92878,42.333382 16.617483 0 1 -92.532337,13.72629 84.92878,42.333382 16.617483 0 1 -69.27536,-64.8534 84.92878,42.333382 16.617483 0 1 1.01028,-2.69803 84.92878,42.333382 16.617483 0 1 0.002,-0.005 84.92878,42.333382 16.617483 0 1 46.74857,-20.24476 84.92878,42.333382 16.617483 0 1 1.07177,-0.0279 z M 154.57002,130.098 a 84.92878,42.333382 16.617483 0 0 -3.86592,-2.30218 84.92878,42.333382 16.617483 0 1 3.86592,2.30218 z M 78.091483,106.89942 a 84.92878,42.333382 16.617483 0 1 1.57458,0.0796 84.92878,42.333382 16.617483 0 0 -1.57458,-0.0796 z m 5.09478,0.28163 a 84.92878,42.333382 16.617483 0 1 1.96112,0.16744 84.92878,42.333382 16.617483 0 0 -1.96112,-0.16744 z m 5.19038,0.47853 a 84.92878,42.333382 16.617483 0 1 2.11977,0.2527 84.92878,42.333382 16.617483 0 0 -2.11977,-0.2527 z m 5.29063,0.67748 a 84.92878,42.333382 16.617483 0 1 2.16008,0.32969 84.92878,42.333382 16.617483 0 0 -2.16008,-0.32969 z m 5.35885,0.87591 a 84.92878,42.333382 16.617483 0 1 2.147147,0.39739 84.92878,42.333382 16.617483 0 0 -2.147147,-0.39739 z m 5.478727,1.08727 a 84.92878,42.333382 16.617483 0 1 1.99988,0.4346 84.92878,42.333382 16.617483 0 0 -1.99988,-0.4346 z m -20.968737,0.29611 a 66.6446,33.219498 16.617483 0 0 -3.92328,0.10852 66.6446,33.219498 16.617483 0 1 3.92328,-0.10852 z m 4.11861,0.0692 a 66.6446,33.219498 16.617483 0 1 8.51111,0.65474 66.6446,33.219498 16.617483 0 0 -8.51111,-0.65474 z m -10.3358,0.19688 a 66.6446,33.219498 16.617483 0 0 -1.45418,0.11162 66.6446,33.219498 16.617483 0 1 1.45418,-0.11162 z m -4.1088,0.41652 a 66.6446,33.219498 16.617483 0 0 -0.88677,0.11523 66.6446,33.219498 16.617483 0 1 0.88677,-0.11523 z m 36.967777,0.34985 a 84.92878,42.333382 16.617483 0 1 1.66811,0.41651 84.92878,42.333382 16.617483 0 0 -1.66811,-0.41651 z m -40.692097,0.23254 a 66.6446,33.219498 16.617483 0 0 -0.47232,0.0889 66.6446,33.219498 16.617483 0 1 0.47232,-0.0889 z M 122.35183,115.18 a 84.92878,42.333382 16.617483 0 1 2.7435,0.96221 84.92878,42.333382 16.617483 0 0 -2.7435,-0.96221 z m -4.25142,0.68471 a 66.6446,33.219498 16.617483 0 1 4.55889,1.45418 66.6446,33.219498 16.617483 0 0 -4.55889,-1.45418 z m 9.36222,1.11776 a 84.92878,42.333382 16.617483 0 1 3.12022,1.20561 84.92878,42.333382 16.617483 0 0 -3.12022,-1.20561 z m -1.96009,1.35393 a 66.6446,33.219498 16.617483 0 1 1.63246,0.58859 66.6446,33.219498 16.617483 0 0 -1.63246,-0.58859 z m 6.97839,0.60048 a 84.92878,42.333382 16.617483 0 1 3.27215,1.38544 84.92878,42.333382 16.617483 0 0 -3.27215,-1.38544 z m -2.16215,1.25832 a 66.6446,33.219498 16.617483 0 1 1.18495,0.47904 66.6446,33.219498 16.617483 0 0 -1.18495,-0.47904 z m 7.02283,0.81959 a 84.92878,42.333382 16.617483 0 1 3.41426,1.57923 84.92878,42.333382 16.617483 0 0 -3.41426,-1.57923 z m -2.53163,1.12086 a 66.6446,33.219498 16.617483 0 1 0.93173,0.41909 66.6446,33.219498 16.617483 0 0 -0.93173,-0.41909 z m 7.20732,1.06246 a 84.92878,42.333382 16.617483 0 1 3.55223,1.78956 84.92878,42.333382 16.617483 0 0 -3.55223,-1.78956 z m -2.92489,0.99116 a 66.6446,33.219498 16.617483 0 1 0.74156,0.37 66.6446,33.219498 16.617483 0 0 -0.74156,-0.37 z m 7.39335,1.28054 a 84.92878,42.333382 16.617483 0 1 3.68711,2.02003 84.92878,42.333382 16.617483 0 0 -3.68711,-2.02003 z m -3.32538,0.87488 a 66.6446,33.219498 16.617483 0 1 0.60099,0.33177 66.6446,33.219498 16.617483 0 0 -0.60099,-0.33177 z m 3.87831,2.26601 a 66.6446,33.219498 16.617483 0 1 0.45941,0.28009 66.6446,33.219498 16.617483 0 0 -0.45941,-0.28009 z m 3.6773,2.36937 a 66.6446,33.219498 16.617483 0 1 0.30179,0.2036 66.6446,33.219498 16.617483 0 0 -0.30179,-0.2036 z m 3.4432,2.45153 a 66.6446,33.219498 16.617483 0 1 0.15451,0.11575 66.6446,33.219498 16.617483 0 0 -0.15451,-0.11575 z m -109.961767,2.37608 a 66.6446,33.219498 16.617483 0 0 0.006,0.0842 66.6446,33.219498 16.617483 0 1 -0.006,-0.0842 z m 128.741497,28.76259 a 66.6446,33.219498 16.617483 0 1 -0.17621,0.80718 66.6446,33.219498 16.617483 0 0 0.17621,-0.80718 z m -133.745837,1.23196 a 84.92878,42.333382 16.617483 0 0 0.96686,0.91261 v -0.004 a 84.92878,42.333382 16.617483 0 1 -0.96686,-0.90847 z" />
    <path
       style="color:#000000;fill:url(#linearGradient6671);fill-opacity:1;-inkscape-stroke:none"
       d="m 93.770413,126.98438 c -1.41439,-0.13411 -2.88322,-0.12615 -4.38477,0.0781 -4.55737,0.61998 -8.07198,2.7759 -10.96289,4.51367 -2.86155,1.72013 -5.27808,3.08442 -7.34375,3.48633 -2.20223,0.42848 -4.76019,-0.11392 -6.59961,-1.39844 -1.83941,-1.28451 -7.44912,-4.40412 -7.80528,-6.61919 -1.42049,3.53991 -2.76957,7.03435 -3.29358,10.00352 3.71651,10.26849 20.59443,8.88113 30.19457,3.09809 2.77448,-1.66778 5.16767,-2.90472 7.16015,-3.17578 1.29593,-0.17629 2.82889,-0.0258 4.42969,0.41797 1.61372,0.44737 3.32398,1.18876 5.148437,2.08985 3.65895,1.80712 7.86033,4.40313 13.2793,5.4082 3.95345,0.73326 7.59943,0.40897 10.7832,0.14258 3.17377,-0.26556 5.96484,-0.46932 8.29492,-0.11524 2.74024,0.41642 5.80279,1.76306 9.35156,3.24414 4.71454,1.96762 10.71604,3.92129 15.61386,5.37376 0.31788,-3.13322 0.33673,-6.59408 -0.0426,-10.49125 -4.55528,-1.35088 -7.33487,-2.28101 -11.71968,-4.11102 -3.30996,-1.38142 -7.09367,-3.20218 -11.70118,-3.90235 -3.92189,-0.59598 -7.50288,-0.22461 -10.63085,0.0371 -3.11797,0.26089 -5.86074,0.4102 -8.125,-0.01 -3.1128,-0.57734 -6.55464,-2.50562 -10.67579,-4.54102 -2.06558,-1.02017 -4.33903,-2.05002 -6.906247,-2.76172 -1.29007,-0.35764 -2.65006,-0.63347 -4.06445,-0.76757 z"
       id="path6657"
       sodipodi:nodetypes="ccssscccsssssssccssscsscc" />
    <path
       id="path471"
       style="fill:url(#linearGradient4054);fill-opacity:1;stroke-width:3.76499;stroke-linecap:round;stroke-linejoin:round"
       d="m 117.00444,116.60044 a 26.944023,26.944023 0 0 0 -26.944087,26.94409 26.944023,26.944023 0 0 0 0.93276,6.95565 22.254791,16.483963 20.71967 0 1 15.480187,17.82578 26.944023,26.944023 0 0 0 10.53114,2.16266 26.944023,26.944023 0 0 0 26.94409,-26.94409 26.944023,26.944023 0 0 0 -26.94409,-26.94409 z" />
    <path
       id="circle473"
       style="fill:url(#linearGradient4056);fill-opacity:1;stroke-width:2.09159;stroke-linecap:round;stroke-linejoin:round"
       d="m 106.44972,132.01603 a 13.59214,16.483965 0 0 0 -13.592447,16.48375 13.59214,16.483965 0 0 0 0.22583,2.93316 22.254791,16.483963 20.71967 0 1 12.701027,13.52217 13.59214,16.483965 0 0 0 0.66559,0.0289 13.59214,16.483965 0 0 0 13.59194,-16.48427 13.59214,16.483965 0 0 0 -13.59194,-16.48375 z" />
    <path
       style="color:#000000;fill:#3b003f;fill-opacity:1"
       d="m 90.127433,160.88123 v 0 c 0,0 1.67871,11.31096 10.803677,16.57927 9.22674,5.32706 18.9823,1.08492 18.9823,1.08492 0,0 -9.95721,2.41696 -18.39281,-2.34668 -8.435607,-4.76363 -11.393167,-15.31751 -11.393167,-15.31751 z"
       id="path594"
       sodipodi:nodetypes="ccsczc" />
    <path
       style="mix-blend-mode:normal;fill:none;stroke:#bfbfbf;stroke-width:2.065;stroke-linecap:round;stroke-linejoin:miter;stroke-dasharray:none;stroke-opacity:0.769259;filter:url(#filter6649)"
       d="m 112.00399,136.39522 c 0,0 4.20308,2.85043 5.00045,7.14931"
       id="path6440"
       sodipodi:nodetypes="cc" />
    <ellipse
       style="opacity:0.393448;fill:url(#linearGradient6835);fill-opacity:1;stroke:none;stroke-width:3.28336;stroke-linecap:round;stroke-linejoin:round;stroke-dasharray:none;stroke-opacity:0.769259"
       id="path6734"
       cx="123.75468"
       cy="51.783024"
       rx="2.8653402"
       ry="5.2062674"
       transform="rotate(35.159691)" />
    <ellipse
       style="opacity:0.483811;fill:url(#linearGradient6837);fill-opacity:1;stroke:none;stroke-width:3.28336;stroke-linecap:round;stroke-linejoin:round;stroke-dasharray:none;stroke-opacity:0.769259"
       id="ellipse6788"
       cx="130.48128"
       cy="41.461246"
       rx="2.8653402"
       ry="5.2062674"
       transform="rotate(35.159691)" />
    <ellipse
       style="opacity:0.291529;fill:url(#linearGradient6833);fill-opacity:1;stroke:none;stroke-width:1.52414;stroke-linecap:round;stroke-linejoin:round;stroke-dasharray:none;stroke-opacity:0.769259"
       id="ellipse6790"
       cx="130.28326"
       cy="50.854221"
       rx="1.3300979"
       ry="2.4167619"
       transform="rotate(35.159691)" />
    <text
       xml:space="preserve"
       style="font-size:16.9333px;line-height:1.25;font-family:sans-serif;word-spacing:0px;fill:#110021;fill-opacity:1;stroke-width:0.264583"
       id="text7030"
       transform="translate(2.9010243,-3.0439877)"><textPath
         xlink:href="#path1077"
         id="textPath1081"
         style="font-style:normal;font-variant:normal;font-weight:normal;font-stretch:normal;font-size:16.9333px;font-family:'Child Dream';-inkscape-font-specification:'Child Dream';fill:#110021;fill-opacity:1">MONSTRO</textPath></text>
    <path
       style="fill:none;stroke:none;stroke-width:0.264583px;stroke-linecap:butt;stroke-linejoin:miter;stroke-opacity:1"
       d="m 105.00087,95.624678 c 9.28129,-2e-6 18.55083,2.498652 26.57473,7.163352 8.02389,4.6647 14.78183,11.48365 19.37423,19.54914 4.5924,8.06549 7.00765,17.35712 6.92423,26.63803 -0.0834,9.28091 -2.66527,18.52763 -7.4019,26.50927 -7.5347,12.69665 -20.617,21.96489 -35.09389,24.8625"
       id="path1077"
       inkscape:path-effect="#path-effect1079"
       inkscape:original-d="m 105.00087,95.624678 c 15.15736,26.620192 30.31446,53.240122 45.47129,79.859792 15.15683,26.61966 -23.39567,16.57527 -35.09389,24.8625" />
    <path
       style="fill:none;stroke:none;stroke-width:0.264583px;stroke-linecap:butt;stroke-linejoin:miter;stroke-opacity:1"
       d="m 46.907821,189.5043 c 5.075,9.92473 13.339462,18.18715 23.265448,23.2597 9.925987,5.07254 21.463732,6.92978 32.480131,5.22835 11.62619,-1.79561 22.60286,-7.55753 30.68392,-16.10673 8.08107,-8.5492 13.21638,-19.83262 14.35512,-31.54141"
       id="path3981"
       inkscape:path-effect="#path-effect3983"
       inkscape:original-d="m 46.907821,189.5043 c 18.582232,9.49606 37.164089,18.99209 55.745579,28.48805 18.58149,9.49597 30.0264,-31.76538 45.03904,-47.64814" />
    <text
       xml:space="preserve"
       style="font-size:16.9333px;line-height:1.25;font-family:sans-serif;letter-spacing:1.27529px;word-spacing:0px;fill:#110021;fill-opacity:1;stroke-width:0.264583"
       id="text3987"
       transform="rotate(-3.1881354,61.433193,106.29991)"><textPath
         xlink:href="#path3981"
         id="textPath4043"><tspan
           id="tspan3985"
           style="font-style:normal;font-variant:normal;font-weight:normal;font-stretch:normal;font-size:16.9333px;font-family:'Child Dream';-inkscape-font-specification:'Child Dream';fill:#110021;fill-opacity:1;stroke-width:0.264583">NAUTAS</tspan></textPath></text>
  </g>
</svg>
