<?xml version="1.0" encoding="UTF-8" standalone="no"?>
<!-- Created with Inkscape (http://www.inkscape.org/) -->

<svg
   width="169.5546mm"
   height="217.57983mm"
   viewBox="0 0 169.5546 217.57983"
   version="1.1"
   id="svg5"
   inkscape:version="1.1.2 (0a00cf5339, 2022-02-04, custom)"
   sodipodi:docname="main-mascote.svg"
   xmlns:inkscape="http://www.inkscape.org/namespaces/inkscape"
   xmlns:sodipodi="http://sodipodi.sourceforge.net/DTD/sodipodi-0.dtd"
   xmlns:xlink="http://www.w3.org/1999/xlink"
   xmlns="http://www.w3.org/2000/svg"
   xmlns:svg="http://www.w3.org/2000/svg">
  <sodipodi:namedview
     id="namedview7"
     pagecolor="#505050"
     bordercolor="#ffffff"
     borderopacity="1"
     inkscape:pageshadow="0"
     inkscape:pageopacity="0"
     inkscape:pagecheckerboard="1"
     inkscape:document-units="mm"
     showgrid="false"
     inkscape:snap-bbox="true"
     showguides="true"
     inkscape:guide-bbox="true"
     inkscape:snap-page="true"
     inkscape:snap-bbox-midpoints="true"
     inkscape:object-paths="true"
     inkscape:snap-smooth-nodes="false"
     inkscape:snap-intersection-paths="false"
     inkscape:object-nodes="false"
     inkscape:bbox-paths="true"
     inkscape:snap-bbox-edge-midpoints="true"
     inkscape:zoom="0.22551429"
     inkscape:cx="-148.54935"
     inkscape:cy="-97.554794"
     inkscape:window-width="1280"
     inkscape:window-height="956"
     inkscape:window-x="0"
     inkscape:window-y="32"
     inkscape:window-maximized="1"
     inkscape:current-layer="layer1"
     inkscape:bbox-nodes="true"
     inkscape:snap-global="true"
     fit-margin-top="0"
     fit-margin-left="0"
     fit-margin-right="0"
     fit-margin-bottom="0" />
  <defs
     id="defs2">
    <linearGradient
       inkscape:collect="always"
       id="linearGradient22283">
      <stop
         style="stop-color:#c5ff29;stop-opacity:1"
         offset="0"
         id="stop22279" />
      <stop
         style="stop-color:#ff000c;stop-opacity:1"
         offset="1"
         id="stop22281" />
    </linearGradient>
    <clipPath
       clipPathUnits="userSpaceOnUse"
       id="clipPath8691">
      <path
         id="path8693"
         style="fill:#2d2d37;fill-opacity:1;stroke-width:1.00326;stroke-linecap:round;stroke-linejoin:round"
         d="m 135.51567,166.17783 c 0,3.47176 -5.64229,9.65798 -17.82434,9.65798 -12.18207,0 -16.12177,-6.18622 -16.12178,-9.65798 z"
         sodipodi:nodetypes="czcc" />
    </clipPath>
    <linearGradient
       inkscape:collect="always"
       xlink:href="#linearGradient22283"
       id="linearGradient22285"
       x1="151.47844"
       y1="65.88517"
       x2="153.22404"
       y2="69.3368"
       gradientUnits="userSpaceOnUse" />
    <clipPath
       clipPathUnits="userSpaceOnUse"
       id="clipPath33417">
      <path
         id="path33419"
         style="fill:#cccccc;fill-opacity:1;stroke-width:0.0613108;stroke-linecap:round;stroke-linejoin:round"
         d="m 98.14386,110.86237 c 0,0 -4.441571,3.21778 -4.441554,7.18695 -1.1e-5,1.79036 0.0024,7.68888 0.0029,8.97459 -0.0015,0.0493 -0.0029,0.0988 -0.003,0.14836 l -6.7e-5,0.58031 c 2.4e-5,0.052 0.0011,0.10365 0.0028,0.15513 -7.1e-5,0.001 8.9e-5,0.0897 8.9e-5,0.0897 l 0.0036,-3.4e-4 c 0.126289,2.34592 2.056375,4.19711 4.434884,4.19711 2.378558,0 4.308588,-1.85122 4.434808,-4.19721 0,0 7e-5,-0.001 7e-5,-0.001 0.004,-0.0807 0.007,-0.16208 0.007,-0.24382 l 7e-5,-0.58031 c 0,-0.0692 -0.002,-0.13803 -0.005,-0.20645 0.002,-1.02044 0.005,-2.63512 0.005,-4.04995 l -1.5e-4,-4.8666 c 0,-3.96916 -4.441865,-7.18679 -4.441865,-7.18679 z" />
    </clipPath>
  </defs>
  <g
     inkscape:label="Camada 1"
     inkscape:groupmode="layer"
     id="layer1"
     transform="translate(-9.7574562,-48.648909)">
    <path
       style="fill:#999999;fill-opacity:1;stroke:none;stroke-width:0.264583px;stroke-linecap:butt;stroke-linejoin:miter;stroke-opacity:1"
       d="m 89.930099,179.37982 c 0,0 -15.109517,38.63946 -50.426844,-4.83945 C 4.1859281,131.06146 24.61744,110.73644 46.932764,87.737058 69.248089,64.737676 142.38901,60.929435 142.38901,60.929435 l -0.70242,-1.080913 c 0,0 -80.640637,1.08342 -103.313456,24.682956 -22.672819,23.599542 -43.4889956,57.295192 -14.225226,95.432472 29.26377,38.13728 66.631508,18.63655 66.631508,18.63655 z"
       id="path16372"
       sodipodi:nodetypes="czzcczzcc" />
    <path
       id="rect1336"
       style="fill:#999999;stroke:none;stroke-width:16.375;stroke-linecap:round;stroke-linejoin:round"
       d="m 618.30469,292.12305 c -32.91372,0 -59.41211,26.49643 -59.41211,59.41015 v 86.96875 l -64.5332,64.53516 c -23.27352,23.27351 -23.27352,60.74602 0,84.01953 23.27351,23.27352 60.74601,23.27352 84.01953,0 l 75.4707,-75.47266 c 12.72105,-14.2986 23.65908,-36.37199 23.86523,-53.31836 V 351.5332 c 0,-32.91372 -26.49643,-59.41015 -59.41015,-59.41015 z"
       transform="scale(0.26458333)"
       sodipodi:nodetypes="ssccscccss" />
    <path
       id="path846"
       style="fill:#b3b3b3;stroke:none;stroke-width:10.8694;stroke-linecap:round;stroke-linejoin:round"
       d="m 396.84961,368.72266 c -106.33474,6e-4 -192.53563,86.20237 -192.53516,192.53711 3.66533,55.14542 26.66289,96.38933 49.36914,136.21679 l 88.97071,154.10352 -37.79883,65.4707 c -16.45686,28.50412 -6.75803,64.69939 21.74609,81.15625 28.50412,16.45687 64.70134,6.75997 81.15821,-21.74414 L 461.125,884.0293 c 4.45521,-7.71665 6.99063,-15.99702 7.75781,-24.29688 -3.63692,-37.22533 -20.14886,-73.39056 -40.73437,-108.57812 12.27059,-2.02811 24.3158,-5.24038 35.96679,-9.5918 l 41.14454,71.26367 -36.04297,62.42774 c -16.45686,28.50411 -6.75803,64.69939 21.74609,81.15625 28.50412,16.45686 64.69939,6.75802 81.15625,-21.7461 l 53.36719,-92.43164 c 12.1736,-21.0853 3.02046,-53.57829 -3.44531,-64.77734 -2.60354,-4.50946 -33.57362,-58.15142 -64.07227,-110.97656 20.46424,-31.27959 31.38096,-67.83966 31.41797,-105.21875 4.7e-4,-106.33551 -86.2016,-192.53758 -192.53711,-192.53711 z"
       transform="scale(0.26458333)"
       sodipodi:nodetypes="cccccscccccccsccsccc" />
    <path
       id="rect1334"
       style="fill:#cccccc;stroke:none;stroke-width:16.375;stroke-linecap:round;stroke-linejoin:round"
       d="m 140.17188,314.74219 c -32.91373,0 -59.412114,26.49643 -59.412114,59.41015 v 106.73243 c 0.184683,27.82863 10.042052,56.26903 29.560544,68.15234 l 92.43164,53.36719 c 28.50412,16.45686 64.70135,6.75802 81.15821,-21.7461 16.45686,-28.50412 6.75802,-64.69939 -21.7461,-81.15625 l -62.58203,-36.13281 v -89.2168 c 0,-32.91372 -26.49643,-59.41015 -59.41015,-59.41015 z"
       sodipodi:nodetypes="sscccsccss"
       transform="scale(0.26458333)" />
    <circle
       style="fill:#54ff6f;fill-opacity:1;stroke:none;stroke-width:3.78077;stroke-linecap:round;stroke-linejoin:round"
       id="path2984"
       cx="113.62942"
       cy="148.5"
       r="38.925838" />
    <circle
       style="fill:#fafafa;fill-opacity:1;stroke:none;stroke-width:1.72643;stroke-linecap:round;stroke-linejoin:round"
       id="circle3084"
       cx="122.19657"
       cy="148.5"
       r="17.774899" />
    <circle
       style="fill:#262633;fill-opacity:1;stroke:none;stroke-width:0.888671;stroke-linecap:round;stroke-linejoin:round"
       id="circle3104"
       cx="123.54662"
       cy="156.71637"
       r="9.1495399" />
    <path
       id="circle3124"
       style="fill:#262633;fill-opacity:1;stroke-width:1.00326;stroke-linecap:round;stroke-linejoin:round"
       d="m 131.37209,173.74959 c -0.89856,3.35346 -7.9497,7.86856 -19.71666,4.71561 -11.766973,-3.15295 -13.97132,-10.14805 -13.072774,-13.50151 z"
       sodipodi:nodetypes="czcc" />
    <g
       id="g8502"
       transform="rotate(15,104.68727,154.2269)"
       clip-path="url(#clipPath8691)"
       style="fill:#fafafa;fill-opacity:1">
      <circle
         style="fill:#fafafa;fill-opacity:1;stroke:none;stroke-width:0.2;stroke-linecap:round;stroke-linejoin:round;stroke-miterlimit:4;stroke-dasharray:none;stroke-opacity:1"
         id="circle8406"
         cx="99.856613"
         cy="166.44937"
         r="2.7534471" />
      <circle
         style="fill:#fafafa;fill-opacity:1;stroke:none;stroke-width:0.2;stroke-linecap:round;stroke-linejoin:round;stroke-miterlimit:4;stroke-dasharray:none;stroke-opacity:1"
         id="circle8448"
         cx="105.36351"
         cy="166.44937"
         r="2.7534471" />
      <circle
         style="fill:#fafafa;fill-opacity:1;stroke:none;stroke-width:0.2;stroke-linecap:round;stroke-linejoin:round;stroke-miterlimit:4;stroke-dasharray:none;stroke-opacity:1"
         id="circle8450"
         cx="110.65516"
         cy="166.44937"
         r="2.7534471" />
      <circle
         style="fill:#fafafa;fill-opacity:1;stroke:none;stroke-width:0.2;stroke-linecap:round;stroke-linejoin:round;stroke-miterlimit:4;stroke-dasharray:none;stroke-opacity:1"
         id="circle8452"
         cx="115.94682"
         cy="166.44937"
         r="2.7534471" />
      <circle
         style="fill:#fafafa;fill-opacity:1;stroke:none;stroke-width:0.2;stroke-linecap:round;stroke-linejoin:round;stroke-miterlimit:4;stroke-dasharray:none;stroke-opacity:1"
         id="circle8454"
         cx="121.23849"
         cy="166.44937"
         r="2.7534471" />
      <circle
         style="fill:#fafafa;fill-opacity:1;stroke:none;stroke-width:0.2;stroke-linecap:round;stroke-linejoin:round;stroke-miterlimit:4;stroke-dasharray:none;stroke-opacity:1"
         id="circle8456"
         cx="126.53016"
         cy="166.44937"
         r="2.7534471" />
      <circle
         style="fill:#fafafa;fill-opacity:1;stroke:none;stroke-width:0.2;stroke-linecap:round;stroke-linejoin:round;stroke-miterlimit:4;stroke-dasharray:none;stroke-opacity:1"
         id="circle8474"
         cx="131.82182"
         cy="166.44937"
         r="2.7534471" />
      <circle
         style="fill:#fafafa;fill-opacity:1;stroke:none;stroke-width:0.2;stroke-linecap:round;stroke-linejoin:round;stroke-miterlimit:4;stroke-dasharray:none;stroke-opacity:1"
         id="circle8492"
         cx="137.11349"
         cy="166.44937"
         r="2.7534471" />
    </g>
    <path
       id="path10216"
       style="fill:#262633;fill-opacity:1;stroke:none;stroke-width:0.138693;stroke-linecap:round;stroke-linejoin:round;stroke-miterlimit:4;stroke-dasharray:none;stroke-opacity:1"
       d="m 122.19657,118.10103 a 17.710751,11.167165 0 0 0 -17.71071,11.16714 17.710751,11.167165 0 0 0 0.16066,1.45693 17.710751,11.167165 0 0 1 17.55005,-9.71021 17.710751,11.167165 0 0 1 17.55411,9.68859 17.710751,11.167165 0 0 0 0.1566,-1.43531 17.710751,11.167165 0 0 0 -17.71071,-11.16714 z" />
    <g
       id="g33517"
       transform="translate(6.6098384,-17.900904)">
      <g
         id="g33427"
         transform="translate(-9.7052366,19.612237)">
        <path
           id="path21833"
           style="fill:url(#linearGradient22285);fill-opacity:1;stroke:none;stroke-width:0.0641104;stroke-linecap:round;stroke-linejoin:round;stroke-miterlimit:4;stroke-dasharray:none;stroke-opacity:1"
           d="m 148.23055,63.209903 c -0.37285,0.216043 -0.70898,0.490001 -0.99584,0.811562 0.50136,-0.08203 1.03501,-0.05115 1.5748,0.09116 -0.34213,1.08666 -0.21283,2.266999 0.35643,3.253826 0.65282,0.849639 4.21808,1.970351 4.21808,1.970351 0,0 0.87902,-3.766532 0.40266,-4.638141 -0.56972,-0.986639 -1.5272,-1.689049 -2.63936,-1.936347 0.14665,-0.538305 0.38661,-1.015638 0.70813,-1.408639 -0.42192,0.08765 -0.82722,0.241785 -1.20075,0.456648 -0.41286,0.238846 -0.78053,0.548393 -1.08615,0.914576 -0.47104,0.08178 -0.92397,0.245959 -1.338,0.485004 z"
           sodipodi:nodetypes="ccccccccccc" />
        <path
           id="path21724"
           style="fill:#ff0064;fill-opacity:1;stroke:none;stroke-width:0.0641104;stroke-linecap:round;stroke-linejoin:round;stroke-miterlimit:4;stroke-dasharray:none;stroke-opacity:1"
           d="m 150.04307,57.060245 a 4.0673399,4.0673399 0 0 0 -0.99586,0.811567 5.4243451,4.0673399 60 0 1 5.17389,3.039772 5.4243451,4.0673399 60 0 1 0.85499,2.416822 4.0673399,4.0673399 0 0 0 0.5231,-4.779397 4.0673399,4.0673399 0 0 0 -5.55612,-1.488764 z" />
        <path
           id="path21831"
           style="fill:#ff0064;fill-opacity:1;stroke:none;stroke-width:0.0641104;stroke-linecap:round;stroke-linejoin:round;stroke-miterlimit:4;stroke-dasharray:none;stroke-opacity:1"
           d="m 144.42268,60.305175 a 4.0673399,4.0673399 0 0 1 1.20077,-0.456653 5.4243451,4.0673399 60 0 0 0.0456,6.000602 5.4243451,4.0673399 60 0 0 1.66552,1.948862 4.0673399,4.0673399 0 0 1 -4.40062,-1.936687 4.0673399,4.0673399 0 0 1 1.48875,-5.556124 z" />
        <path
           id="path24551"
           style="fill:#cccccc;fill-opacity:1;stroke-width:0.0613108;stroke-linecap:round;stroke-linejoin:round"
           d="m 140.42626,46.937696 c 0,0 -2.23762,5.00747 -0.25302,8.444863 0.89517,1.550503 3.84654,6.657554 4.48979,7.770778 0.0233,0.04344 0.0469,0.08697 0.0716,0.129973 l 0.2901,0.502601 c 0.026,0.045 0.0528,0.0892 0.08,0.132939 6.5e-4,0.0011 0.0449,0.07759 0.0449,0.07759 l 0.003,-0.0021 c 1.28233,1.968482 3.87943,2.606618 5.93928,1.417364 2.05989,-1.189281 2.80574,-3.757507 1.74205,-5.852299 0,0 -4.9e-4,-9.88e-4 -4.9e-4,-9.89e-4 -0.0366,-0.072 -0.0753,-0.143676 -0.11614,-0.214481 l -0.29009,-0.5026 c -0.0346,-0.05992 -0.0704,-0.118738 -0.10731,-0.176431 -0.50853,-0.884711 -1.31336,-2.284511 -2.02077,-3.509796 l -2.43343,-4.214525 c -1.98457,-3.437392 -7.44016,-4.003007 -7.44016,-4.003007 z" />
        <circle
           style="opacity:1;fill:#ff0064;fill-opacity:1;stroke:none;stroke-width:0.2;stroke-linecap:round;stroke-linejoin:round;stroke-miterlimit:4;stroke-dasharray:none;stroke-opacity:1"
           id="path30418"
           cx="145.75127"
           cy="56.411613"
           r="3.3996453" />
        <rect
           style="opacity:1;fill:#ff0064;fill-opacity:1;stroke:none;stroke-width:0.2;stroke-linecap:round;stroke-linejoin:round;stroke-miterlimit:4;stroke-dasharray:none;stroke-opacity:1"
           id="rect33333"
           width="18.631865"
           height="11.515126"
           x="89.194725"
           y="105.57046"
           ry="5.7575631"
           transform="rotate(-30)"
           clip-path="url(#clipPath33417)" />
      </g>
      <circle
         style="opacity:1;fill:#cccccc;fill-opacity:1;stroke:none;stroke-width:0.165189;stroke-linecap:round;stroke-linejoin:round;stroke-miterlimit:4;stroke-dasharray:none;stroke-opacity:1"
         id="circle30500"
         cx="136.04604"
         cy="76.023849"
         r="2.8079274" />
    </g>
  </g>
</svg>
