<?xml version="1.0" encoding="UTF-8" standalone="no"?>
<!-- Created with Inkscape (http://www.inkscape.org/) -->

<svg
   width="210mm"
   height="297mm"
   viewBox="0 0 210 297"
   version="1.1"
   id="svg5"
   inkscape:version="1.2 (dc2aedaf03, 2022-05-15)"
   sodipodi:docname="separator.svg"
   xmlns:inkscape="http://www.inkscape.org/namespaces/inkscape"
   xmlns:sodipodi="http://sodipodi.sourceforge.net/DTD/sodipodi-0.dtd"
   xmlns="http://www.w3.org/2000/svg"
   xmlns:svg="http://www.w3.org/2000/svg">
  <sodipodi:namedview
     id="namedview7"
     pagecolor="#505050"
     bordercolor="#ffffff"
     borderopacity="1"
     inkscape:showpageshadow="0"
     inkscape:pageopacity="0"
     inkscape:pagecheckerboard="1"
     inkscape:deskcolor="#505050"
     inkscape:document-units="mm"
     showgrid="false"
     inkscape:zoom="0.4204826"
     inkscape:cx="256.84772"
     inkscape:cy="537.47765"
     inkscape:window-width="1280"
     inkscape:window-height="944"
     inkscape:window-x="0"
     inkscape:window-y="44"
     inkscape:window-maximized="1"
     inkscape:current-layer="layer1" />
  <defs
     id="defs2">
    <inkscape:path-effect
       effect="bspline"
       id="path-effect205"
       is_visible="true"
       lpeversion="1"
       weight="33.333333"
       steps="2"
       helper_size="0"
       apply_no_weight="true"
       apply_with_weight="true"
       only_selected="false" />
  </defs>
  <g
     inkscape:label="Camada 1"
     inkscape:groupmode="layer"
     id="layer1">
    <path
       id="rect519"
       style="opacity:1;fill:#e9e9e9;stroke-width:10;stroke-linecap:round;stroke-linejoin:round;stroke-opacity:0.769259;fill-opacity:1"
       d="M 0.0041341146 9.4423177 C 0.0036941456 9.4962068 0 9.5484075 0 9.6025146 L 0 287.39744 C -6.2665859e-16 292.71731 2.1350099 296.99996 4.7867879 296.99996 L 205.21331 296.99996 C 207.86509 296.99996 210.0001 292.71731 210.0001 287.39744 L 210.0001 9.6025146 C 210.0001 9.554168 209.99684 9.5075439 209.99648 9.4593709 C 209.98185 53.23578 209.7665 96.091704 206.5259 125.07144 C 203.05181 156.13899 196.10373 171.27097 188.14666 169.69972 C 180.18959 168.12847 171.22391 149.85385 167.08954 151.19491 C 162.95518 152.53595 163.65266 173.49291 160.41398 188.53681 C 157.1753 203.58072 150.00055 212.7109 145.1715 210.69928 C 140.34247 208.68766 137.85943 195.53412 134.85895 182.12635 C 131.85846 168.71858 128.34045 155.0573 120.90942 150.66264 C 113.47839 146.26796 102.13439 151.14057 91.416642 147.20704 C 80.698886 143.27351 70.607824 130.53351 62.254081 133.76238 C 53.90034 136.99124 47.284729 156.18911 42.03206 157.00799 C 36.77939 157.82687 32.88987 140.26591 26.111584 140.1346 C 19.333299 140.00328 9.66665 157.30277 4.8332967 136.8516 C 0.26221131 117.51013 0.017593103 64.379531 0.0041341146 9.4423177 z " />
  </g>
</svg>
